<?xml version="1.0" encoding="UTF-8" standalone="no"?>
<!-- Created with Inkscape (http://www.inkscape.org/) -->

<svg
   xmlns:dc="http://purl.org/dc/elements/1.1/"
   xmlns:cc="http://creativecommons.org/ns#"
   xmlns:rdf="http://www.w3.org/1999/02/22-rdf-syntax-ns#"
   xmlns:svg="http://www.w3.org/2000/svg"
   xmlns="http://www.w3.org/2000/svg"
   xmlns:sodipodi="http://sodipodi.sourceforge.net/DTD/sodipodi-0.dtd"
   xmlns:inkscape="http://www.inkscape.org/namespaces/inkscape"
   width="386.69904"
   height="485.0141"
   id="svg2"
   version="1.1"
   inkscape:version="0.48.2 r9819"
   sodipodi:docname="New document 1">
  <defs
     id="defs4" />
  <sodipodi:namedview
     id="base"
     pagecolor="#ffffff"
     bordercolor="#666666"
     borderopacity="1.0"
     inkscape:pageopacity="0.0"
     inkscape:pageshadow="2"
     inkscape:zoom="0.90509668"
     inkscape:cx="101.80741"
     inkscape:cy="241.28863"
     inkscape:document-units="px"
     inkscape:current-layer="layer1"
     showgrid="false"
     fit-margin-top="0"
     fit-margin-left="0"
     fit-margin-right="0"
     fit-margin-bottom="0"
     inkscape:window-width="1366"
     inkscape:window-height="720"
     inkscape:window-x="1"
     inkscape:window-y="0"
     inkscape:window-maximized="0" />
  <metadata
     id="metadata7">
    <rdf:RDF>
      <cc:Work
         rdf:about="">
        <dc:format>image/svg+xml</dc:format>
        <dc:type
           rdf:resource="http://purl.org/dc/dcmitype/StillImage" />
        <dc:title></dc:title>
      </cc:Work>
    </rdf:RDF>
  </metadata>
  <g
     inkscape:label="Layer 1"
     inkscape:groupmode="layer"
     id="layer1"
     transform="translate(-440.82903,-286.71506)">
    <g
       id="g3837">
      <path
         transform="matrix(1.1864407,0,0,0.77777778,-50.737508,166.33938)"
         d="m 740.2524,763.44275 c 0,8.23762 -72.96238,14.91553 -162.96602,14.91553 -90.00365,0 -162.96602,-6.67791 -162.96602,-14.91553 0,-8.23762 72.96237,-14.91553 162.96602,-14.91553 90.00364,0 162.96602,6.67791 162.96602,14.91553 z"
         sodipodi:ry="14.915534"
         sodipodi:rx="162.96602"
         sodipodi:cy="763.44275"
         sodipodi:cx="577.28638"
         id="path3835"
         style="fill:#b1473b;fill-opacity:0.68888891;stroke:none"
         sodipodi:type="arc" />
      <path
         inkscape:connector-curvature="0"
         id="rect3050"
         d="m 477.47542,286.72337 c -11.53526,0.58096 -20.625,10.06541 -20.625,21.75 l 0,428.25 c 0,12.06151 9.68849,21.75 21.75,21.75 l 311.125,0 c 12.06151,0 21.78125,-9.68849 21.78125,-21.75 l 0,-428.25 c 0,-12.06151 -9.71974,-21.75 -21.78125,-21.75 l -311.125,0 c -0.37692,0 -0.7529,-0.0187 -1.125,0 z m 123.71875,20.40625 65.9375,0 c 0.72338,0 1.3125,0.58912 1.3125,1.3125 l 0,3.59375 c 0,0.72338 -0.58912,1.3125 -1.3125,1.3125 l -65.9375,0 c -0.72339,0 -1.3125,-0.58912 -1.3125,-1.3125 l 0,-3.59375 c 0,-0.72338 0.58911,-1.3125 1.3125,-1.3125 z m -109.53125,28.84375 285,0 0,375 -285,0 0,-375 z m 142.53125,383.8125 c 7.93253,0 14.34375,6.44248 14.34375,14.375 0,7.93252 -6.41122,14.375 -14.34375,14.375 -7.93252,0 -14.375,-6.44248 -14.375,-14.375 0,-7.93252 6.44248,-14.375 14.375,-14.375 z"
         style="fill:#303e4e;fill-opacity:1;stroke:none" />
    </g>
  </g>
</svg>
