<?xml version="1.0" encoding="UTF-8" standalone="no"?>
<!-- Created with Inkscape (http://www.inkscape.org/) -->

<svg
   xmlns:dc="http://purl.org/dc/elements/1.1/"
   xmlns:cc="http://creativecommons.org/ns#"
   xmlns:rdf="http://www.w3.org/1999/02/22-rdf-syntax-ns#"
   xmlns:svg="http://www.w3.org/2000/svg"
   xmlns="http://www.w3.org/2000/svg"
   xmlns:sodipodi="http://sodipodi.sourceforge.net/DTD/sodipodi-0.dtd"
   xmlns:inkscape="http://www.inkscape.org/namespaces/inkscape"
   id="svg2"
   version="1.1"
   inkscape:version="0.48+devel r10115"
   width="744.095"
   height="1052.3625"
   xml:space="preserve"
   sodipodi:docname="Gorilla Brown.ai"><metadata
     id="metadata8"><rdf:RDF><cc:Work
         rdf:about=""><dc:format>image/svg+xml</dc:format><dc:type
           rdf:resource="http://purl.org/dc/dcmitype/StillImage" /><dc:title></dc:title></cc:Work></rdf:RDF></metadata><defs
     id="defs6"><clipPath
       clipPathUnits="userSpaceOnUse"
       id="clipPath16"><path
         d="m 0,841.89 595.276,0 L 595.276,0 0,0 0,841.89 z"
         id="path18" /></clipPath></defs><sodipodi:namedview
     pagecolor="#ffffff"
     bordercolor="#666666"
     borderopacity="1"
     objecttolerance="10"
     gridtolerance="10"
     guidetolerance="10"
     inkscape:pageopacity="0"
     inkscape:pageshadow="2"
     inkscape:window-width="1920"
     inkscape:window-height="1152"
     id="namedview4"
     showgrid="false"
     inkscape:zoom="2"
     inkscape:cx="195.04749"
     inkscape:cy="546.18127"
     inkscape:window-x="1280"
     inkscape:window-y="0"
     inkscape:window-maximized="0"
     inkscape:current-layer="g14" /><g
     id="g10"
     inkscape:groupmode="layer"
     inkscape:label="Gorilla Brown"
     transform="matrix(1.25,0,0,-1.25,0,1052.3625)"><g
       id="g12"><g
         id="g14"
         clip-path="url(#clipPath16)"><g
           id="g20"
           transform="translate(297.6396,491.8994)"
           inkscape:export-xdpi="209.90346"
           inkscape:export-ydpi="209.90346"
           inkscape:export-filename="/Users/sdecaste/shared/devel/web/gorillasoftware/resources/gorilla512.png"><path
             d="m 0,0 c -7.943,0 -14.456,5.218 -15.147,11.87 -0.383,0.269 -0.603,0.635 -0.603,1.151 0,0.32 0.096,0.631 0.247,0.936 2.94,-1.697 8.775,-4.256 15.503,-4.256 6.788,0 12.663,2.605 15.577,4.302 0.166,-0.319 0.267,-0.647 0.267,-0.982 0,-0.565 -0.247,-0.96 -0.702,-1.233 C 14.405,5.175 7.907,0 0,0 m 7.732,28.384 c 0,-0.338 -0.271,-0.613 -0.611,-0.613 -0.336,0 -0.611,0.275 -0.611,0.613 0,0.338 0.275,0.613 0.611,0.613 0.34,0 0.611,-0.275 0.611,-0.613 m -12.64,0 c 0,-0.338 -0.276,-0.613 -0.612,-0.613 -0.339,0 -0.613,0.275 -0.613,0.613 0,0.338 0.274,0.613 0.613,0.613 0.336,0 0.612,-0.275 0.612,-0.613 m -8.446,-1.497 c 0,2.548 2.399,2.551 5.603,2.507 -0.402,-0.38 -0.657,-0.916 -0.657,-1.514 0,-1.152 0.931,-2.084 2.084,-2.084 1.152,0 2.088,0.932 2.088,2.084 0,0.537 -0.209,1.022 -0.543,1.391 2.05,-0.31 3.776,-1.278 4.778,-2.592 1.002,1.314 2.729,2.282 4.777,2.592 -0.334,-0.369 -0.542,-0.854 -0.542,-1.391 0,-1.152 0.934,-2.084 2.084,-2.084 1.153,0 2.088,0.932 2.088,2.084 0,0.598 -0.255,1.134 -0.659,1.514 3.203,0.044 5.601,0.041 5.601,-2.507 0,-1.88 -1.308,-4.685 -3.279,-6.469 2.602,-1.032 4.402,-2.754 4.952,-5.511 C 11.955,14.161 6.384,12.901 0,12.901 c -6.386,0 -11.957,1.261 -15.022,2.006 0.549,2.757 2.347,4.479 4.948,5.51 -1.972,1.784 -3.28,4.59 -3.28,6.47 m -28.558,-130.003 c 0,0 14.127,16.482 7.062,23.545 -7.062,7.064 -12.244,2.826 -12.244,2.826 0,0 -11.907,15.53 3.648,43.883 0.617,-0.611 1.242,-1.23 1.88,-1.867 19.504,-19.508 20.952,-41.371 24.325,-49.27 -0.961,0.227 -1.936,0.363 -2.829,0.363 -3.612,0 -4.53,-2.217 -4.53,-3.715 l 13.075,0 c 0,0.304 -0.211,0.638 -0.565,0.976 0.079,10.393 3.794,13.324 11.785,13.324 8.08,0 11.795,-2.983 11.795,-13.654 0,-0.05 0.03,-0.085 0.072,-0.113 -0.118,-0.184 -0.189,-0.364 -0.189,-0.533 l 13.074,0 c 0,1.498 -0.918,3.715 -4.529,3.715 -1.053,0 -2.218,-0.192 -3.341,-0.497 3.412,7.79 4.77,29.79 24.382,49.404 0.774,0.775 1.526,1.517 2.271,2.25 15.873,-28.594 3.86,-44.266 3.86,-44.266 0,0 -5.18,4.238 -12.242,-2.826 -7.065,-7.063 7.06,-23.545 7.06,-23.545 9.889,-4.238 31.551,4.236 31.551,4.236 41.154,88.244 -19.635,122.901 -19.635,122.901 l -0.009,-0.024 c -8.904,7.161 -21.785,12.482 -36.72,14.823 -2.475,3.776 -5.694,7.14 -9.369,9.212 1.298,1.941 3.12,3.436 3.12,3.436 0,0 -3.672,-0.153 -7.021,-1.814 -0.398,0.111 -0.8,0.204 -1.205,0.282 1.1,2.99 3.833,4.234 3.833,4.234 -7.108,-1.347 -11.144,-4.142 -12.638,-5.367 -4.307,-1.929 -8.08,-5.672 -10.891,-9.954 -15.153,-2.35 -28.196,-7.768 -37.143,-15.062 -5.114,-3.152 -58.46,-38.581 -19.244,-122.667 0,0 21.662,-8.474 31.551,-4.236"
             style="fill:#483831;fill-opacity:1;fill-rule:nonzero;stroke:none"
             id="path22" /></g><g
           id="g24"
           transform="translate(292.8232,499.2549)"
           style="fill:#dabfa2;fill-opacity:1"
           inkscape:export-filename="/Users/sdecaste/shared/devel/web/gorillasoftware/resources/gorilla512.png"
           inkscape:export-xdpi="209.90346"
           inkscape:export-ydpi="209.90346"><path
             d="M 0,0 C 0,0 2.154,-0.383 4.816,-0.383 7.477,-0.383 9.633,0 9.633,0 9.633,0 7.477,-1.861 4.816,-1.861 2.154,-1.861 0,0 0,0 m 19.958,4.433 c 0.455,0.272 0.702,0.668 0.702,1.232 0,0.336 -0.1,0.663 -0.266,0.982 C 17.479,4.95 11.604,2.346 4.816,2.346 c -6.727,0 -12.562,2.558 -15.503,4.256 -0.151,-0.305 -0.247,-0.617 -0.247,-0.937 0,-0.516 0.22,-0.882 0.603,-1.15 0.691,-6.653 7.204,-11.87 15.147,-11.87 7.908,0 14.406,5.174 15.142,11.788"
             style="fill:#dabfa2;fill-opacity:1;fill-rule:nonzero;stroke:none"
             id="path26" /></g><g
           id="g28"
           transform="translate(295.2549,513.8711)"
           style="fill:#dabfa2;fill-opacity:1"
           inkscape:export-filename="/Users/sdecaste/shared/devel/web/gorillasoftware/resources/gorilla512.png"
           inkscape:export-xdpi="209.90346"
           inkscape:export-ydpi="209.90346"><path
             d="M 0,0 C 0.988,0.168 1.834,0.028 1.895,-0.313 1.951,-0.651 1.195,-1.063 0.209,-1.229 -0.783,-1.396 -1.629,-1.256 -1.686,-0.917 -1.744,-0.576 -0.99,-0.165 0,0 M 4.768,0 C 5.754,-0.165 6.512,-0.576 6.453,-0.917 6.395,-1.256 5.547,-1.396 4.561,-1.229 3.57,-1.063 2.816,-0.651 2.873,-0.313 2.932,0.028 3.779,0.168 4.768,0 m -17.406,-7.064 c 3.066,-0.746 8.637,-2.006 15.023,-2.006 6.384,0 11.955,1.259 15.02,2.006 -0.55,2.756 -2.349,4.478 -4.951,5.51 1.971,1.784 3.278,4.589 3.278,6.469 0,2.548 -2.397,2.552 -5.6,2.507 0.404,-0.38 0.659,-0.916 0.659,-1.514 0,-1.152 -0.936,-2.084 -2.088,-2.084 -1.15,0 -2.084,0.932 -2.084,2.084 0,0.537 0.208,1.023 0.542,1.392 C 5.112,6.989 3.386,6.021 2.384,4.707 1.382,6.021 -0.345,6.989 -2.395,7.3 c 0.334,-0.369 0.543,-0.855 0.543,-1.392 0,-1.152 -0.935,-2.084 -2.087,-2.084 -1.153,0 -2.084,0.932 -2.084,2.084 0,0.598 0.254,1.134 0.657,1.514 -3.204,0.045 -5.603,0.041 -5.603,-2.507 0,-1.88 1.308,-4.686 3.28,-6.47 -2.601,-1.031 -4.399,-2.753 -4.949,-5.509"
             style="fill:#dabfa2;fill-opacity:1;fill-rule:nonzero;stroke:none"
             id="path30" /></g><g
           id="g32"
           transform="translate(291.5068,520.2832)"
           inkscape:export-filename="/Users/sdecaste/shared/devel/web/gorillasoftware/resources/gorilla512.png"
           inkscape:export-xdpi="209.90346"
           inkscape:export-ydpi="209.90346"><path
             d="m 0,0 c 0,-0.338 0.273,-0.612 0.613,-0.612 0.336,0 0.612,0.274 0.612,0.612 0,0.338 -0.276,0.613 -0.612,0.613 C 0.273,0.613 0,0.338 0,0"
             style="fill:#ffffff;fill-opacity:1;fill-rule:nonzero;stroke:none"
             id="path34" /></g><g
           id="g36"
           transform="translate(304.1494,520.2832)"
           inkscape:export-filename="/Users/sdecaste/shared/devel/web/gorillasoftware/resources/gorilla512.png"
           inkscape:export-xdpi="209.90346"
           inkscape:export-ydpi="209.90346"><path
             d="m 0,0 c 0,-0.338 0.275,-0.612 0.611,-0.612 0.34,0 0.612,0.274 0.612,0.612 0,0.338 -0.272,0.613 -0.612,0.613 C 0.275,0.613 0,0.338 0,0"
             style="fill:#ffffff;fill-opacity:1;fill-rule:nonzero;stroke:none"
             id="path38" /></g><g
           id="g40"
           transform="translate(293.5693,512.9541)"
           inkscape:export-filename="/Users/sdecaste/shared/devel/web/gorillasoftware/resources/gorilla512.png"
           inkscape:export-xdpi="209.90346"
           inkscape:export-ydpi="209.90346"><path
             d="M 0,0 C 0.057,-0.339 0.902,-0.479 1.895,-0.312 2.881,-0.146 3.637,0.266 3.58,0.604 3.52,0.945 2.674,1.085 1.686,0.917 0.695,0.752 -0.059,0.341 0,0"
             style="fill:#483831;fill-opacity:1;fill-rule:nonzero;stroke:none"
             id="path42" /></g><g
           id="g44"
           transform="translate(298.1279,513.5586)"
           inkscape:export-filename="/Users/sdecaste/shared/devel/web/gorillasoftware/resources/gorilla512.png"
           inkscape:export-xdpi="209.90346"
           inkscape:export-ydpi="209.90346"><path
             d="M 0,0 C -0.057,-0.339 0.697,-0.75 1.688,-0.916 2.674,-1.083 3.521,-0.943 3.58,-0.604 3.639,-0.264 2.881,0.147 1.895,0.313 0.906,0.48 0.059,0.341 0,0"
             style="fill:#483831;fill-opacity:1;fill-rule:nonzero;stroke:none"
             id="path46" /></g><g
           id="g48"
           transform="translate(202.2217,334.8975)"><path
             d="m 0,0 -3.471,0 c -2.312,0 -3.468,1.058 -3.468,3.177 l 0,16.972 c 0,2.118 1.156,3.178 3.468,3.178 l 15.311,0 0,11.033 -15.311,0 c -4.988,0 -8.98,-1.078 -11.972,-3.237 -3.223,-2.359 -4.832,-5.679 -4.832,-9.954 l 0,-19.07 c 0,-4.317 1.609,-7.657 4.832,-10.014 3.037,-2.24 7.029,-3.359 11.972,-3.359 l 16.397,0 0,24.288 L 0,13.014 0,0 z"
             style="fill:#483831;fill-opacity:1;fill-rule:nonzero;stroke:none"
             id="path50" /></g><g
           id="g52"
           transform="translate(240.0479,337.2363)"><path
             d="m 0,0 c 0,-2.119 -1.18,-3.178 -3.537,-3.178 -2.315,0 -3.471,1.059 -3.471,3.178 l 0,18.41 c 0,2.076 1.156,3.117 3.471,3.117 C -1.18,21.527 0,20.486 0,18.41 L 0,0 z m 13.334,-1.137 0,20.567 c 0,4.277 -1.633,7.595 -4.898,9.955 -3.04,2.197 -7.032,3.298 -11.973,3.298 -5.035,0 -9.027,-1.101 -11.977,-3.298 -3.218,-2.36 -4.83,-5.678 -4.83,-9.955 l 0,-20.567 c 0,-4.32 1.612,-7.658 4.83,-10.017 2.95,-2.12 6.942,-3.179 11.977,-3.179 4.988,0 9.004,1.059 12.041,3.179 3.221,2.359 4.83,5.697 4.83,10.017"
             style="fill:#483831;fill-opacity:1;fill-rule:nonzero;stroke:none"
             id="path54" /></g><g
           id="g56"
           transform="translate(275.3564,350.4893)"><path
             d="m 0,0 -3.4,0 0,7.735 3.4,0 c 3.084,0 4.627,-1.3 4.627,-3.896 C 4.627,1.279 3.084,0 0,0 m 9.186,-7.557 c 5.533,2.36 8.298,6.238 8.298,11.636 l 0,2.098 c 0,4.115 -1.699,7.293 -5.103,9.535 -3.082,2.039 -7.004,3.057 -11.77,3.057 l -17.347,0 0,-45.635 13.336,0 0,17.572 9.252,-17.572 14.558,0 -11.224,19.309 z"
             style="fill:#483831;fill-opacity:1;fill-rule:nonzero;stroke:none"
             id="path58" /></g><path
           d="m 298.489,323.623 13.334,0 0,45.635 -13.334,0 0,-45.635 z"
           style="fill:#483831;fill-opacity:1;fill-rule:nonzero;stroke:none"
           id="path60" /><g
           id="g62"
           transform="translate(330.5986,369.2578)"><path
             d="m 0,0 -13.334,0 0,-45.635 26.943,0 0,11.275 L 0,-34.36 0,0 z"
             style="fill:#483831;fill-opacity:1;fill-rule:nonzero;stroke:none"
             id="path64" /></g><g
           id="g66"
           transform="translate(362.0303,369.2578)"><path
             d="m 0,0 -13.334,0 0,-45.635 26.943,0 0,11.275 L 0,-34.36 0,0 z"
             style="fill:#483831;fill-opacity:1;fill-rule:nonzero;stroke:none"
             id="path68" /></g><g
           id="g70"
           transform="translate(392.1025,339.4561)"><path
             d="M 0,0 2.926,17.269 5.918,0 0,0 z m 11.838,29.802 -17.621,0 -9.322,-45.635 12.791,0 0.613,4.496 9.389,0 0.613,-4.496 12.926,0 -9.389,45.635 z"
             style="fill:#483831;fill-opacity:1;fill-rule:nonzero;stroke:none"
             id="path72" /></g><g
           id="g74"
           transform="translate(230.2158,303.8164)"><path
             d="m 0,0 -2.109,-0.006 c -1.114,0.087 -1.246,0.222 -1.329,1.033 0.02,0.403 0.129,0.577 0.516,0.796 0.387,0.204 1.109,0.353 2.141,0.347 1.496,0 2.929,-0.213 4.32,-0.643 l 0.789,-0.245 0,2.96 -0.433,0.112 C 2.391,4.742 0.83,4.933 -0.781,4.933 -2.658,4.932 -4.131,4.651 -5.193,3.999 -6.266,3.346 -6.828,2.277 -6.813,1.027 c -0.003,-1.248 0.377,-2.293 1.215,-3.002 0.836,-0.71 2.032,-1.018 3.489,-1.018 l 2.109,0 c 1.221,-0.081 1.379,-0.239 1.453,-1.03 -0.012,-0.701 -0.48,-1.084 -2.519,-1.144 -1.506,0 -2.942,0.218 -4.329,0.647 l -0.794,0.245 0,-2.959 0.433,-0.114 c 1.498,-0.387 3.055,-0.58 4.662,-0.58 l 0.028,0 c 1.871,0.004 3.343,0.28 4.404,0.936 1.068,0.652 1.627,1.721 1.611,2.969 0.006,1.255 -0.402,2.314 -1.287,3.015 C 2.781,-0.305 1.533,-0.006 0,0"
             style="fill:#483831;fill-opacity:1;fill-rule:nonzero;stroke:none"
             id="path76" /></g><g
           id="g78"
           transform="translate(250.3525,298.6494)"><path
             d="M 0,0 C -2.307,0.065 -3.225,1.005 -3.316,3.712 -3.223,6.356 -2.318,7.271 0,7.337 2.32,7.271 3.225,6.356 3.316,3.712 3.225,1.005 2.313,0.065 0,0 M 0,10.1 C -2.168,10.103 -3.914,9.579 -5.094,8.462 -6.273,7.343 -6.813,5.713 -6.813,3.669 l 0.598,0 -0.598,-0.002 C -6.805,1.63 -6.26,0.005 -5.08,-1.114 -3.9,-2.229 -2.158,-2.752 0,-2.752 c 2.168,0 3.914,0.519 5.094,1.638 1.181,1.119 1.72,2.744 1.72,4.783 0,2.044 -0.539,3.674 -1.72,4.793 C 3.914,9.579 2.168,10.103 0,10.1"
             style="fill:#483831;fill-opacity:1;fill-rule:nonzero;stroke:none"
             id="path80" /></g><g
           id="g82"
           transform="translate(271.6318,313.5977)"><path
             d="m 0,0 c -1.711,0 -3.107,-0.381 -4.068,-1.224 -0.963,-0.842 -1.403,-2.081 -1.401,-3.59 l 0,-12.963 0.612,0.012 2.884,0.056 0,10.098 3.914,0 0,2.762 -3.914,0 0,0.685 c 0.077,1.027 0.399,1.314 1.965,1.398 1.067,0 1.961,-0.141 2.692,-0.408 l 0.826,-0.301 0,2.864 -0.389,0.129 C 2.176,-0.162 1.133,0 0,0"
             style="fill:#483831;fill-opacity:1;fill-rule:nonzero;stroke:none"
             id="path84" /></g><g
           id="g86"
           transform="translate(284.7256,310.6563)"><path
             d="m 0,0 -2.516,0 0,-0.542 0,-10.511 c 0,-1.136 0.293,-2.084 0.981,-2.749 0.687,-0.669 1.699,-0.968 2.885,-0.968 l 0.013,0 2.289,0 0,2.763 -1.691,0 c -0.772,0.071 -0.889,0.149 -0.979,1.107 l 0,6.234 2.67,-0.002 0,2.76 -3.156,0 L 0,0 z"
             style="fill:#483831;fill-opacity:1;fill-rule:nonzero;stroke:none"
             id="path88" /></g><g
           id="g90"
           transform="translate(309.9131,301.0762)"><path
             d="m 0,0 -2.951,7.672 -2.938,0 -2.75,-7.67 -2.047,7.67 -3.564,0 0.187,-0.672 3.422,-12.189 3.295,0 2.889,7.707 3.055,-7.707 3.236,0 3.719,12.861 -3.694,0 L 0,0 z"
             style="fill:#483831;fill-opacity:1;fill-rule:nonzero;stroke:none"
             id="path92" /></g><g
           id="g94"
           transform="translate(328.624,301.499)"><path
             d="m 0,0 c 1.092,0.002 2.029,-0.049 2.807,-0.146 l 0,-2.035 C 2.025,-2.61 0.975,-2.85 -0.385,-2.85 -1.973,-2.767 -2.318,-2.46 -2.395,-1.372 -2.35,-0.44 -1.912,-0.074 0,0 M 4.6,6.208 C 3.471,6.935 1.898,7.249 -0.111,7.25 -1.514,7.25 -2.947,7.056 -4.406,6.669 l -0.43,-0.113 0,-2.811 0.768,0.205 c 1.361,0.363 2.675,0.537 3.957,0.537 2.302,-0.06 2.906,-0.515 2.918,-1.378 l 0,-0.483 C 1.967,2.718 1.029,2.763 0,2.763 c -1.836,0 -3.289,-0.306 -4.332,-1.014 -1.049,-0.711 -1.57,-1.832 -1.561,-3.15 -0.007,-1.326 0.465,-2.442 1.446,-3.171 0.976,-0.723 2.349,-1.038 4.062,-1.041 1.442,0 2.744,0.233 3.885,0.714 l 0.789,-0.711 1.418,0 0.598,0 0,8.55 C 6.314,4.317 5.736,5.48 4.6,6.208"
             style="fill:#483831;fill-opacity:1;fill-rule:nonzero;stroke:none"
             id="path96" /></g><g
           id="g98"
           transform="translate(347.46,307.6787)"><path
             d="m 0,0 -0.289,1.069 -2.623,0 0,-12.861 0.598,0 2.9,0 0,8.893 c 0.836,0.779 1.852,1.155 3.191,1.16 l 0.594,0 0,2.809 -0.594,0 C 2.373,1.075 1.094,0.712 0,0"
             style="fill:#483831;fill-opacity:1;fill-rule:nonzero;stroke:none"
             id="path100" /></g><g
           id="g102"
           transform="translate(365.8779,306.0078)"><path
             d="m 0,0 c 1.771,-0.074 2.367,-0.533 2.498,-2.015 l -5.389,0 C -2.588,-0.577 -1.795,-0.059 0,0 m 0.375,2.741 c -2.18,0.003 -3.93,-0.505 -5.121,-1.6 -1.188,-1.094 -1.734,-2.694 -1.733,-4.694 -0.001,-2.092 0.579,-3.76 1.823,-4.899 1.25,-1.14 3.084,-1.67 5.377,-1.67 1.679,0.003 3.117,0.116 4.326,0.347 l 0.473,0.092 0,2.796 -0.725,-0.146 c -1.111,-0.216 -2.221,-0.325 -3.33,-0.325 -2.949,0.074 -4.158,0.803 -4.403,2.532 l 8.655,0 0.08,0.455 c 0.131,0.725 0.195,1.396 0.195,2.016 C 5.994,-0.752 5.549,0.551 4.563,1.443 3.576,2.335 2.139,2.744 0.375,2.741"
             style="fill:#483831;fill-opacity:1;fill-rule:nonzero;stroke:none"
             id="path104" /></g><g
           id="g106"
           transform="translate(302.4561,499.2549)"
           inkscape:export-filename="/Users/sdecaste/shared/devel/web/gorillasoftware/resources/gorilla512.png"
           inkscape:export-xdpi="209.90346"
           inkscape:export-ydpi="209.90346"><path
             d="M 0,0 C 0,0 -2.156,-0.383 -4.816,-0.383 -7.479,-0.383 -9.633,0 -9.633,0 c 0,0 2.154,-1.861 4.817,-1.861 C -2.156,-1.861 0,0 0,0"
             style="fill:#483831;fill-opacity:1;fill-rule:nonzero;stroke:none"
             id="path108" /></g></g></g></g></svg>