<?xml version="1.0" encoding="UTF-8" standalone="no"?>
<!-- Created with Inkscape (http://www.inkscape.org/) -->

<svg
   xmlns:dc="http://purl.org/dc/elements/1.1/"
   xmlns:cc="http://creativecommons.org/ns#"
   xmlns:rdf="http://www.w3.org/1999/02/22-rdf-syntax-ns#"
   xmlns:svg="http://www.w3.org/2000/svg"
   xmlns="http://www.w3.org/2000/svg"
   version="1.1"
   width="135.71429"
   height="135.71429"
   id="svg11434">
  <defs
     id="defs11436">
    <clipPath
       id="clipPath11377">
      <rect
         width="97.636597"
         height="53.92857"
         ry="0"
         x="229.61696"
         y="163.92633"
         id="rect11379"
         style="fill:#44a7ff;fill-opacity:1;stroke:none" />
    </clipPath>
    <clipPath
       id="clipPath11418">
      <rect
         width="97.636597"
         height="53.92857"
         ry="0"
         x="229.61696"
         y="163.92633"
         id="rect11420"
         style="fill:#44a7ff;fill-opacity:1;stroke:none" />
    </clipPath>
  </defs>
  <metadata
     id="metadata11439">
    <rdf:RDF>
      <cc:Work
         rdf:about="">
        <dc:format>image/svg+xml</dc:format>
        <dc:type
           rdf:resource="http://purl.org/dc/dcmitype/StillImage" />
        <dc:title></dc:title>
      </cc:Work>
    </rdf:RDF>
  </metadata>
  <g
     transform="translate(-481.04349,-164.9293)"
     id="layer1">
    <path
       d="m 116.42857,46.562817 a 82.5,82.5 0 1 1 -165,0 82.5,82.5 0 1 1 165,0 z"
       transform="matrix(0.82251083,0,0,0.82251083,520.99402,194.48802)"
       id="path11517"
       style="fill:#4c4dff;fill-opacity:0;stroke:none" />
    <g
       transform="translate(354.25777,-86.718598)"
       id="g12177">
      <rect
         width="83.571434"
         height="114.28571"
         ry="5.3571429"
         x="152.85715"
         y="262.36218"
         id="rect9997"
         style="fill:#50ace0;fill-opacity:1;stroke:none" />
      <rect
         width="68.928574"
         height="71.428566"
         ry="0"
         x="160.17857"
         y="282.71933"
         id="rect10507"
         style="fill:#ffffff;fill-opacity:1;stroke:none" />
      <rect
         width="68.928574"
         height="10.714285"
         ry="0"
         x="160.17857"
         y="272.36218"
         id="rect10511"
         style="fill:#93d2c8;fill-opacity:1;stroke:none" />
      <rect
         width="48.92857"
         height="25.714285"
         ry="0"
         x="170.17857"
         y="290.57648"
         id="rect10513"
         style="fill:#e8827f;fill-opacity:1;stroke:none" />
      <rect
         width="48.92857"
         height="5.357142"
         ry="0"
         x="170.17857"
         y="334.00504"
         id="rect10517"
         style="fill:#a1cfc7;fill-opacity:1;stroke:none" />
      <rect
         width="48.92857"
         height="5.357142"
         ry="0"
         x="170.17857"
         y="325.79074"
         id="rect10519"
         style="fill:#a1cfc7;fill-opacity:1;stroke:none" />
      <rect
         width="48.92857"
         height="5.357142"
         ry="0"
         x="170.17857"
         y="342.2193"
         id="rect10521"
         style="fill:#a1cfc7;fill-opacity:1;stroke:none" />
      <path
         d="m 202.85714,405.39789 a 6.6071429,6.6071429 0 1 1 -13.21428,0 6.6071429,6.6071429 0 1 1 13.21428,0 z"
         transform="translate(-1.6071358,-40)"
         id="path10523"
         style="fill:#3a80a9;fill-opacity:1;stroke:none" />
      <rect
         width="5"
         height="5"
         x="192.14287"
         y="363.07645"
         id="rect10527"
         style="fill:#c8c8db;fill-opacity:1;stroke:none" />
      <path
         d="m 202.85714,405.39789 a 6.6071429,6.6071429 0 1 1 -13.21428,0 6.6071429,6.6071429 0 1 1 13.21428,0 z"
         transform="matrix(0.2972973,0,0,0.2972973,136.29827,146.51704)"
         id="path10529"
         style="fill:#3a80a9;fill-opacity:1;stroke:none" />
    </g>
  </g>
</svg>
