<?xml version="1.0" encoding="UTF-8" standalone="no"?>
<!-- Created with Inkscape (http://www.inkscape.org/) -->

<svg
   xmlns:dc="http://purl.org/dc/elements/1.1/"
   xmlns:cc="http://creativecommons.org/ns#"
   xmlns:rdf="http://www.w3.org/1999/02/22-rdf-syntax-ns#"
   xmlns:svg="http://www.w3.org/2000/svg"
   xmlns="http://www.w3.org/2000/svg"
   xmlns:sodipodi="http://sodipodi.sourceforge.net/DTD/sodipodi-0.dtd"
   xmlns:inkscape="http://www.inkscape.org/namespaces/inkscape"
   width="105.17054"
   height="105.27412"
   id="svg2"
   version="1.1"
   inkscape:version="0.48.2 r9819"
   sodipodi:docname="coaching_consulting.svg">
  <defs
     id="defs4" />
  <sodipodi:namedview
     id="base"
     pagecolor="#ffffff"
     bordercolor="#666666"
     borderopacity="1.0"
     inkscape:pageopacity="0.0"
     inkscape:pageshadow="2"
     inkscape:zoom="8"
     inkscape:cx="19.419208"
     inkscape:cy="77.69627"
     inkscape:document-units="px"
     inkscape:current-layer="layer2"
     showgrid="false"
     fit-margin-top="0"
     fit-margin-left="0"
     fit-margin-right="0"
     fit-margin-bottom="0"
     inkscape:snap-bbox="true"
     inkscape:snap-bbox-edge-midpoints="true"
     inkscape:bbox-nodes="true"
     inkscape:bbox-paths="true"
     inkscape:object-nodes="true"
     inkscape:snap-smooth-nodes="true"
     showguides="true"
     inkscape:guide-bbox="true"
     inkscape:object-paths="true"
     inkscape:window-width="1366"
     inkscape:window-height="720"
     inkscape:window-x="1"
     inkscape:window-y="0"
     inkscape:window-maximized="0" />
  <metadata
     id="metadata7">
    <rdf:RDF>
      <cc:Work
         rdf:about="">
        <dc:format>image/svg+xml</dc:format>
        <dc:type
           rdf:resource="http://purl.org/dc/dcmitype/StillImage" />
        <dc:title></dc:title>
      </cc:Work>
    </rdf:RDF>
  </metadata>
  <g
     inkscape:label="Layer 1"
     inkscape:groupmode="layer"
     id="layer1"
     transform="translate(115.9094,-104.4739)"
     style="display:inline" />
  <g
     inkscape:groupmode="layer"
     id="layer2"
     inkscape:label="Layer"
     style="display:inline"
     transform="translate(133.05224,-43.540267)">
    <path
       style="fill:#f2f1ea;fill-opacity:1;stroke:none"
       d="m -126.66091,50.755966 72.52921,0 c 25.9355,25.5 -0.25,0.0645 26.25,25.5 l 0,66.808414 c 0,3.1855 -2.5645,5.75 -5.75,5.75 l -93.02921,0 c -3.1855,0 -5.75,-2.5645 -5.75,-5.75 l 0,-86.558414 c 0,-3.1855 2.5645,-5.75 5.75,-5.75 z"
       id="rect3194"
       inkscape:connector-curvature="0"
       sodipodi:nodetypes="sccssssss" />
    <path
       style="fill:#e1f5f1;fill-opacity:1;stroke:none"
       d="M -27.8817,76.255966 -54.73885,75.606602 -54.1317,50.755966 z"
       id="rect3965"
       inkscape:connector-curvature="0"
       sodipodi:nodetypes="cccc" />
    <path
       sodipodi:nodetypes="cccc"
       inkscape:connector-curvature="0"
       id="path3968"
       d="m -54.73885,75.606602 26.85715,0.649364 0,24.545184 z"
       style="fill:#cfcfca;fill-opacity:1;stroke:none" />
    <path
       style="fill:#000000;fill-opacity:0.21585903;stroke:none"
       d="m -126.65625,50.75 c -3.1855,0 -5.75,2.5645 -5.75,5.75 l 0,86.5625 c 0,3.1855 2.5645,5.75 5.75,5.75 l 39.53125,0 29.71875,-29.71875 -69.03125,-68.34375 -0.21875,0 z"
       id="rect4109"
       inkscape:connector-curvature="0" />
    <g
       id="g4086"
       transform="matrix(0.70768356,0.70652953,-0.70652953,0.70768356,-78.731608,0.03144307)">
      <g
         id="g4082">
        <path
           style="fill:#cfa09f;fill-opacity:1;stroke:none"
           d="m 14.21875,53.6875 c -8.5604115,0 -15.5,6.939588 -15.5,15.5 0,8.560411 6.9395885,15.5 15.5,15.5 l 0,-31 z"
           id="path4051"
           inkscape:connector-curvature="0" />
        <path
           style="fill:#000000;fill-opacity:0.21585903;stroke:none"
           d="m -1.25,69.625 c 0.2373248,8.353007 7.0583337,15.0625 15.46875,15.0625 l 0,-15.0625 -15.46875,0 z"
           id="path4055"
           inkscape:connector-curvature="0" />
      </g>
      <rect
         y="53.67448"
         x="14.207634"
         height="30.999989"
         width="9.9999962"
         id="rect4040"
         style="fill:#e6d856;fill-opacity:1;stroke:none" />
      <path
         sodipodi:nodetypes="cccc"
         inkscape:connector-curvature="0"
         id="rect4012"
         d="m 84.207626,53.67448 15,15.499995 -15,15.499994 z"
         style="fill:#ebddb5;fill-opacity:1;stroke:none" />
      <rect
         y="53.67448"
         x="24.20763"
         height="30.999992"
         width="60"
         id="rect3975"
         style="fill:#b1473b;fill-opacity:1;stroke:none" />
      <rect
         y="53.67448"
         x="14.207626"
         height="8"
         width="70"
         id="rect4003"
         style="fill:#ffffff;fill-opacity:0.21739131;stroke:none" />
      <rect
         style="fill:#000000;fill-opacity:0.21739131;stroke:none"
         id="rect4005"
         width="70"
         height="8"
         x="14.207626"
         y="76.674469" />
      <path
         id="rect4017"
         d="m 95.5,65.34375 0,7.6875 L 99.21875,69.1875 95.5,65.34375 z"
         style="fill:#898585;fill-opacity:1;stroke:none"
         inkscape:connector-curvature="0" />
      <path
         sodipodi:nodetypes="cccc"
         inkscape:connector-curvature="0"
         id="rect4007"
         d="m 84.207626,76.674469 15,-7.499994 -15,15.499994 z"
         style="fill:#000000;fill-opacity:0.21739131;stroke:none" />
      <path
         style="fill:#ffffff;fill-opacity:0.21739131;stroke:none"
         d="M 84.20763,61.741199 99.207626,69.174475 84.20763,53.741199 z"
         id="path4010"
         inkscape:connector-curvature="0"
         sodipodi:nodetypes="cccc" />
      <rect
         y="53.67448"
         x="16.221418"
         height="30.99999"
         width="1.1681952"
         id="rect4042"
         style="fill:#000000;fill-opacity:0.50724637;stroke:none" />
      <rect
         style="fill:#000000;fill-opacity:0.50724637;stroke:none"
         id="rect4044"
         width="1.1681952"
         height="30.99999"
         x="20.994389"
         y="53.67448" />
    </g>
  </g>
</svg>
