<?xml version="1.0" encoding="UTF-8" standalone="no"?>
<!-- Created with Inkscape (http://www.inkscape.org/) -->

<svg
   xmlns:dc="http://purl.org/dc/elements/1.1/"
   xmlns:cc="http://creativecommons.org/ns#"
   xmlns:rdf="http://www.w3.org/1999/02/22-rdf-syntax-ns#"
   xmlns:svg="http://www.w3.org/2000/svg"
   xmlns="http://www.w3.org/2000/svg"
   version="1.1"
   width="135.71429"
   height="135.71429"
   id="svg11434">
  <defs
     id="defs11436">
    <clipPath
       id="clipPath11377">
      <rect
         width="97.636597"
         height="53.92857"
         ry="0"
         x="229.61696"
         y="163.92633"
         id="rect11379"
         style="fill:#44a7ff;fill-opacity:1;stroke:none" />
    </clipPath>
    <clipPath
       id="clipPath11418">
      <rect
         width="97.636597"
         height="53.92857"
         ry="0"
         x="229.61696"
         y="163.92633"
         id="rect11420"
         style="fill:#44a7ff;fill-opacity:1;stroke:none" />
    </clipPath>
  </defs>
  <metadata
     id="metadata11439">
    <rdf:RDF>
      <cc:Work
         rdf:about="">
        <dc:format>image/svg+xml</dc:format>
        <dc:type
           rdf:resource="http://purl.org/dc/dcmitype/StillImage" />
        <dc:title></dc:title>
      </cc:Work>
    </rdf:RDF>
  </metadata>
  <g
     transform="translate(-481.04349,-164.9293)"
     id="layer1">
    <path
       d="m 116.42857,46.562817 a 82.5,82.5 0 1 1 -165,0 82.5,82.5 0 1 1 165,0 z"
       transform="matrix(0.82251083,0,0,0.82251083,520.99402,194.48802)"
       id="path11517"
       style="fill:#4c4dff;fill-opacity:0;stroke:none" />
    <g
       transform="matrix(0.7937154,0,0,0.7937154,414.58104,-35.571383)"
       id="g10639">
      <polygon
         points="404.321,470.819 255.778,512 107.644,470.877 74.633,100.62 437.367,100.62 "
         transform="matrix(0.33393972,0,0,0.33393972,83.740346,235.81426)"
         id="polygon6"
         style="fill:#e44d26" />
      <polygon
         points="256,130.894 256,480.523 376.03,447.246 404.27,130.894 "
         transform="matrix(0.33393972,0,0,0.33393972,83.740346,235.81426)"
         id="polygon8"
         style="fill:#f16529" />
      <polygon
         points="256,221.716 256,176.305 255.843,176.305 142.132,176.305 143.219,188.488 154.38,313.627 256,313.627 256,268.217 195.91,268.217 191.76,221.716 "
         transform="matrix(0.33393972,0,0,0.33393972,83.740346,235.81426)"
         id="polygon10"
         style="fill:#ebebeb" />
      <polygon
         points="156.409,336.333 162.771,407.634 255.791,433.457 256,433.399 256,386.153 255.801,386.206 205.227,372.55 201.994,336.333 177.419,336.333 "
         transform="matrix(0.33393972,0,0,0.33393972,83.740346,235.81426)"
         id="polygon12"
         style="fill:#ebebeb" />
      <polygon
         points="255.843,313.627 311.761,313.627 306.49,372.521 255.843,386.191 255.843,433.435 348.937,407.634 349.62,399.962 360.291,280.411 361.399,268.217 349.162,268.217 255.843,268.217 "
         transform="matrix(0.33393972,0,0,0.33393972,83.740346,235.81426)"
         id="polygon22"
         style="fill:#ffffff" />
      <polygon
         points="255.843,221.716 365.385,221.716 365.385,221.716 365.531,221.716 366.442,211.509 368.511,188.488 369.597,176.305 255.843,176.305 255.843,204.509 255.843,221.605 "
         transform="matrix(0.33393972,0,0,0.33393972,83.740346,235.81426)"
         id="polygon24"
         style="fill:#ffffff" />
    </g>
  </g>
</svg>
