<?xml version="1.0" encoding="UTF-8" standalone="no"?>
<!-- Created with Inkscape (http://www.inkscape.org/) -->

<svg
   xmlns:dc="http://purl.org/dc/elements/1.1/"
   xmlns:cc="http://creativecommons.org/ns#"
   xmlns:rdf="http://www.w3.org/1999/02/22-rdf-syntax-ns#"
   xmlns:svg="http://www.w3.org/2000/svg"
   xmlns="http://www.w3.org/2000/svg"
   xmlns:sodipodi="http://sodipodi.sourceforge.net/DTD/sodipodi-0.dtd"
   xmlns:inkscape="http://www.inkscape.org/namespaces/inkscape"
   width="105.05588"
   height="105.13425"
   id="svg11434"
   version="1.1"
   inkscape:version="0.48.2 r9819"
   sodipodi:docname="webmining.svg"
   inkscape:export-filename="/Users/sdecaste/devel/gorillasoftware/gorillasoftware.ch/source/images/about/webmining.png"
   inkscape:export-xdpi="90"
   inkscape:export-ydpi="90">
  <defs
     id="defs11436">
    <clipPath
       clipPathUnits="userSpaceOnUse"
       id="clipPath11377">
      <rect
         style="fill:#44a7ff;fill-opacity:1;stroke:none"
         id="rect11379"
         width="97.636597"
         height="53.92857"
         x="229.61696"
         y="163.92633"
         ry="0" />
    </clipPath>
    <clipPath
       clipPathUnits="userSpaceOnUse"
       id="clipPath11418">
      <rect
         style="fill:#44a7ff;fill-opacity:1;stroke:none"
         id="rect11420"
         width="97.636597"
         height="53.92857"
         x="229.61696"
         y="163.92633"
         ry="0" />
    </clipPath>
  </defs>
  <sodipodi:namedview
     id="base"
     pagecolor="#ffffff"
     bordercolor="#666666"
     borderopacity="1.0"
     inkscape:pageopacity="0.0"
     inkscape:pageshadow="2"
     inkscape:zoom="2.8"
     inkscape:cx="112.37252"
     inkscape:cy="50.16514"
     inkscape:document-units="px"
     inkscape:current-layer="layer1"
     showgrid="false"
     fit-margin-top="0"
     fit-margin-left="0"
     fit-margin-right="0"
     fit-margin-bottom="0"
     inkscape:window-width="1366"
     inkscape:window-height="720"
     inkscape:window-x="1"
     inkscape:window-y="0"
     inkscape:window-maximized="0" />
  <metadata
     id="metadata11439">
    <rdf:RDF>
      <cc:Work
         rdf:about="">
        <dc:format>image/svg+xml</dc:format>
        <dc:type
           rdf:resource="http://purl.org/dc/dcmitype/StillImage" />
        <dc:title />
      </cc:Work>
    </rdf:RDF>
  </metadata>
  <g
     inkscape:label="Layer 1"
     inkscape:groupmode="layer"
     id="layer1"
     transform="translate(-674.94412,-187.00503)">
    <g
       id="g12058"
       transform="translate(178.57143,6.7857143)">
      <rect
         ry="5.3571429"
         y="180.35356"
         x="496.42856"
         height="105"
         width="105"
         id="rect10808"
         style="fill:#81d1bd;fill-opacity:1;stroke:none" />
      <path
         sodipodi:nodetypes="cssssccccc"
         inkscape:connector-curvature="0"
         id="rect11318"
         d="m 601.42857,241.03141 0,40.78717 c 0,1.95838 -1.57661,3.53499 -3.53499,3.53499 l -97.93003,0 c -1.95838,0 -3.53498,-1.57661 -3.53498,-3.53499 l 0,-27.21574 26.25,-21.42857 26.25,21.42857 26.25,-35 z"
         style="fill:#a2ddcd;fill-opacity:1;stroke:none" />
      <rect
         style="fill:#808080;fill-opacity:0.30980392;stroke:none"
         id="rect11385"
         width="2.5253797"
         height="105.05586"
         x="547.56476"
         y="180.21931" />
      <path
         style="font-size:medium;font-style:normal;font-variant:normal;font-weight:normal;font-stretch:normal;text-indent:0;text-align:start;text-decoration:none;line-height:normal;letter-spacing:normal;word-spacing:normal;text-transform:none;direction:ltr;block-progression:tb;writing-mode:lr-tb;text-anchor:start;baseline-shift:baseline;color:#000000;fill:#808080;fill-opacity:0.30980392;stroke:none;stroke-width:6;marker:none;visibility:visible;display:inline;overflow:visible;enable-background:accumulate;font-family:Sans;-inkscape-font-specification:Sans"
         d="m 304.77232,165.67411 c -0.91156,0.0216 -1.80258,0.48489 -2.34375,1.21875 l -24.375,32.5 -23.84375,-19.46875 c -1.05882,-0.85928 -2.72243,-0.85928 -3.78125,0 l -26.25,21.4375 c -0.68018,0.55977 -1.09253,1.43159 -1.09375,2.3125 l 0,27.21875 c 0,3.56849 2.96275,6.53125 6.53125,6.53125 14.50392,-5.08071 103.86126,12.82155 104.46875,-6.53125 l 0,-40.78125 c -0.009,-0.88585 -0.43344,-1.75883 -1.125,-2.3125 l -26.25,-21.4375 c -0.53915,-0.44559 -1.23807,-0.6936 -1.9375,-0.6875 z m 0.5625,7.3125 22.75,18.53125 0,39.375 c -31.8341,1.68496 -65.93533,0.53125 -98.46875,0.53125 -0.34826,0 -0.53125,-0.18298 -0.53125,-0.53125 l 0,-25.78125 23.21875,-19 24.375,19.90625 c 1.24897,1.00757 3.31642,0.75102 4.28125,-0.53125 z"
         id="path11381"
         inkscape:connector-curvature="0"
         sodipodi:nodetypes="cccccccsccccccccccsccccc"
         clip-path="url(#clipPath11377)"
         transform="matrix(1.07195,0,0,1,250.23479,54.919987)" />
      <rect
         y="180.21931"
         x="519.56476"
         height="105.05586"
         width="2.5253797"
         id="rect11383"
         style="fill:#808080;fill-opacity:0.30980392;stroke:none" />
      <rect
         y="180.21931"
         x="575.56476"
         height="105.05586"
         width="2.5253797"
         id="rect11387"
         style="fill:#808080;fill-opacity:0.30980392;stroke:none" />
      <path
         transform="matrix(1.07195,0,0,1,250.23479,50.919987)"
         clip-path="url(#clipPath11377)"
         sodipodi:nodetypes="cccccccsccccccccccsccccc"
         inkscape:connector-curvature="0"
         id="path11321"
         d="m 304.77232,165.67411 c -0.91156,0.0216 -1.80258,0.48489 -2.34375,1.21875 l -24.375,32.5 -23.84375,-19.46875 c -1.05882,-0.85928 -2.72243,-0.85928 -3.78125,0 l -26.25,21.4375 c -0.68018,0.55977 -1.09253,1.43159 -1.09375,2.3125 l 0,27.21875 c 0,3.56849 2.96275,6.53125 6.53125,6.53125 14.50392,-5.08071 103.86126,12.82155 104.46875,-6.53125 l 0,-40.78125 c -0.009,-0.88585 -0.43344,-1.75883 -1.125,-2.3125 l -26.25,-21.4375 c -0.53915,-0.44559 -1.23807,-0.6936 -1.9375,-0.6875 z m 0.5625,7.3125 22.75,18.53125 0,39.375 c -31.8341,1.68496 -65.93533,0.53125 -98.46875,0.53125 -0.34826,0 -0.53125,-0.18298 -0.53125,-0.53125 l 0,-25.78125 23.21875,-19 24.375,19.90625 c 1.24897,1.00757 3.31642,0.75102 4.28125,-0.53125 z"
         style="font-size:medium;font-style:normal;font-variant:normal;font-weight:normal;font-stretch:normal;text-indent:0;text-align:start;text-decoration:none;line-height:normal;letter-spacing:normal;word-spacing:normal;text-transform:none;direction:ltr;block-progression:tb;writing-mode:lr-tb;text-anchor:start;baseline-shift:baseline;color:#000000;fill:#ffffff;fill-opacity:1;stroke:none;stroke-width:6;marker:none;visibility:visible;display:inline;overflow:visible;enable-background:accumulate;font-family:Sans;-inkscape-font-specification:Sans" />
      <path
         transform="translate(332.97968,144.35013)"
         d="m 220.97087,109.98914 c 0,3.97498 -3.22236,7.19734 -7.19734,7.19734 -3.97498,0 -7.19734,-3.22236 -7.19734,-7.19734 0,-3.97498 3.22236,-7.19733 7.19734,-7.19733 3.97498,0 7.19734,3.22235 7.19734,7.19733 z"
         sodipodi:ry="7.1973367"
         sodipodi:rx="7.1973367"
         sodipodi:cy="109.98914"
         sodipodi:cx="213.77353"
         id="path11389"
         style="fill:#808080;fill-opacity:0.30980392;stroke:none"
         sodipodi:type="arc" />
      <path
         sodipodi:type="arc"
         style="fill:#ff8583;fill-opacity:1;stroke:none"
         id="path11391"
         sodipodi:cx="213.77353"
         sodipodi:cy="109.98914"
         sodipodi:rx="7.1973367"
         sodipodi:ry="7.1973367"
         d="m 220.97087,109.98914 c 0,3.97498 -3.22236,7.19734 -7.19734,7.19734 -3.97498,0 -7.19734,-3.22236 -7.19734,-7.19734 0,-3.97498 3.22236,-7.19733 7.19734,-7.19733 3.97498,0 7.19734,3.22235 7.19734,7.19733 z"
         transform="translate(334.97968,142.35013)" />
      <path
         sodipodi:nodetypes="cccccccc"
         inkscape:connector-curvature="0"
         id="rect11399"
         d="m 532.98989,214.56451 31.05476,0 0,19.19289 -7.76369,0 -7.76369,6.81853 -7.76369,-6.81853 -7.76369,0 z"
         style="fill:#50ace0;fill-opacity:1;stroke:none" />
      <g
         id="text11402"
         style="font-size:13.51696396px;font-style:normal;font-weight:normal;line-height:125%;letter-spacing:0px;word-spacing:0px;fill:#ffffff;fill-opacity:1;stroke:none;font-family:Sans">
        <path
           id="path12054"
           style="fill:#ffffff;fill-opacity:1"
           d="m 540.84801,220.64324 6.33608,0 0,0.56761 -3.57725,9.28631 -1.39261,0 3.36604,-8.7319 -4.73226,0 0,-1.12202"
           inkscape:connector-curvature="0" />
        <path
           id="path12056"
           style="fill:#ffffff;fill-opacity:1"
           d="m 553.45416,221.80486 -3.36604,5.26026 3.36604,0 0,-5.26026 m -0.3498,-1.16162 1.67642,0 0,6.42188 1.40582,0 0,1.10881 -1.40582,0 0,2.32323 -1.32662,0 0,-2.32323 -4.44845,0 0,-1.28701 4.09865,-6.24368"
           inkscape:connector-curvature="0" />
      </g>
    </g>
  </g>
</svg>
