<?xml version="1.0" encoding="UTF-8" standalone="no"?>
<!-- Created with Inkscape (http://www.inkscape.org/) -->

<svg
   xmlns:dc="http://purl.org/dc/elements/1.1/"
   xmlns:cc="http://creativecommons.org/ns#"
   xmlns:rdf="http://www.w3.org/1999/02/22-rdf-syntax-ns#"
   xmlns:svg="http://www.w3.org/2000/svg"
   xmlns="http://www.w3.org/2000/svg"
   xmlns:sodipodi="http://sodipodi.sourceforge.net/DTD/sodipodi-0.dtd"
   xmlns:inkscape="http://www.inkscape.org/namespaces/inkscape"
   version="1.1"
   width="271.09134"
   height="340.0141"
   viewBox="0 0 271.09134 340.01411"
   id="Layer_1"
   xml:space="preserve"
   inkscape:version="0.48.2 r9819"
   sodipodi:docname="html5.svg"
   inkscape:export-filename="/Users/sdecaste/devel/gorillasoftware/gorillasoftware.ch/source/images/skills/html5.png"
   inkscape:export-xdpi="99.597427"
   inkscape:export-ydpi="99.597427"><sodipodi:namedview
   pagecolor="#ffffff"
   bordercolor="#666666"
   borderopacity="1"
   objecttolerance="10"
   gridtolerance="10"
   guidetolerance="10"
   inkscape:pageopacity="0"
   inkscape:pageshadow="2"
   inkscape:window-width="1366"
   inkscape:window-height="720"
   id="namedview14"
   showgrid="false"
   fit-margin-top="0"
   fit-margin-left="0"
   fit-margin-right="0"
   fit-margin-bottom="0"
   inkscape:zoom="1"
   inkscape:cx="342.19013"
   inkscape:cy="235.94684"
   inkscape:window-x="1"
   inkscape:window-y="0"
   inkscape:window-maximized="0"
   inkscape:current-layer="Layer_1" /><metadata
   id="metadata29"><rdf:RDF><cc:Work
       rdf:about=""><dc:format>image/svg+xml</dc:format><dc:type
         rdf:resource="http://purl.org/dc/dcmitype/StillImage" /><dc:title /></cc:Work></rdf:RDF></metadata><defs
   id="defs27">
	
	
	
	
</defs>
<g
   id="g6835"
   transform="translate(-5.9626287e-7,-3.0645936e-6)"><rect
     ry="1.3936794"
     rx="0.390625"
     y="7.0140653"
     x="25.045666"
     height="317"
     width="221"
     id="rect6833"
     style="fill:#ffffff;fill-opacity:1;stroke:none" /><g
     id="g3837"
     transform="matrix(0.70103961,0,0,0.70103961,-309.03861,-200.99861)"><path
       sodipodi:type="arc"
       style="fill:#b1473b;fill-opacity:0.68888891;stroke:none"
       id="path3835"
       sodipodi:cx="577.28638"
       sodipodi:cy="763.44275"
       sodipodi:rx="162.96602"
       sodipodi:ry="14.915534"
       d="m 740.2524,763.44275 c 0,8.23762 -72.96238,14.91553 -162.96602,14.91553 -90.00365,0 -162.96602,-6.67791 -162.96602,-14.91553 0,-8.23762 72.96237,-14.91553 162.96602,-14.91553 90.00364,0 162.96602,6.67791 162.96602,14.91553 z"
       transform="matrix(1.1864407,0,0,0.77777778,-50.737508,166.33938)" /><path
       style="fill:#303e4e;fill-opacity:1;stroke:none"
       d="m 477.47542,286.72337 c -11.53526,0.58096 -20.625,10.06541 -20.625,21.75 l 0,428.25 c 0,12.06151 9.68849,21.75 21.75,21.75 l 311.125,0 c 12.06151,0 21.78125,-9.68849 21.78125,-21.75 l 0,-428.25 c 0,-12.06151 -9.71974,-21.75 -21.78125,-21.75 l -311.125,0 c -0.37692,0 -0.7529,-0.0187 -1.125,0 z m 123.71875,20.40625 65.9375,0 c 0.72338,0 1.3125,0.58912 1.3125,1.3125 l 0,3.59375 c 0,0.72338 -0.58912,1.3125 -1.3125,1.3125 l -65.9375,0 c -0.72339,0 -1.3125,-0.58912 -1.3125,-1.3125 l 0,-3.59375 c 0,-0.72338 0.58911,-1.3125 1.3125,-1.3125 z m -109.53125,28.84375 285,0 0,375 -285,0 0,-375 z m 142.53125,383.8125 c 7.93253,0 14.34375,6.44248 14.34375,14.375 0,7.93252 -6.41122,14.375 -14.34375,14.375 -7.93252,0 -14.375,-6.44248 -14.375,-14.375 0,-7.93252 6.44248,-14.375 14.375,-14.375 z"
       id="rect3050"
       inkscape:connector-curvature="0" /></g></g><g
   id="g6886"
   transform="translate(91.707939,120.2642)"><path
     inkscape:connector-curvature="0"
     style="fill:#c0392b;fill-opacity:1"
     id="path15"
     d="m 29.338516,40.53094 h 14.49895 V 29.28559 h -15.5027 l 1.00375,11.24535 z M -6.0278997e-7,0 7.9833564,89.53833 43.815976,99.48569 79.682406,89.54305 87.675456,0 H -6.0278995e-7 z M 72.840086,83.84203 43.837466,91.88225 V 80.48651 l -0.0175,0.005 -22.49542,-6.24494 -1.57309,-17.63256 h 11.02395 l 0.81642,9.14772 12.23049,3.30312 0.0155,-0.005 V 51.51245 H 19.295866 L 16.333616,18.3033 h 27.50394 V 7.32153 h 35.83367 l -6.83105,76.52024 z" /><path
     inkscape:connector-curvature="0"
     style="fill:#c0392b;fill-opacity:0.58666663"
     id="path17"
     d="m 57.354936,51.51271 h -13.51747 v 17.54766 l 12.24307,-3.30469 1.2744,-14.24297 z M 43.837466,7.3217896 V 18.30356 h 27.5042 l -0.98357,10.98203 h -26.52063 v 11.24535 h 25.52107 l -3.01282,33.71587 -22.50825,6.2397 v 11.39574 l 29.00262,-8.04022 6.83079,-76.5205004 h -35.83341 z" /><g
     style="opacity:0.2"
     id="g19"
     transform="matrix(0.26200716,0,0,0.26200716,-23.236361,-29.34008)">
		<polygon
   style="fill:#231f20"
   id="polygon21"
   points="256,181.841 151.025,181.841 162.331,308.59 256,308.59 256,266.676 200.662,266.676 196.831,223.756 256,223.756 " />
		<polygon
   style="fill:#231f20"
   id="polygon23"
   points="256,375.563 255.941,375.582 209.262,362.975 206.146,328.061 164.07,328.061 170.074,395.358 255.933,419.193 256,419.174 " />
	</g></g>
</svg>