<?xml version="1.0" encoding="UTF-8" standalone="no"?>
<!-- Created with Inkscape (http://www.inkscape.org/) -->

<svg
   xmlns:dc="http://purl.org/dc/elements/1.1/"
   xmlns:cc="http://creativecommons.org/ns#"
   xmlns:rdf="http://www.w3.org/1999/02/22-rdf-syntax-ns#"
   xmlns:svg="http://www.w3.org/2000/svg"
   xmlns="http://www.w3.org/2000/svg"
   xmlns:sodipodi="http://sodipodi.sourceforge.net/DTD/sodipodi-0.dtd"
   xmlns:inkscape="http://www.inkscape.org/namespaces/inkscape"
   version="1.1"
   width="87.675453"
   height="99.485687"
   viewBox="0 0 87.675454 99.48569"
   id="Layer_1"
   xml:space="preserve"
   inkscape:version="0.48.2 r9819"
   sodipodi:docname="skills-html5.svg"
   inkscape:export-filename="/Users/sdecaste/devel/gorillasoftware/source/images/skills-html5.png"
   inkscape:export-xdpi="23.580643"
   inkscape:export-ydpi="23.580643"><sodipodi:namedview
   pagecolor="#ffffff"
   bordercolor="#666666"
   borderopacity="1"
   objecttolerance="10"
   gridtolerance="10"
   guidetolerance="10"
   inkscape:pageopacity="0"
   inkscape:pageshadow="2"
   inkscape:window-width="1366"
   inkscape:window-height="720"
   id="namedview14"
   showgrid="false"
   fit-margin-top="0"
   fit-margin-left="0"
   fit-margin-right="0"
   fit-margin-bottom="0"
   inkscape:zoom="4"
   inkscape:cx="71.964538"
   inkscape:cy="69.199221"
   inkscape:window-x="0"
   inkscape:window-y="0"
   inkscape:window-maximized="1"
   inkscape:current-layer="Layer_1" /><metadata
   id="metadata29"><rdf:RDF><cc:Work
       rdf:about=""><dc:format>image/svg+xml</dc:format><dc:type
         rdf:resource="http://purl.org/dc/dcmitype/StillImage" /><dc:title /></cc:Work></rdf:RDF></metadata><defs
   id="defs27">
	
	
	
	
</defs>
<g
   id="g3758"><path
     inkscape:connector-curvature="0"
     style="fill:#8a4440;fill-opacity:1"
     id="path15"
     d="m 29.338516,40.53094 h 14.49895 V 29.28559 h -15.5027 l 1.00375,11.24535 z M -6.0278997e-7,0 7.9833564,89.53833 43.815976,99.48569 79.682406,89.54305 87.675456,0 H -6.0278995e-7 z M 72.840086,83.84203 43.837466,91.88225 V 80.48651 l -0.0175,0.005 -22.49542,-6.24494 -1.57309,-17.63256 h 11.02395 l 0.81642,9.14772 12.23049,3.30312 0.0155,-0.005 V 51.51245 H 19.295866 L 16.333616,18.3033 h 27.50394 V 7.32153 h 35.83367 l -6.83105,76.52024 z" /><path
     inkscape:connector-curvature="0"
     style="fill:#8a4440;fill-opacity:0.71111113"
     id="path17"
     d="m 57.354936,51.51271 h -13.51747 v 17.54766 l 12.24307,-3.30469 1.2744,-14.24297 z M 43.837466,7.32179 v 10.98177 h 27.5042 l -0.98357,10.98203 h -26.52063 v 11.24535 h 25.52107 l -3.01282,33.71587 -22.50825,6.2397 v 11.39574 l 29.00262,-8.04022 6.83079,-76.5205 h -35.83341 z" /><g
     style="opacity:0.2"
     id="g19"
     transform="matrix(0.26200716,0,0,0.26200716,-23.236361,-29.34008)">
		<polygon
   style="fill:#231f20"
   id="polygon21"
   points="151.025,181.841 162.331,308.59 256,308.59 256,266.676 200.662,266.676 196.831,223.756 256,223.756 256,181.841 " />
		<polygon
   style="fill:#231f20"
   id="polygon23"
   points="255.941,375.582 209.262,362.975 206.146,328.061 164.07,328.061 170.074,395.358 255.933,419.193 256,419.174 256,375.563 " />
	</g></g>
</svg>
