<?xml version="1.0" encoding="UTF-8" standalone="no"?>
<!-- Created with Inkscape (http://www.inkscape.org/) -->

<svg
   xmlns:dc="http://purl.org/dc/elements/1.1/"
   xmlns:cc="http://creativecommons.org/ns#"
   xmlns:rdf="http://www.w3.org/1999/02/22-rdf-syntax-ns#"
   xmlns:svg="http://www.w3.org/2000/svg"
   xmlns="http://www.w3.org/2000/svg"
   xmlns:sodipodi="http://sodipodi.sourceforge.net/DTD/sodipodi-0.dtd"
   xmlns:inkscape="http://www.inkscape.org/namespaces/inkscape"
   width="82.239662"
   height="99.54866"
   id="svg3007"
   version="1.1"
   inkscape:version="0.48.2 r9819"
   sodipodi:docname="linux.svg">
  <defs
     id="defs3009" />
  <sodipodi:namedview
     id="base"
     pagecolor="#ffffff"
     bordercolor="#666666"
     borderopacity="1.0"
     inkscape:pageopacity="0.0"
     inkscape:pageshadow="2"
     inkscape:zoom="4"
     inkscape:cx="101.36609"
     inkscape:cy="40.311405"
     inkscape:document-units="px"
     inkscape:current-layer="layer1"
     showgrid="false"
     inkscape:window-width="1366"
     inkscape:window-height="720"
     inkscape:window-x="1"
     inkscape:window-y="0"
     inkscape:window-maximized="0"
     units="cm"
     fit-margin-top="0"
     fit-margin-left="0"
     fit-margin-right="0"
     fit-margin-bottom="0" />
  <metadata
     id="metadata3012">
    <rdf:RDF>
      <cc:Work
         rdf:about="">
        <dc:format>image/svg+xml</dc:format>
        <dc:type
           rdf:resource="http://purl.org/dc/dcmitype/StillImage" />
        <dc:title />
      </cc:Work>
    </rdf:RDF>
  </metadata>
  <g
     inkscape:label="Layer 1"
     inkscape:groupmode="layer"
     id="layer1"
     transform="translate(-159.64462,-316.96706)">
    <path
       inkscape:connector-curvature="0"
       style="font-size:medium;font-style:normal;font-variant:normal;font-weight:normal;font-stretch:normal;text-indent:0;text-align:start;text-decoration:none;line-height:normal;letter-spacing:normal;word-spacing:normal;text-transform:none;direction:ltr;block-progression:tb;writing-mode:lr-tb;text-anchor:start;baseline-shift:baseline;color:#000000;fill:#c0392b;fill-opacity:1;stroke:none;stroke-width:309;marker:none;visibility:visible;display:inline;overflow:visible;enable-background:accumulate;font-family:Bitstream Vera Sans;-inkscape-font-specification:Bitstream Vera Sans"
       d="m 202.85485,316.96761 c -0.63928,-10e-4 -1.30609,0.0257 -2.00145,0.0811 -17.57445,1.41538 -12.91358,19.98188 -13.17442,26.1992 -0.32095,4.54668 -1.2428,8.12978 -4.36983,12.57472 -3.67379,4.36879 -8.84608,11.43973 -11.29632,18.80034 -1.15641,3.4739 -1.70669,7.01472 -1.19849,10.36588 -0.1592,0.14256 -0.31075,0.29193 -0.45486,0.44577 -1.07863,1.15153 -1.87561,2.54678 -2.76365,3.48617 -0.82966,0.82761 -2.01172,1.1424 -3.31071,1.60844 -1.29949,0.46626 -2.72622,1.15365 -3.59226,2.8155 0,0 0,5.8e-4 -5.8e-4,8.1e-4 -0.001,0.003 -0.003,0.005 -0.004,0.008 l 0,0 c -0.78398,1.4643 -0.55091,3.15056 -0.31148,4.71285 0.23944,1.56226 0.48184,3.03855 0.16009,4.04015 -1.02845,2.81103 -1.15976,4.75548 -0.43576,6.16591 0.72554,1.41337 2.21731,2.03721 3.90334,2.38935 3.37207,0.70429 7.93873,0.52927 11.53779,2.43681 l 0.30934,-0.58369 -0.30614,0.58543 c 3.85297,2.01444 7.75911,2.72995 10.87554,2.01813 2.25945,-0.51607 4.09359,-1.86145 5.03554,-3.93167 2.43754,-0.012 5.11231,-1.04434 9.39696,-1.28026 2.90671,-0.23413 6.53771,1.03221 10.71425,0.8003 0.10917,0.45312 0.26717,0.88896 0.48346,1.30311 0.002,0.004 0.004,0.008 0.007,0.0127 1.61905,3.23754 4.62735,4.7184 7.83328,4.46538 3.21015,-0.25333 6.6232,-2.14619 9.38212,-5.42949 l -0.50578,-0.42505 0.50965,0.42038 c 2.62967,-3.18856 6.99448,-4.51073 9.88871,-6.25634 1.44711,-0.87283 2.62134,-1.96574 2.71207,-3.55312 0.0907,-1.58658 -0.84079,-3.3646 -2.98267,-5.74217 0,0 -5.8e-4,-5.8e-4 -5.8e-4,-5.8e-4 -8.1e-4,-10e-4 -0.002,-0.002 -0.003,-0.003 -0.70375,-0.79528 -1.03948,-2.26926 -1.40027,-3.83892 -0.36054,-1.5687 -0.76299,-3.26089 -2.05088,-4.35753 l 0,0 c -0.003,-0.002 -0.005,-0.004 -0.008,-0.007 0,0 0,0 0,0 -0.51256,-0.44663 -1.0452,-0.74977 -1.5816,-0.95342 1.79057,-5.31037 1.08803,-10.59821 -0.71943,-15.37658 -2.21827,-5.86438 -6.09104,-10.9743 -9.04874,-14.46992 -3.31066,-4.17589 -6.54877,-8.14056 -6.48498,-13.99624 0.0986,-8.93705 0.98304,-25.51054 -14.74347,-25.532 z m 2.12906,13.7684 c 0.89239,0 1.65455,0.26157 2.43746,0.82982 0.79534,0.57726 1.36833,1.2999 1.83014,2.30905 0.45326,0.98349 0.67133,1.94558 0.69272,3.08729 0,0.0299 0,0.0556 0.009,0.0855 0.009,1.17162 -0.19242,2.16794 -0.63713,3.18564 -0.25375,0.5807 -0.54516,1.06809 -0.89395,1.49005 -0.11842,-0.0568 -0.2414,-0.1115 -0.36895,-0.16396 l 0,0 c -0.88411,-0.37866 -1.56232,-0.61964 -2.12758,-0.81578 0.2049,-0.2463 0.37552,-0.53841 0.52555,-0.90358 0.22663,-0.5516 0.3378,-1.09039 0.35918,-1.73179 0,-0.0257 0.009,-0.047 0.009,-0.077 0.0128,-0.61574 -0.0684,-1.1417 -0.24801,-1.68048 -0.18815,-0.56443 -0.42761,-0.97065 -0.77396,-1.30845 -0.34636,-0.33782 -0.69272,-0.49175 -1.1075,-0.50459 -0.0194,-0.001 -0.0388,-0.001 -0.058,-0.001 -0.39016,0.001 -0.72893,0.13496 -1.07943,0.4284 -0.36774,0.30789 -0.6414,0.70127 -0.86804,1.2486 -0.22663,0.54733 -0.33781,1.09038 -0.35918,1.73607 -0.004,0.0257 -0.004,0.047 -0.004,0.0727 -0.007,0.35492 0.0152,0.68005 0.0699,0.99577 -0.79831,-0.39778 -1.55062,-0.66898 -2.25666,-0.83703 -0.0403,-0.30531 -0.0635,-0.62037 -0.071,-0.9498 l 0,-0.0898 c -0.0128,-1.16736 0.1796,-2.16794 0.62858,-3.18563 0.44899,-1.0177 1.00487,-1.7489 1.78738,-2.34327 0.78251,-0.59436 1.55219,-0.86803 2.46299,-0.87658 0.0142,0 0.0285,0 0.0426,0 z m -12.2142,0.96705 c 0.592,0.001 1.12172,0.19918 1.66966,0.63673 0.59436,0.47463 1.04335,1.08182 1.41964,1.93703 0.37629,0.85521 0.57726,1.71041 0.63285,2.71955 l 0,0.008 c 0.0269,0.42383 0.0237,0.82278 -0.01,1.20916 -0.11709,0.0333 -0.23183,0.0693 -0.34422,0.10798 -0.63832,0.21973 -1.20087,0.51917 -1.69117,0.84292 0.0479,-0.33867 0.0551,-0.68228 0.0183,-1.06541 -0.004,-0.0214 -0.004,-0.0385 -0.004,-0.0599 -0.0513,-0.50884 -0.15821,-0.93644 -0.3378,-1.36833 -0.19242,-0.44896 -0.40623,-0.7654 -0.68845,-1.00914 -0.25575,-0.22087 -0.4974,-0.3223 -0.76326,-0.32029 -0.0275,0 -0.0553,0.002 -0.0834,0.004 -0.29933,0.0256 -0.54734,0.17102 -0.78252,0.45752 -0.23518,0.28649 -0.38911,0.64141 -0.50029,1.11176 -0.11118,0.47036 -0.14111,0.93218 -0.0941,1.4624 0,0.0214 0.004,0.0385 0.004,0.0599 0.0513,0.51313 0.15393,0.94072 0.3378,1.37261 0.18815,0.44471 0.40623,0.76113 0.68845,1.00486 0.0473,0.0408 0.094,0.0775 0.14056,0.11024 -0.29355,0.22593 -0.43372,0.33009 -0.67427,0.50684 -0.15428,0.11321 -0.33803,0.248 -0.5516,0.40543 -0.46575,-0.43632 -0.8291,-0.98467 -1.14678,-1.70667 -0.37629,-0.8552 -0.57727,-1.71041 -0.63713,-2.71956 l 0,-0.008 c -0.0556,-1.00913 0.0428,-1.87717 0.3207,-2.77513 0.27794,-0.89797 0.64996,-1.54792 1.18874,-2.08244 0.53877,-0.53449 1.08183,-0.80388 1.73607,-0.83808 0.0511,-0.003 0.10176,-0.004 0.15192,-0.004 z m 5.55496,7.00104 c 1.37594,-0.005 3.0317,0.44579 5.03622,1.73461 1.23127,0.80069 2.18934,0.86761 4.39548,1.81249 l 0.003,0.001 0.003,10e-4 c 1.06147,0.43551 1.6845,1.00318 1.98889,1.60096 0.30439,0.59778 0.31183,1.24602 0.0571,1.92795 -0.50954,1.36389 -2.13598,2.79923 -4.41834,3.51196 l -0.002,9.3e-4 -0.002,9.2e-4 c -1.11286,0.36157 -2.08328,1.16004 -3.22733,1.81424 -1.14401,0.65416 -2.43856,1.18179 -4.19878,1.07996 0,-10e-6 0,0 0,0 -1.49851,-0.0873 -2.39426,-0.59606 -3.20421,-1.24699 -0.80997,-0.65095 -1.51578,-1.46873 -2.54931,-2.07561 l -0.003,-0.002 -0.003,-0.002 c -1.66478,-0.94097 -2.57367,-2.02929 -2.85892,-2.97278 -0.28526,-0.94349 -0.0176,-1.74883 0.80843,-2.36785 0.92864,-0.69595 1.57373,-1.16935 2.00344,-1.4847 0.42689,-0.31325 0.60449,-0.43071 0.74043,-0.56124 7e-4,-10e-4 0.001,-10e-4 0.002,-0.002 0,0 5.8e-4,-10e-4 5.8e-4,-10e-4 0.69776,-0.66047 1.81004,-1.86378 3.48669,-2.44093 0.57707,-0.19865 1.22099,-0.32681 1.94171,-0.32966 z m 9.62158,5.69046 c -0.59376,0.0354 -1.21562,0.34111 -1.9397,0.74537 -0.72409,0.40424 -1.53835,0.92136 -2.42077,1.43059 -1.76485,1.01847 -3.79641,1.9925 -5.81539,1.9925 -2.02211,0 -3.63767,-0.9339 -4.84941,-1.89415 -0.60587,-0.48012 -1.10592,-0.96373 -1.50543,-1.33785 -0.19975,-0.18708 -0.37299,-0.34651 -0.53463,-0.47104 -0.16162,-0.12453 -0.29318,-0.24801 -0.56364,-0.24801 l -0.013,0.56831 c -0.0194,0.19016 -0.0393,0.1843 -0.0314,0.18948 0.0126,0.008 0.0754,0.0299 0.14859,0.0863 0.11884,0.0915 0.2838,0.24078 0.47958,0.42412 0.39157,0.36669 0.91188,0.87085 1.55247,1.37849 1.28118,1.01526 3.06293,2.0569 5.31683,2.0569 2.25704,0 4.39247,-1.05496 6.19168,-2.09325 0.89961,-0.51915 1.71665,-1.03737 2.41142,-1.42525 0.69473,-0.38789 1.27926,-0.63112 1.61766,-0.6513 l -0.0449,-0.75124 z m 2.00626,2.70098 c 1.49908,5.90933 4.98576,14.44466 7.22675,18.61005 1.19116,2.20995 3.56097,6.90533 4.58483,12.56242 0.64877,-0.0199 1.36313,0.0744 2.12813,0.27006 2.67697,-6.93997 -2.27005,-14.41523 -4.53219,-16.49703 -0.91329,-0.88621 -0.95719,-1.28327 -0.50444,-1.2645 2.45434,2.17045 5.67634,6.53591 6.84859,11.46335 0.53452,2.24683 0.64849,4.60887 0.075,6.93998 0.2806,0.11657 0.56558,0.24331 0.8544,0.38004 4.29705,2.09244 5.88624,3.91198 5.12214,6.39532 -0.25166,-0.009 -0.49922,-0.008 -0.74068,-0.002 -0.0225,5.8e-4 -0.0449,10e-4 -0.0673,0.002 0.62226,-1.96847 -0.75626,-3.42031 -4.42955,-5.08232 -3.80995,-1.6762 -6.84592,-1.50943 -7.35904,1.89001 -0.0328,0.1781 -0.0593,0.35958 -0.0794,0.54359 -0.28464,0.0988 -0.57083,0.22504 -0.85774,0.38203 -1.78902,0.9789 -2.76549,2.75509 -3.30858,4.93359 -0.54265,2.17675 -0.69822,4.8083 -0.84798,7.76647 0,5.8e-4 0,10e-4 0,0.002 -0.0915,1.48746 -0.70306,3.49931 -1.3233,5.63019 -6.24127,4.45201 -14.90355,6.38086 -22.25816,1.36165 -0.49842,-0.78846 -1.07018,-1.56968 -1.6587,-2.34018 -0.37582,-0.49204 -0.76189,-0.98107 -1.14571,-1.46322 0.75499,5.8e-4 1.39674,-0.12305 1.9154,-0.35823 0.64498,-0.29246 1.09816,-0.76221 1.32236,-1.36526 0.44839,-1.20611 -0.002,-2.90755 -1.43742,-4.8505 -1.43536,-1.94281 -3.86635,-4.13545 -7.43854,-6.32623 0,0 -5.8e-4,0 -5.8e-4,-5.8e-4 -2.62433,-1.6327 -4.09202,-3.6339 -4.77899,-5.8067 -0.68703,-2.17299 -0.5907,-4.5227 -0.0612,-6.84257 1.01633,-4.45292 3.62767,-8.78373 5.29385,-11.50157 0.44858,-0.33006 0.16027,0.61267 -1.68676,4.04258 -1.65534,3.1359 -4.75002,10.37286 -0.51285,16.02199 0.11323,-4.0202 1.07332,-8.12032 2.68507,-11.95549 2.34765,-5.3216 7.25807,-14.5499 7.64807,-21.90499 0.20108,0.14601 0.89207,0.61224 1.19996,0.78733 5.8e-4,9.3e-4 0.001,9.3e-4 0.002,10e-4 0.90083,0.53048 1.57739,1.30593 2.45364,2.01014 0.87799,0.70561 1.97484,1.31507 3.63195,1.41163 l 0,0 c 1.93419,0.11192 3.40833,-0.48716 4.6161,-1.17779 1.20595,-0.68958 2.16935,-1.45274 3.08208,-1.75063 0.001,-9.3e-4 0.003,-9.3e-4 0.004,-10e-4 1.92867,-0.60313 3.46217,-1.67063 4.33481,-2.91572 z m 12.25001,33.83082 c 0.78119,-0.004 1.72751,0.25683 2.76338,0.72024 2.78796,1.28709 3.66027,2.3903 2.89914,4.01091 -0.6414,1.22295 -3.38661,3.16854 -5.26806,2.65542 -1.91993,-0.49602 -2.85638,-3.26261 -2.54424,-5.35358 0.16721,-1.41992 0.97033,-2.02748 2.14978,-2.03299 z m -3.15437,3.82103 c 0.15759,2.55697 1.42268,5.1648 3.66,5.7292 2.44834,0.64509 5.97835,-1.45561 7.46875,-3.16907 0.29718,-0.0119 0.58773,-0.0265 0.8699,-0.0333 1.30737,-0.0316 2.4039,0.0431 3.52425,1.02289 l 0.004,0.003 0.004,0.003 c 0.86096,0.72943 1.27021,2.1079 1.62516,3.65213 0.35492,1.54423 0.63875,3.22608 1.70319,4.42421 l 0.002,0.002 0.001,0.002 c 2.0464,2.27089 2.70418,3.80583 2.64819,4.78554 -0.056,0.97973 -0.76535,1.70704 -2.0752,2.49705 -2.61857,1.57938 -7.25831,2.95277 -10.22183,6.54246 -2.57328,3.06234 -5.7111,4.74422 -8.47455,4.96233 -2.76344,0.21808 -5.14764,-0.92886 -6.55327,-3.75008 l -0.003,-0.006 -0.003,-0.006 c -0.87201,-1.65881 -0.50876,-4.27663 0.22582,-7.03792 0.7346,-2.76131 1.79002,-5.59658 1.9313,-7.90104 l 0,-0.004 0,-0.004 c 0.14945,-2.95264 0.31472,-5.53117 0.81071,-7.52071 0.49598,-1.98954 1.27697,-3.33699 2.66075,-4.09416 0.0644,-0.0353 0.12841,-0.0685 0.19202,-0.1 z m -44.93699,0.19295 c 0.20654,8.2e-4 0.4251,0.0181 0.65797,0.0533 1.56639,0.23728 2.93234,1.33248 4.24836,3.11748 1.31603,1.78503 2.54057,4.22172 3.79938,6.92463 l 0.002,0.003 0.001,0.003 c 1.01158,2.11131 3.14617,4.43285 4.95511,6.80115 1.80893,2.36829 3.20893,4.74553 3.02662,6.56502 l -8.2e-4,0.008 -5.8e-4,0.008 c -0.23583,3.10323 -1.98635,4.7926 -4.67356,5.40637 -2.68642,0.61357 -6.32826,0.002 -9.9658,-1.8991 -0.001,-5.8e-4 -0.002,-0.001 -0.003,-0.002 -4.02443,-2.1315 -8.81199,-1.91979 -11.88307,-2.5612 -1.53596,-0.32081 -2.53817,-0.8031 -2.99816,-1.6992 -0.46002,-0.89608 -0.47028,-2.45945 0.50724,-5.12506 l 0.004,-0.0118 0.004,-0.0119 c 0.48343,-1.49118 0.12567,-3.12276 -0.10903,-4.65418 -0.23471,-1.53143 -0.34949,-2.92439 0.17344,-3.89531 l 0.002,-0.004 0.002,-0.005 c 0.66953,-1.29057 1.65158,-1.75192 2.87042,-2.18919 1.21883,-0.4373 2.6641,-0.78072 3.80539,-1.92448 l 0.006,-0.006 0.006,-0.006 c 1.05508,-1.11304 1.8476,-2.50822 2.77514,-3.49845 0.78261,-0.83551 1.56579,-1.38926 2.74628,-1.39746 0.0137,0 0.0274,0 0.0412,0 z"
       id="path154" />
  </g>
</svg>
