<?xml version="1.0" encoding="UTF-8" standalone="no"?>
<!-- Created with Inkscape (http://www.inkscape.org/) -->

<svg
   xmlns:dc="http://purl.org/dc/elements/1.1/"
   xmlns:cc="http://creativecommons.org/ns#"
   xmlns:rdf="http://www.w3.org/1999/02/22-rdf-syntax-ns#"
   xmlns:svg="http://www.w3.org/2000/svg"
   xmlns="http://www.w3.org/2000/svg"
   xmlns:sodipodi="http://sodipodi.sourceforge.net/DTD/sodipodi-0.dtd"
   xmlns:inkscape="http://www.inkscape.org/namespaces/inkscape"
   version="1.1"
   width="271.09134"
   height="340.0141"
   id="svg2"
   xml:space="preserve"
   inkscape:version="0.48.2 r9819"
   sodipodi:docname="nodejs.svg"
   inkscape:export-filename="/Users/sdecaste/devel/gorillasoftware/gorillasoftware.ch/source/images/skills/nodejs.png"
   inkscape:export-xdpi="310.72137"
   inkscape:export-ydpi="310.72137"><sodipodi:namedview
     pagecolor="#ffffff"
     bordercolor="#666666"
     borderopacity="1"
     objecttolerance="10"
     gridtolerance="10"
     guidetolerance="10"
     inkscape:pageopacity="0"
     inkscape:pageshadow="2"
     inkscape:window-width="1366"
     inkscape:window-height="720"
     id="namedview14"
     showgrid="false"
     fit-margin-top="0"
     fit-margin-left="0"
     fit-margin-right="0"
     fit-margin-bottom="0"
     inkscape:zoom="1.4398649"
     inkscape:cx="166.94452"
     inkscape:cy="51.224632"
     inkscape:window-x="0"
     inkscape:window-y="0"
     inkscape:window-maximized="1"
     inkscape:current-layer="svg2" /><metadata
     id="metadata8"><rdf:RDF><cc:Work
         rdf:about=""><dc:format>image/svg+xml</dc:format><dc:type
           rdf:resource="http://purl.org/dc/dcmitype/StillImage" /><dc:title></dc:title></cc:Work></rdf:RDF></metadata><defs
     id="defs6"><clipPath
       id="clipPath18"><path
         d="M 0,501.598 0,0 l 1863.85,0 0,501.598 -1863.85,0 z"
         id="path20"
         inkscape:connector-curvature="0" /></clipPath></defs><g
     transform="translate(2.0594265e-7,-3.0645936e-6)"
     id="g6835"><rect
       ry="1.3936794"
       rx="0.390625"
       y="7.0140653"
       x="25.045666"
       height="317"
       width="221"
       id="rect6833"
       style="fill:#ffffff;fill-opacity:1;stroke:none" /><g
       id="g3837"
       transform="matrix(0.70103961,0,0,0.70103961,-309.03861,-200.99861)"><path
         sodipodi:type="arc"
         style="fill:#b1473b;fill-opacity:0.68888891;stroke:none"
         id="path3835"
         sodipodi:cx="577.28638"
         sodipodi:cy="763.44275"
         sodipodi:rx="162.96602"
         sodipodi:ry="14.915534"
         d="m 740.2524,763.44275 c 0,8.23762 -72.96238,14.91553 -162.96602,14.91553 -90.00365,0 -162.96602,-6.67791 -162.96602,-14.91553 0,-8.23762 72.96237,-14.91553 162.96602,-14.91553 90.00364,0 162.96602,6.67791 162.96602,14.91553 z"
         transform="matrix(1.1864407,0,0,0.77777778,-50.737508,166.33938)" /><path
         style="fill:#303e4e;fill-opacity:1;stroke:none"
         d="m 477.47542,286.72337 c -11.53526,0.58096 -20.625,10.06541 -20.625,21.75 l 0,428.25 c 0,12.06151 9.68849,21.75 21.75,21.75 l 311.125,0 c 12.06151,0 21.78125,-9.68849 21.78125,-21.75 l 0,-428.25 c 0,-12.06151 -9.71974,-21.75 -21.78125,-21.75 l -311.125,0 c -0.37692,0 -0.7529,-0.0187 -1.125,0 z m 123.71875,20.40625 65.9375,0 c 0.72338,0 1.3125,0.58912 1.3125,1.3125 l 0,3.59375 c 0,0.72338 -0.58912,1.3125 -1.3125,1.3125 l -65.9375,0 c -0.72339,0 -1.3125,-0.58912 -1.3125,-1.3125 l 0,-3.59375 c 0,-0.72338 0.58911,-1.3125 1.3125,-1.3125 z m -109.53125,28.84375 285,0 0,375 -285,0 0,-375 z m 142.53125,383.8125 c 7.93253,0 14.34375,6.44248 14.34375,14.375 0,7.93252 -6.41122,14.375 -14.34375,14.375 -7.93252,0 -14.375,-6.44248 -14.375,-14.375 0,-7.93252 6.44248,-14.375 14.375,-14.375 z"
         id="rect3050"
         inkscape:connector-curvature="0" /></g></g><g
     id="g3000"
     transform="translate(92.13618,121.05644)"><path
       d="m 43.40034,97.901215 c -1.31174,0 -2.61433,-0.343188 -3.76134,-1.006923 L 27.65944,89.806496 c -1.78763,-0.999761 -0.91516,-1.354877 -0.32641,-1.559844 2.38859,-0.829356 2.87058,-1.020016 5.4178,-2.464274 0.2654,-0.148959 0.61621,-0.09176 0.89076,0.06794 l 9.2005,5.463586 c 0.33556,0.185901 0.80535,0.185901 1.11345,0 L 79.830143,70.607025 c 0.335561,-0.19066 0.549101,-0.574359 0.549101,-0.971176 l 0,-41.403133 c 0,-0.405115 -0.21354,-0.783995 -0.555202,-0.988992 L 43.96164,6.5548173 c -0.33251,-0.1943207 -0.77179,-0.1943207 -1.10735,0 L 7.00104,27.249825 c -0.34776,0.198896 -0.5674,0.589673 -0.5674,0.982891 l 0,41.403133 c 0,0.396817 0.21964,0.770999 0.56435,0.959279 l 9.82891,5.678071 c 5.33238,2.665672 8.59953,-0.47424 8.59953,-3.62849 l 0,-40.878833 c 0,-0.577777 0.46369,-1.034141 1.04024,-1.034141 l 4.55144,0 c 0.56741,0 1.03719,0.456364 1.03719,1.034141 l 0,40.878833 c 0,7.11638 -3.87421,11.197695 -10.62205,11.197695 -2.07438,0 -3.70643,0 -8.26397,-2.246189 L 3.76135,76.180279 C 1.43682,74.8373 0,72.325346 0,69.635849 L 0,28.232716 C 0,25.542121 1.43682,23.031509 3.76135,21.694448 L 39.639,0.96252836 c 2.26962,-1.28337114 5.28662,-1.28337114 7.53794,0 L 83.051535,21.694448 c 2.324528,1.342857 3.767444,3.847673 3.767444,6.538268 l 0,41.403133 c 0,2.689497 -1.442916,5.191933 -3.767444,6.54443 L 47.17694,96.894292 c -1.14702,0.663735 -2.44656,1.006923 -3.7766,1.006923"
       id="path30"
       style="fill:#c0392b;fill-opacity:1;fill-rule:nonzero;stroke:none"
       inkscape:connector-curvature="0" /><path
       d="m 54.48303,69.376093 c -15.70124,0 -18.98974,-7.205883 -18.98974,-13.249655 0,-0.575641 0.46368,-1.034445 1.03719,-1.034445 l 4.6399,0 c 0.5186,0 0.94872,0.373083 1.03109,0.878256 0.69858,4.722574 2.78821,7.105673 12.28156,7.105673 7.556239,0 10.774581,-1.70984 10.774581,-5.719803 0,-2.311715 -0.912117,-4.027656 -12.656781,-5.177717 -9.8167,-0.970994 -15.88732,-3.139638 -15.88732,-10.992698 0,-7.238982 6.10112,-11.556441 16.32965,-11.556441 11.494519,0 17.180765,3.989829 17.900698,12.547873 0.02745,0.2956 -0.07626,0.578082 -0.2715,0.798332 -0.198287,0.206218 -0.472837,0.331291 -0.75959,0.331291 l -4.658207,0 c -0.481989,0 -0.909067,-0.343188 -1.006685,-0.810229 -1.116506,-4.969059 -3.834556,-6.557486 -11.204716,-6.557486 -8.25176,0 -9.20964,2.875459 -9.20964,5.028545 0,2.609755 1.13176,3.369955 12.27241,4.843986 11.024726,1.457558 16.26254,3.521263 16.26254,11.270604 0,7.817063 -6.51905,12.293914 -17.88544,12.293914"
       id="path32"
       style="fill:#c0392b;fill-opacity:1;fill-rule:nonzero;stroke:none"
       inkscape:connector-curvature="0" /></g></svg>