<?xml version="1.0" encoding="UTF-8" standalone="no"?>
<!-- Created with Inkscape (http://www.inkscape.org/) -->

<svg
   xmlns:dc="http://purl.org/dc/elements/1.1/"
   xmlns:cc="http://creativecommons.org/ns#"
   xmlns:rdf="http://www.w3.org/1999/02/22-rdf-syntax-ns#"
   xmlns:svg="http://www.w3.org/2000/svg"
   xmlns="http://www.w3.org/2000/svg"
   xmlns:xlink="http://www.w3.org/1999/xlink"
   xmlns:sodipodi="http://sodipodi.sourceforge.net/DTD/sodipodi-0.dtd"
   xmlns:inkscape="http://www.inkscape.org/namespaces/inkscape"
   version="1.0"
   width="271.09134"
   height="340.0141"
   id="svg2031"
   inkscape:version="0.48.2 r9819"
   sodipodi:docname="python.svg"
   inkscape:export-filename="/Users/sdecaste/devel/gorillasoftware/gorillasoftware.ch/source/images/skills/python.png"
   inkscape:export-xdpi="99.599998"
   inkscape:export-ydpi="99.599998">
  <sodipodi:namedview
     pagecolor="#ffffff"
     bordercolor="#666666"
     borderopacity="1"
     objecttolerance="10"
     gridtolerance="10"
     guidetolerance="10"
     inkscape:pageopacity="0"
     inkscape:pageshadow="2"
     inkscape:window-width="1366"
     inkscape:window-height="720"
     id="namedview31"
     showgrid="false"
     fit-margin-top="0"
     fit-margin-left="0"
     fit-margin-right="0"
     fit-margin-bottom="0"
     inkscape:zoom="0.98440583"
     inkscape:cx="327.67786"
     inkscape:cy="93.102673"
     inkscape:window-x="1"
     inkscape:window-y="0"
     inkscape:window-maximized="0"
     inkscape:current-layer="svg2031" />
  <metadata
     id="metadata28">
    <rdf:RDF>
      <cc:Work
         rdf:about="">
        <dc:format>image/svg+xml</dc:format>
        <dc:type
           rdf:resource="http://purl.org/dc/dcmitype/StillImage" />
        <dc:title></dc:title>
      </cc:Work>
    </rdf:RDF>
  </metadata>
  <defs
     id="defs2033">
    <linearGradient
       id="linearGradient4671">
      <stop
         id="stop4673"
         style="stop-color:#ffc836;stop-opacity:1"
         offset="0" />
      <stop
         id="stop4675"
         style="stop-color:#ffe873;stop-opacity:1"
         offset="1" />
    </linearGradient>
    <linearGradient
       x1="224.23996"
       y1="144.75717"
       x2="-65.308502"
       y2="144.75717"
       id="linearGradient1874"
       xlink:href="#linearGradient4671"
       gradientUnits="userSpaceOnUse" />
    <linearGradient
       id="linearGradient4689">
      <stop
         id="stop4691"
         style="stop-color:#366a96;stop-opacity:1"
         offset="0" />
      <stop
         id="stop4693"
         style="stop-color:#3679b0;stop-opacity:1"
         offset="1" />
    </linearGradient>
    <linearGradient
       x1="172.94208"
       y1="77.475983"
       x2="26.670298"
       y2="76.313133"
       id="linearGradient1872"
       xlink:href="#linearGradient4689"
       gradientUnits="userSpaceOnUse" />
    <linearGradient
       x1="172.94208"
       y1="77.475983"
       x2="26.670298"
       y2="76.313133"
       id="linearGradient3018"
       xlink:href="#linearGradient4689"
       gradientUnits="userSpaceOnUse" />
    <linearGradient
       x1="224.23996"
       y1="144.75717"
       x2="-65.308502"
       y2="144.75717"
       id="linearGradient3020"
       xlink:href="#linearGradient4671"
       gradientUnits="userSpaceOnUse" />
    <linearGradient
       x1="172.94208"
       y1="77.475983"
       x2="26.670298"
       y2="76.313133"
       id="linearGradient3034"
       xlink:href="#linearGradient4689"
       gradientUnits="userSpaceOnUse" />
    <linearGradient
       x1="224.23996"
       y1="144.75717"
       x2="-65.308502"
       y2="144.75717"
       id="linearGradient3036"
       xlink:href="#linearGradient4671"
       gradientUnits="userSpaceOnUse" />
    <linearGradient
       x1="224.23996"
       y1="144.75717"
       x2="-65.308502"
       y2="144.75717"
       id="linearGradient3040"
       xlink:href="#linearGradient4671"
       gradientUnits="userSpaceOnUse"
       gradientTransform="matrix(1.200851,0,0,1.200851,-21.754459,-8.7723674)" />
    <linearGradient
       x1="172.94208"
       y1="77.475983"
       x2="26.670298"
       y2="76.313133"
       id="linearGradient3043"
       xlink:href="#linearGradient4689"
       gradientUnits="userSpaceOnUse"
       gradientTransform="matrix(1.200851,0,0,1.200851,-21.754459,-8.7723674)" />
    <linearGradient
       x1="172.94208"
       y1="77.475983"
       x2="26.670298"
       y2="76.313133"
       id="linearGradient3055"
       xlink:href="#linearGradient4689"
       gradientUnits="userSpaceOnUse"
       gradientTransform="matrix(1.200851,0,0,1.200851,-21.754459,-8.7723674)" />
    <linearGradient
       x1="224.23996"
       y1="144.75717"
       x2="-65.308502"
       y2="144.75717"
       id="linearGradient3057"
       xlink:href="#linearGradient4671"
       gradientUnits="userSpaceOnUse"
       gradientTransform="matrix(1.200851,0,0,1.200851,-21.754459,-8.7723674)" />
  </defs>
  <g
     transform="translate(2.0594264e-7,-3.0645936e-6)"
     id="g6835">
    <rect
       ry="1.3936794"
       rx="0.390625"
       y="7.0140653"
       x="25.045666"
       height="317"
       width="221"
       id="rect6833"
       style="fill:#ffffff;fill-opacity:1;stroke:none" />
    <g
       id="g3837"
       transform="matrix(0.70103961,0,0,0.70103961,-309.03861,-200.99861)">
      <path
         sodipodi:type="arc"
         style="fill:#b1473b;fill-opacity:0.68888891;stroke:none"
         id="path3835"
         sodipodi:cx="577.28638"
         sodipodi:cy="763.44275"
         sodipodi:rx="162.96602"
         sodipodi:ry="14.915534"
         d="m 740.2524,763.44275 c 0,8.23762 -72.96238,14.91553 -162.96602,14.91553 -90.00365,0 -162.96602,-6.67791 -162.96602,-14.91553 0,-8.23762 72.96237,-14.91553 162.96602,-14.91553 90.00364,0 162.96602,6.67791 162.96602,14.91553 z"
         transform="matrix(1.1864407,0,0,0.77777778,-50.737508,166.33938)" />
      <path
         style="fill:#303e4e;fill-opacity:1;stroke:none"
         d="m 477.47542,286.72337 c -11.53526,0.58096 -20.625,10.06541 -20.625,21.75 l 0,428.25 c 0,12.06151 9.68849,21.75 21.75,21.75 l 311.125,0 c 12.06151,0 21.78125,-9.68849 21.78125,-21.75 l 0,-428.25 c 0,-12.06151 -9.71974,-21.75 -21.78125,-21.75 l -311.125,0 c -0.37692,0 -0.7529,-0.0187 -1.125,0 z m 123.71875,20.40625 65.9375,0 c 0.72338,0 1.3125,0.58912 1.3125,1.3125 l 0,3.59375 c 0,0.72338 -0.58912,1.3125 -1.3125,1.3125 l -65.9375,0 c -0.72339,0 -1.3125,-0.58912 -1.3125,-1.3125 l 0,-3.59375 c 0,-0.72338 0.58911,-1.3125 1.3125,-1.3125 z m -109.53125,28.84375 285,0 0,375 -285,0 0,-375 z m 142.53125,383.8125 c 7.93253,0 14.34375,6.44248 14.34375,14.375 0,7.93252 -6.41122,14.375 -14.34375,14.375 -7.93252,0 -14.375,-6.44248 -14.375,-14.375 0,-7.93252 6.44248,-14.375 14.375,-14.375 z"
         id="rect3050"
         inkscape:connector-curvature="0" />
    </g>
  </g>
  <g
     id="g3014"
     transform="translate(86.064319,120.44937)">
    <path
       inkscape:connector-curvature="0"
       style="fill:#c0392b;fill-opacity:1"
       id="path1948"
       d="m 25.545946,13.262607 c 0,-6.8236902 1.829669,-10.5360606 11.932617,-12.3038561 6.859048,-1.2021005 15.65383,-1.35236295 23.8564,0 6.478971,1.0695165 11.932617,5.8955977 11.932617,12.3038561 l 0,22.512875 c 0,6.602718 -5.294548,12.01217 -11.932617,12.01217 l -23.8564,0 c -8.0965,0 -14.920192,6.903238 -14.920192,14.708057 l 0,10.801226 -8.20257,0 c -6.938597,0 -10.9780104,-5.002854 -12.6750926,-12.003327 -2.28929415,-9.404667 -2.19206739,-15.008581 0,-24.015502 C 3.5810871,29.420258 9.6534653,25.274775 16.592062,25.274775 l 8.953884,0 23.865234,0 0,-3.005249 -23.865234,0 0,-9.006919 0,0 z" />
    <path
       inkscape:connector-curvature="0"
       style="fill:#c0392b;fill-opacity:1"
       id="path1950"
       d="m 73.26758,85.309106 c 0,6.823692 -5.922115,10.279732 -11.932617,12.003331 -9.042272,2.59866 -16.29907,2.200906 -23.8564,0 C 31.167534,95.473934 25.545946,91.717366 25.545946,85.309106 l 0,-22.512873 c 0,-6.478972 5.400613,-12.012171 11.932617,-12.012171 l 23.8564,0 c 7.94624,0 14.920192,-6.867882 14.920192,-15.00858 l 0,-10.500707 8.945046,0 c 6.947431,0 10.217857,5.161965 11.932617,12.003331 2.386525,9.501902 2.49259,16.608441 0,24.015502 -2.413042,7.194926 -4.99402,12.003327 -11.932617,12.003327 l -11.932621,0 -23.8564,0 0,3.005254 23.8564,0 0,9.006917 z" />
  </g>
</svg>
