<?xml version="1.0" encoding="UTF-8" standalone="no"?>
<!-- Created with Inkscape (http://www.inkscape.org/) -->

<svg
   xmlns:dc="http://purl.org/dc/elements/1.1/"
   xmlns:cc="http://creativecommons.org/ns#"
   xmlns:rdf="http://www.w3.org/1999/02/22-rdf-syntax-ns#"
   xmlns:svg="http://www.w3.org/2000/svg"
   xmlns="http://www.w3.org/2000/svg"
   xmlns:xlink="http://www.w3.org/1999/xlink"
   xmlns:sodipodi="http://sodipodi.sourceforge.net/DTD/sodipodi-0.dtd"
   xmlns:inkscape="http://www.inkscape.org/namespaces/inkscape"
   version="1.0"
   width="98.9627"
   height="99.115356"
   id="svg2031"
   inkscape:version="0.48.2 r9819"
   sodipodi:docname="python.svg"
   inkscape:export-filename="/Users/sdecaste/devel/gorillasoftware/source/images/skills-python.png"
   inkscape:export-xdpi="37.540901"
   inkscape:export-ydpi="37.540901">
  <sodipodi:namedview
     pagecolor="#ffffff"
     bordercolor="#666666"
     borderopacity="1"
     objecttolerance="10"
     gridtolerance="10"
     guidetolerance="10"
     inkscape:pageopacity="0"
     inkscape:pageshadow="2"
     inkscape:window-width="1366"
     inkscape:window-height="720"
     id="namedview31"
     showgrid="false"
     fit-margin-top="0"
     fit-margin-left="0"
     fit-margin-right="0"
     fit-margin-bottom="0"
     inkscape:zoom="3.9376233"
     inkscape:cx="22.817867"
     inkscape:cy="56.581785"
     inkscape:window-x="1"
     inkscape:window-y="0"
     inkscape:window-maximized="0"
     inkscape:current-layer="svg2031" />
  <metadata
     id="metadata28">
    <rdf:RDF>
      <cc:Work
         rdf:about="">
        <dc:format>image/svg+xml</dc:format>
        <dc:type
           rdf:resource="http://purl.org/dc/dcmitype/StillImage" />
        <dc:title />
      </cc:Work>
    </rdf:RDF>
  </metadata>
  <defs
     id="defs2033">
    <linearGradient
       id="linearGradient4671">
      <stop
         id="stop4673"
         style="stop-color:#ffc836;stop-opacity:1"
         offset="0" />
      <stop
         id="stop4675"
         style="stop-color:#ffe873;stop-opacity:1"
         offset="1" />
    </linearGradient>
    <linearGradient
       x1="224.23996"
       y1="144.75717"
       x2="-65.308502"
       y2="144.75717"
       id="linearGradient1874"
       xlink:href="#linearGradient4671"
       gradientUnits="userSpaceOnUse" />
    <linearGradient
       id="linearGradient4689">
      <stop
         id="stop4691"
         style="stop-color:#366a96;stop-opacity:1"
         offset="0" />
      <stop
         id="stop4693"
         style="stop-color:#3679b0;stop-opacity:1"
         offset="1" />
    </linearGradient>
    <linearGradient
       x1="172.94208"
       y1="77.475983"
       x2="26.670298"
       y2="76.313133"
       id="linearGradient1872"
       xlink:href="#linearGradient4689"
       gradientUnits="userSpaceOnUse" />
    <linearGradient
       x1="172.94208"
       y1="77.475983"
       x2="26.670298"
       y2="76.313133"
       id="linearGradient3018"
       xlink:href="#linearGradient4689"
       gradientUnits="userSpaceOnUse" />
    <linearGradient
       x1="224.23996"
       y1="144.75717"
       x2="-65.308502"
       y2="144.75717"
       id="linearGradient3020"
       xlink:href="#linearGradient4671"
       gradientUnits="userSpaceOnUse" />
    <linearGradient
       x1="172.94208"
       y1="77.475983"
       x2="26.670298"
       y2="76.313133"
       id="linearGradient3034"
       xlink:href="#linearGradient4689"
       gradientUnits="userSpaceOnUse" />
    <linearGradient
       x1="224.23996"
       y1="144.75717"
       x2="-65.308502"
       y2="144.75717"
       id="linearGradient3036"
       xlink:href="#linearGradient4671"
       gradientUnits="userSpaceOnUse" />
    <linearGradient
       x1="224.23996"
       y1="144.75717"
       x2="-65.308502"
       y2="144.75717"
       id="linearGradient3040"
       xlink:href="#linearGradient4671"
       gradientUnits="userSpaceOnUse"
       gradientTransform="matrix(1.200851,0,0,1.200851,-21.754459,-8.7723674)" />
    <linearGradient
       x1="172.94208"
       y1="77.475983"
       x2="26.670298"
       y2="76.313133"
       id="linearGradient3043"
       xlink:href="#linearGradient4689"
       gradientUnits="userSpaceOnUse"
       gradientTransform="matrix(1.200851,0,0,1.200851,-21.754459,-8.7723674)" />
    <linearGradient
       x1="172.94208"
       y1="77.475983"
       x2="26.670298"
       y2="76.313133"
       id="linearGradient3055"
       xlink:href="#linearGradient4689"
       gradientUnits="userSpaceOnUse"
       gradientTransform="matrix(1.200851,0,0,1.200851,-21.754459,-8.7723674)" />
    <linearGradient
       x1="224.23996"
       y1="144.75717"
       x2="-65.308502"
       y2="144.75717"
       id="linearGradient3057"
       xlink:href="#linearGradient4671"
       gradientUnits="userSpaceOnUse"
       gradientTransform="matrix(1.200851,0,0,1.200851,-21.754459,-8.7723674)" />
  </defs>
  <path
     d="m 25.545946,13.262607 c 0,-6.8236902 1.829669,-10.5360606 11.932617,-12.3038561 6.859048,-1.2021005 15.65383,-1.35236295 23.8564,0 6.478971,1.0695165 11.932617,5.8955977 11.932617,12.3038561 l 0,22.512875 c 0,6.602718 -5.294548,12.01217 -11.932617,12.01217 l -23.8564,0 c -8.0965,0 -14.920192,6.903238 -14.920192,14.708057 l 0,10.801226 -8.20257,0 c -6.938597,0 -10.9780104,-5.002854 -12.6750926,-12.003327 -2.28929415,-9.404667 -2.19206739,-15.008581 0,-24.015502 C 3.5810871,29.420258 9.6534653,25.274775 16.592062,25.274775 l 8.953884,0 23.865234,0 0,-3.005249 -23.865234,0 0,-9.006919 0,0 z"
     id="path1948"
     style="fill:#c0392b;fill-opacity:1"
     inkscape:connector-curvature="0" />
  <path
     d="m 73.26758,85.309106 c 0,6.823692 -5.922115,10.279732 -11.932617,12.003331 -9.042272,2.59866 -16.29907,2.200906 -23.8564,0 C 31.167534,95.473934 25.545946,91.717366 25.545946,85.309106 l 0,-22.512873 c 0,-6.478972 5.400613,-12.012171 11.932617,-12.012171 l 23.8564,0 c 7.94624,0 14.920192,-6.867882 14.920192,-15.00858 l 0,-10.500707 8.945046,0 c 6.947431,0 10.217857,5.161965 11.932617,12.003331 2.386525,9.501902 2.49259,16.608441 0,24.015502 -2.413042,7.194926 -4.99402,12.003327 -11.932617,12.003327 l -11.932621,0 -23.8564,0 0,3.005254 23.8564,0 0,9.006917 z"
     id="path1950"
     style="fill:#c0392b;fill-opacity:1"
     inkscape:connector-curvature="0" />
</svg>
