<?xml version="1.0" encoding="UTF-8" standalone="no"?>
<!-- Generator: Adobe Illustrator 15.0.0, SVG Export Plug-In . SVG Version: 6.00 Build 0)  -->

<svg
   xmlns:dc="http://purl.org/dc/elements/1.1/"
   xmlns:cc="http://creativecommons.org/ns#"
   xmlns:rdf="http://www.w3.org/1999/02/22-rdf-syntax-ns#"
   xmlns:svg="http://www.w3.org/2000/svg"
   xmlns="http://www.w3.org/2000/svg"
   xmlns:xlink="http://www.w3.org/1999/xlink"
   xmlns:sodipodi="http://sodipodi.sourceforge.net/DTD/sodipodi-0.dtd"
   xmlns:inkscape="http://www.inkscape.org/namespaces/inkscape"
   version="1.1"
   id="Layer_1"
   x="0px"
   y="0px"
   width="77.932449"
   height="99.349251"
   viewBox="0 0 77.93245 99.34925"
   xml:space="preserve"
   inkscape:version="0.48.2 r9819"
   sodipodi:docname="skills-rails.svg"><metadata
   id="metadata613"><rdf:RDF><cc:Work
       rdf:about=""><dc:format>image/svg+xml</dc:format><dc:type
         rdf:resource="http://purl.org/dc/dcmitype/StillImage" /><dc:title /></cc:Work></rdf:RDF></metadata><defs
   id="defs611">
	
	
	
	<linearGradient
   y2="81.466599"
   x2="211.17751"
   y1="151.02831"
   x1="210.3623"
   gradientUnits="userSpaceOnUse"
   id="SVGID_24_">
		<stop
   id="stop345"
   style="stop-color:#FFFFFF"
   offset="0" />
		<stop
   id="stop347"
   style="stop-color:#AAAAAA"
   offset="0.1729" />
		<stop
   id="stop349"
   style="stop-color:#434343"
   offset="0.5374" />
		<stop
   id="stop351"
   style="stop-color:#181818"
   offset="1" />
	</linearGradient>
	
	<linearGradient
   y2="-34.480598"
   x2="265.55981"
   y1="131.7607"
   x1="173.582"
   gradientUnits="userSpaceOnUse"
   id="SVGID_25_">
		<stop
   id="stop356"
   style="stop-color:#FFFFFF"
   offset="0" />
		<stop
   id="stop358"
   style="stop-color:#AAAAAA"
   offset="0.1729" />
		<stop
   id="stop360"
   style="stop-color:#434343"
   offset="0.5374" />
		<stop
   id="stop362"
   style="stop-color:#181818"
   offset="1" />
	</linearGradient>
	
	<linearGradient
   y2="139.23849"
   x2="269.61569"
   y1="52.943802"
   x1="227.98241"
   gradientUnits="userSpaceOnUse"
   id="SVGID_26_">
		<stop
   id="stop367"
   style="stop-color:#FFFFFF"
   offset="0" />
		<stop
   id="stop369"
   style="stop-color:#AAAAAA"
   offset="0.1729" />
		<stop
   id="stop371"
   style="stop-color:#434343"
   offset="0.5374" />
		<stop
   id="stop373"
   style="stop-color:#181818"
   offset="1" />
	</linearGradient>
	
	<linearGradient
   y2="59.9207"
   x2="277.69421"
   y1="67.199699"
   x1="239.6562"
   gradientUnits="userSpaceOnUse"
   id="SVGID_27_">
		<stop
   id="stop378"
   style="stop-color:#FFFFFF"
   offset="0" />
		<stop
   id="stop380"
   style="stop-color:#AAAAAA"
   offset="0.1729" />
		<stop
   id="stop382"
   style="stop-color:#434343"
   offset="0.5374" />
		<stop
   id="stop384"
   style="stop-color:#181818"
   offset="1" />
	</linearGradient>
	
	<linearGradient
   y2="57.8536"
   x2="194.3217"
   y1="122.8965"
   x1="245.0547"
   gradientUnits="userSpaceOnUse"
   id="SVGID_28_">
		<stop
   id="stop389"
   style="stop-color:#FFFFFF"
   offset="0" />
		<stop
   id="stop391"
   style="stop-color:#AAAAAA"
   offset="0.1729" />
		<stop
   id="stop393"
   style="stop-color:#434343"
   offset="0.5374" />
		<stop
   id="stop395"
   style="stop-color:#181818"
   offset="1" />
	</linearGradient>
	
	<linearGradient
   y2="64.041901"
   x2="225.8775"
   y1="178.1006"
   x1="276.43951"
   gradientUnits="userSpaceOnUse"
   id="SVGID_29_">
		<stop
   id="stop400"
   style="stop-color:#FFFFFF"
   offset="0" />
		<stop
   id="stop402"
   style="stop-color:#AAAAAA"
   offset="0.1729" />
		<stop
   id="stop404"
   style="stop-color:#434343"
   offset="0.5374" />
		<stop
   id="stop406"
   style="stop-color:#181818"
   offset="1" />
	</linearGradient>
	
	<linearGradient
   y2="-6.7294002"
   x2="270.9003"
   y1="35.499001"
   x1="222.97459"
   gradientUnits="userSpaceOnUse"
   id="SVGID_30_">
		<stop
   id="stop411"
   style="stop-color:#FFFFFF"
   offset="0" />
		<stop
   id="stop413"
   style="stop-color:#AAAAAA"
   offset="0.1729" />
		<stop
   id="stop415"
   style="stop-color:#434343"
   offset="0.5374" />
		<stop
   id="stop417"
   style="stop-color:#181818"
   offset="1" />
	</linearGradient>
	
	<linearGradient
   y2="20.888"
   x2="260.7016"
   y1="36.079601"
   x1="236.0146"
   gradientUnits="userSpaceOnUse"
   id="SVGID_31_">
		<stop
   id="stop422"
   style="stop-color:#FFFFFF"
   offset="0" />
		<stop
   id="stop424"
   style="stop-color:#AAAAAA"
   offset="0.1729" />
		<stop
   id="stop426"
   style="stop-color:#434343"
   offset="0.5374" />
		<stop
   id="stop428"
   style="stop-color:#181818"
   offset="1" />
	</linearGradient>
	
	<linearGradient
   y2="64.996597"
   x2="244.6064"
   y1="64.996597"
   x1="244.6064"
   gradientUnits="userSpaceOnUse"
   id="SVGID_32_">
		<stop
   id="stop433"
   style="stop-color:#FFFFFF"
   offset="0" />
		<stop
   id="stop435"
   style="stop-color:#434343"
   offset="1" />
	</linearGradient>
	
	<linearGradient
   y2="17.763599"
   x2="280.90811"
   y1="38.745098"
   x1="223.8223"
   gradientUnits="userSpaceOnUse"
   id="SVGID_33_">
		<stop
   id="stop440"
   style="stop-color:#FFFFFF"
   offset="0" />
		<stop
   id="stop442"
   style="stop-color:#AAAAAA"
   offset="0.1729" />
		<stop
   id="stop444"
   style="stop-color:#434343"
   offset="0.5374" />
		<stop
   id="stop446"
   style="stop-color:#181818"
   offset="1" />
	</linearGradient>
	
	<linearGradient
   y2="109.6382"
   x2="169.0269"
   y1="123.0703"
   x1="150.88181"
   gradientUnits="userSpaceOnUse"
   id="SVGID_34_">
		<stop
   id="stop451"
   style="stop-color:#FFFFFF"
   offset="0" />
		<stop
   id="stop453"
   style="stop-color:#AAAAAA"
   offset="0.1729" />
		<stop
   id="stop455"
   style="stop-color:#434343"
   offset="0.5374" />
		<stop
   id="stop457"
   style="stop-color:#181818"
   offset="1" />
	</linearGradient>
	
	<linearGradient
   y2="15.4436"
   x2="298.39679"
   y1="58.309101"
   x1="231.03709"
   gradientUnits="userSpaceOnUse"
   id="SVGID_35_">
		<stop
   id="stop462"
   style="stop-color:#FFFFFF"
   offset="0" />
		<stop
   id="stop464"
   style="stop-color:#AAAAAA"
   offset="0.1729" />
		<stop
   id="stop466"
   style="stop-color:#434343"
   offset="0.5374" />
		<stop
   id="stop468"
   style="stop-color:#181818"
   offset="1" />
	</linearGradient>
	
	<linearGradient
   y2="64.803902"
   x2="197.1666"
   y1="112.4844"
   x1="137.0479"
   gradientUnits="userSpaceOnUse"
   id="SVGID_36_">
		<stop
   id="stop473"
   style="stop-color:#FFFFFF"
   offset="0" />
		<stop
   id="stop475"
   style="stop-color:#AAAAAA"
   offset="0.1729" />
		<stop
   id="stop477"
   style="stop-color:#434343"
   offset="0.5374" />
		<stop
   id="stop479"
   style="stop-color:#181818"
   offset="1" />
	</linearGradient>
	
	<linearGradient
   y2="66.145302"
   x2="189.9409"
   y1="63.412102"
   x1="135.5273"
   gradientUnits="userSpaceOnUse"
   id="SVGID_37_">
		<stop
   id="stop484"
   style="stop-color:#FFFFFF"
   offset="0" />
		<stop
   id="stop486"
   style="stop-color:#AAAAAA"
   offset="0.1729" />
		<stop
   id="stop488"
   style="stop-color:#434343"
   offset="0.5374" />
		<stop
   id="stop490"
   style="stop-color:#181818"
   offset="1" />
	</linearGradient>
	
	<linearGradient
   y2="73.902702"
   x2="205.6675"
   y1="132.03999"
   x1="185.29491"
   gradientUnits="userSpaceOnUse"
   id="SVGID_38_">
		<stop
   id="stop495"
   style="stop-color:#FFFFFF"
   offset="0" />
		<stop
   id="stop497"
   style="stop-color:#AAAAAA"
   offset="0.1729" />
		<stop
   id="stop499"
   style="stop-color:#434343"
   offset="0.5374" />
		<stop
   id="stop501"
   style="stop-color:#181818"
   offset="1" />
	</linearGradient>
	
	<linearGradient
   y2="100.2281"
   x2="181.5813"
   y1="118.3643"
   x1="157.97951"
   gradientUnits="userSpaceOnUse"
   id="SVGID_39_">
		<stop
   id="stop506"
   style="stop-color:#FFFFFF"
   offset="0" />
		<stop
   id="stop508"
   style="stop-color:#AAAAAA"
   offset="0.1729" />
		<stop
   id="stop510"
   style="stop-color:#434343"
   offset="0.5374" />
		<stop
   id="stop512"
   style="stop-color:#181818"
   offset="1" />
	</linearGradient>
	
	<linearGradient
   y2="39.7892"
   x2="102.8014"
   y1="24.434099"
   x1="218.39841"
   gradientUnits="userSpaceOnUse"
   id="SVGID_40_">
		<stop
   id="stop517"
   style="stop-color:#FFFFFF"
   offset="0" />
		<stop
   id="stop519"
   style="stop-color:#AAAAAA"
   offset="0.1729" />
		<stop
   id="stop521"
   style="stop-color:#434343"
   offset="0.5374" />
		<stop
   id="stop523"
   style="stop-color:#181818"
   offset="1" />
	</linearGradient>
	
	<linearGradient
   y2="31.6343"
   x2="155.0564"
   y1="31.6343"
   x1="139.3857"
   gradientUnits="userSpaceOnUse"
   id="SVGID_41_">
		<stop
   id="stop528"
   style="stop-color:#FFFFFF"
   offset="0" />
		<stop
   id="stop530"
   style="stop-color:#AAAAAA"
   offset="0.1729" />
		<stop
   id="stop532"
   style="stop-color:#434343"
   offset="0.5374" />
		<stop
   id="stop534"
   style="stop-color:#181818"
   offset="1" />
	</linearGradient>
	
	<linearGradient
   y2="79.4543"
   x2="137.9464"
   y1="23.8169"
   x1="219.6992"
   gradientUnits="userSpaceOnUse"
   id="SVGID_42_">
		<stop
   id="stop539"
   style="stop-color:#FFFFFF"
   offset="0" />
		<stop
   id="stop541"
   style="stop-color:#AAAAAA"
   offset="0.1729" />
		<stop
   id="stop543"
   style="stop-color:#434343"
   offset="0.5374" />
		<stop
   id="stop545"
   style="stop-color:#181818"
   offset="1" />
	</linearGradient>
	
	<linearGradient
   y2="-18.987101"
   x2="215.49181"
   y1="30.607401"
   x1="208.7422"
   gradientUnits="userSpaceOnUse"
   id="SVGID_43_">
		<stop
   id="stop550"
   style="stop-color:#FFFFFF"
   offset="0" />
		<stop
   id="stop552"
   style="stop-color:#AAAAAA"
   offset="0.1729" />
		<stop
   id="stop554"
   style="stop-color:#434343"
   offset="0.5374" />
		<stop
   id="stop556"
   style="stop-color:#181818"
   offset="1" />
	</linearGradient>
	
	<linearGradient
   y2="71.092201"
   x2="222.0092"
   y1="144.6689"
   x1="270.59769"
   gradientUnits="userSpaceOnUse"
   id="SVGID_44_">
		<stop
   id="stop561"
   style="stop-color:#FFFFFF"
   offset="0" />
		<stop
   id="stop563"
   style="stop-color:#AAAAAA"
   offset="0.1729" />
		<stop
   id="stop565"
   style="stop-color:#434343"
   offset="0.5374" />
		<stop
   id="stop567"
   style="stop-color:#181818"
   offset="1" />
	</linearGradient>
	
	<linearGradient
   y2="58.576302"
   x2="206.76891"
   y1="-12.5044"
   x1="129.1748"
   gradientUnits="userSpaceOnUse"
   id="SVGID_45_">
		<stop
   id="stop572"
   style="stop-color:#FFFFFF"
   offset="0" />
		<stop
   id="stop574"
   style="stop-color:#AAAAAA"
   offset="0.1729" />
		<stop
   id="stop576"
   style="stop-color:#434343"
   offset="0.5374" />
		<stop
   id="stop578"
   style="stop-color:#181818"
   offset="1" />
	</linearGradient>
	
	<linearGradient
   y2="108.2671"
   x2="215.9563"
   y1="161.85159"
   x1="197.4072"
   gradientUnits="userSpaceOnUse"
   id="SVGID_46_">
		<stop
   id="stop583"
   style="stop-color:#FFFFFF"
   offset="0" />
		<stop
   id="stop585"
   style="stop-color:#AAAAAA"
   offset="0.1729" />
		<stop
   id="stop587"
   style="stop-color:#434343"
   offset="0.5374" />
		<stop
   id="stop589"
   style="stop-color:#181818"
   offset="1" />
	</linearGradient>
	
	

		
		
		
		
		
		
		
	
		
		
		
		
		
		
		
		
		
		
		
		
		
		
		
	<linearGradient
   inkscape:collect="always"
   xlink:href="#SVGID_1_"
   id="linearGradient4622"
   gradientUnits="userSpaceOnUse"
   x1="70.362297"
   y1="151.02831"
   x2="71.177498"
   y2="81.466599" /><linearGradient
   inkscape:collect="always"
   xlink:href="#SVGID_2_"
   id="linearGradient4624"
   gradientUnits="userSpaceOnUse"
   x1="33.5811"
   y1="131.7598"
   x2="125.5591"
   y2="-34.482201" /><linearGradient
   inkscape:collect="always"
   xlink:href="#SVGID_3_"
   id="linearGradient4626"
   gradientUnits="userSpaceOnUse"
   x1="87.983398"
   y1="52.945301"
   x2="129.6145"
   y2="139.2356" /><linearGradient
   inkscape:collect="always"
   xlink:href="#SVGID_4_"
   id="linearGradient4628"
   gradientUnits="userSpaceOnUse"
   x1="99.656197"
   y1="67.200203"
   x2="137.69431"
   y2="59.9212" /><linearGradient
   inkscape:collect="always"
   xlink:href="#SVGID_5_"
   id="linearGradient4630"
   gradientUnits="userSpaceOnUse"
   x1="105.0537"
   y1="122.8955"
   x2="54.320702"
   y2="57.8526" /><linearGradient
   inkscape:collect="always"
   xlink:href="#SVGID_6_"
   id="linearGradient4632"
   gradientUnits="userSpaceOnUse"
   x1="136.43851"
   y1="178.0977"
   x2="85.878098"
   y2="64.042503" /><linearGradient
   inkscape:collect="always"
   xlink:href="#SVGID_7_"
   id="linearGradient4634"
   gradientUnits="userSpaceOnUse"
   x1="82.975601"
   y1="35.499001"
   x2="130.9021"
   y2="-6.7301002" /><linearGradient
   inkscape:collect="always"
   xlink:href="#SVGID_8_"
   id="linearGradient4636"
   gradientUnits="userSpaceOnUse"
   x1="96.014603"
   y1="36.080101"
   x2="120.7016"
   y2="20.8885" /><linearGradient
   inkscape:collect="always"
   xlink:href="#SVGID_9_"
   id="linearGradient4638"
   gradientUnits="userSpaceOnUse"
   x1="104.6079"
   y1="64.997101"
   x2="104.6079"
   y2="64.997101" /><linearGradient
   inkscape:collect="always"
   xlink:href="#SVGID_10_"
   id="linearGradient4640"
   gradientUnits="userSpaceOnUse"
   x1="83.821297"
   y1="38.744598"
   x2="140.90891"
   y2="17.7624" /><linearGradient
   inkscape:collect="always"
   xlink:href="#SVGID_11_"
   id="linearGradient4642"
   gradientUnits="userSpaceOnUse"
   x1="10.8818"
   y1="123.0703"
   x2="29.026501"
   y2="109.6385" /><linearGradient
   inkscape:collect="always"
   xlink:href="#SVGID_12_"
   id="linearGradient4644"
   gradientUnits="userSpaceOnUse"
   x1="91.036102"
   y1="58.309101"
   x2="158.3979"
   y2="15.4423" /><linearGradient
   inkscape:collect="always"
   xlink:href="#SVGID_13_"
   id="linearGradient4646"
   gradientUnits="userSpaceOnUse"
   x1="-2.9531"
   y1="112.4844"
   x2="57.1656"
   y2="64.803902" /><linearGradient
   inkscape:collect="always"
   xlink:href="#SVGID_14_"
   id="linearGradient4648"
   gradientUnits="userSpaceOnUse"
   x1="-4.4692001"
   y1="63.412601"
   x2="49.938499"
   y2="66.1455" /><linearGradient
   inkscape:collect="always"
   xlink:href="#SVGID_15_"
   id="linearGradient4650"
   gradientUnits="userSpaceOnUse"
   x1="45.294899"
   y1="132.03999"
   x2="65.667503"
   y2="73.902702" /><linearGradient
   inkscape:collect="always"
   xlink:href="#SVGID_16_"
   id="linearGradient4652"
   gradientUnits="userSpaceOnUse"
   x1="17.9795"
   y1="118.3643"
   x2="41.581299"
   y2="100.2281" /><linearGradient
   inkscape:collect="always"
   xlink:href="#SVGID_17_"
   id="linearGradient4654"
   gradientUnits="userSpaceOnUse"
   x1="78.398399"
   y1="24.4331"
   x2="-37.198601"
   y2="39.7882" /><linearGradient
   inkscape:collect="always"
   xlink:href="#SVGID_18_"
   id="linearGradient4656"
   gradientUnits="userSpaceOnUse"
   x1="-0.61330003"
   y1="31.6343"
   x2="15.0569"
   y2="31.6343" /><linearGradient
   inkscape:collect="always"
   xlink:href="#SVGID_19_"
   id="linearGradient4658"
   gradientUnits="userSpaceOnUse"
   x1="79.699699"
   y1="23.816401"
   x2="-2.0548999"
   y2="79.455002" /><linearGradient
   inkscape:collect="always"
   xlink:href="#SVGID_20_"
   id="linearGradient4660"
   gradientUnits="userSpaceOnUse"
   x1="68.743698"
   y1="30.607901"
   x2="75.493301"
   y2="-18.986601" /><linearGradient
   inkscape:collect="always"
   xlink:href="#SVGID_21_"
   id="linearGradient4662"
   gradientUnits="userSpaceOnUse"
   x1="130.5977"
   y1="144.6689"
   x2="82.009201"
   y2="71.092201" /><linearGradient
   inkscape:collect="always"
   xlink:href="#SVGID_22_"
   id="linearGradient4664"
   gradientUnits="userSpaceOnUse"
   x1="-10.8286"
   y1="-12.5073"
   x2="66.769997"
   y2="58.577499" /><linearGradient
   inkscape:collect="always"
   xlink:href="#SVGID_23_"
   id="linearGradient4666"
   gradientUnits="userSpaceOnUse"
   x1="57.4072"
   y1="161.85159"
   x2="75.956001"
   y2="108.268" /></defs><sodipodi:namedview
   pagecolor="#ffffff"
   bordercolor="#666666"
   borderopacity="1"
   objecttolerance="10"
   gridtolerance="10"
   guidetolerance="10"
   inkscape:pageopacity="0"
   inkscape:pageshadow="2"
   inkscape:window-width="1366"
   inkscape:window-height="720"
   id="namedview609"
   showgrid="false"
   fit-margin-top="0"
   fit-margin-left="0"
   fit-margin-right="0"
   fit-margin-bottom="0"
   inkscape:zoom="4.187473"
   inkscape:cx="-31.942809"
   inkscape:cy="53.26307"
   inkscape:window-x="0"
   inkscape:window-y="0"
   inkscape:window-maximized="1"
   inkscape:current-layer="Layer_1"
   inkscape:snap-global="false" />
<style
   type="text/css"
   id="style3">

	.st0{opacity:0.75;fill:url(#SVGID_4_);}
	.st1{opacity:0.27;fill:url(#SVGID_11_);}
	.st2{opacity:0.27;fill:url(#SVGID_13_);}
	.st3{opacity:0.27;fill:url(#SVGID_34_);}
	.st4{opacity:0.27;fill:url(#SVGID_36_);}
	.st5{fill:#800828;}
	.st6{opacity:0.45;fill:url(#SVGID_28_);}
	.st7{opacity:0.8;fill:url(#SVGID_18_);}
	.st8{opacity:0.8;fill:url(#SVGID_41_);}
	.st9{fill:#B42738;}
	.st10{opacity:0.63;fill:url(#SVGID_14_);}
	.st11{opacity:0.63;fill:url(#SVGID_19_);}
	.st12{opacity:0.63;fill:url(#SVGID_22_);}
	.st13{opacity:0.63;fill:url(#SVGID_37_);}
	.st14{opacity:0.63;fill:url(#SVGID_42_);}
	.st15{opacity:0.63;fill:url(#SVGID_45_);}
	.st16{fill:#535353;}
	.st17{opacity:0.35;fill:url(#SVGID_15_);}
	.st18{opacity:0.35;fill:url(#SVGID_38_);}
	.st19{opacity:0.42;fill:url(#SVGID_2_);}
	.st20{opacity:0.53;fill:url(#SVGID_24_);}
	.st21{opacity:0.62;fill:url(#SVGID_31_);}
	.st22{fill:url(#SVGID_3_);}
	.st23{fill:url(#SVGID_9_);}
	.st24{opacity:0.55;fill:url(#SVGID_6_);}
	.st25{opacity:0.5;}
	.st26{opacity:0.66;fill:url(#SVGID_20_);}
	.st27{opacity:0.66;fill:url(#SVGID_43_);}
	.st28{opacity:0.34;fill:url(#SVGID_23_);}
	.st29{opacity:0.34;fill:url(#SVGID_46_);}
	.st30{fill:#FFFFFF;}
	.st31{opacity:0.75;fill:url(#SVGID_27_);}
	.st32{opacity:0.53;fill:url(#SVGID_1_);}
	.st33{fill:none;}
	.st34{fill:#303030;}
	.st35{opacity:0.45;fill:url(#SVGID_5_);}
	.st36{opacity:0.79;fill:url(#SVGID_30_);}
	.st37{opacity:0.47;fill:url(#SVGID_17_);}
	.st38{opacity:0.47;fill:url(#SVGID_40_);}
	.st39{opacity:0.24;fill:url(#SVGID_16_);}
	.st40{opacity:0.24;fill:url(#SVGID_39_);}
	.st41{opacity:0.42;fill:url(#SVGID_25_);}
	.st42{fill:url(#SVGID_10_);}
	.st43{fill:url(#SVGID_12_);}
	.st44{fill:url(#SVGID_26_);}
	.st45{fill:url(#SVGID_32_);}
	.st46{fill:url(#SVGID_33_);}
	.st47{fill:url(#SVGID_35_);}
	.st48{opacity:0.51;fill:url(#SVGID_21_);}
	.st49{opacity:0.51;fill:url(#SVGID_44_);}
	.st50{opacity:0.79;fill:url(#SVGID_7_);}
	.st51{opacity:0.62;fill:url(#SVGID_8_);}
	.st52{opacity:0.55;fill:url(#SVGID_29_);}

</style>

<path
   style="fill:#8a4440;fill-opacity:1"
   d="M 10.359353,-6.851438e-7 C 4.658638,-6.851438e-7 0,4.6586366 0,10.359352 l 0,88.375599 c 0,0.205511 0.01894,0.408789 0.02788,0.614301 l 67.545215,0 c 5.69178,0 10.359353,-4.658637 10.359353,-10.359353 l 0,-88.37559849 c 0,-0.2055117 -0.01903,-0.4087895 -0.02788,-0.61430119514382 l -67.545215,0 z M 49.088254,4.6631042 c 1.492194,-0.026806 3.003375,0.064781 4.495568,0.2792279 0.3038,0.9650114 0.58973,1.9199706 0.89353,2.8760467 -1.358165,-0.1161588 -2.708511,-0.1072235 -4.048804,0 C 49.981783,6.7729498 49.535019,5.7174685 49.088254,4.6631042 z M 38.142523,6.757313 c 0.9114,1.1526526 1.794877,2.3097727 2.652665,3.462425 -1.161588,0.643341 -2.278499,1.373801 -3.350734,2.177978 -1.018623,-1.152653 -2.055117,-2.290786 -3.127352,-3.434503 1.224135,-0.8220468 2.502998,-1.5714943 3.825421,-2.2059 z m 15.860141,2.6247417 c 7.277276,0.074744 14.55894,2.8676703 20.020637,8.5722953 -0.3038,0.634405 -0.588612,1.264343 -0.865606,1.898749 -16.128201,-9.516085 -26.990164,2.209251 -30.296221,14.128929 -0.276994,0.786305 -0.559573,1.579313 -0.809761,2.401359 0.02681,0.02681 0.08488,0.05696 0.111691,0.08377 -0.830982,3.055869 -1.380502,6.266989 -1.451985,9.465823 -0.04468,-0.0268 -0.09494,-0.02904 -0.139613,-0.05584 -0.0089,1.242005 0.07032,2.482894 0.195459,3.769576 0.01787,0.0089 0.01894,0.01899 0.02788,0.02792 0.965012,7.621803 2.441568,15.110691 5.41702,22.366143 l -32.641734,0 c 0.634405,-18.799845 5.497437,-38.248623 18.373192,-52.857824 5.245015,-6.116206 12.853416,-9.4680577 20.607014,-9.7729745 0.484596,-0.019059 0.966834,-0.032909 1.451985,-0.027923 z M 23.901903,17.45174 c 1.402841,1.036493 2.822435,2.091975 4.216341,3.155274 -0.893529,1.188394 -1.765837,2.428166 -2.596819,3.741653 -1.510064,-1.000752 -3.022362,-1.966881 -4.523491,-2.931892 0.92927,-1.38497 1.894282,-2.714095 2.903969,-3.965035 z m 41.604948,0.837683 c 0.991818,0.125094 2.014908,0.346243 3.015661,0.614301 -0.03574,0.446765 -0.05701,0.865607 -0.08372,1.312371 -0.947145,-0.125094 -1.871947,-0.148549 -2.792282,-0.139614 -0.04468,-0.589729 -0.103873,-1.197329 -0.139614,-1.787058 z m -7.762534,0.50261 c 0.294865,0.920335 0.570742,1.852956 0.865607,2.764356 -0.804177,0.348476 -1.575962,0.736045 -2.317591,1.20068 -0.393153,-1.000753 -0.789657,-1.97805 -1.20068,-2.987738 0.848852,-0.384218 1.7502,-0.727109 2.652664,-0.977298 z m -8.181375,5.389098 c 0.741629,1.143717 1.444166,2.29972 2.150054,3.434502 -0.545053,0.723759 -1.053247,1.485492 -1.535753,2.289668 -0.813112,-1.161587 -1.636275,-2.32876 -2.485128,-3.490348 0.589729,-0.79524 1.209615,-1.53687 1.870827,-2.233822 z M 44.341381,34.20541 c 1.107976,1.107976 2.184679,2.214835 3.239043,3.322811 -0.312735,0.982882 -0.595313,1.988103 -0.80976,3.015661 -1.143718,-1.036494 -2.236057,-2.062935 -3.40658,-3.099429 0.223382,-0.839917 0.447881,-1.672016 0.69807,-2.485128 0.08935,-0.250188 0.180939,-0.503727 0.279227,-0.753915 z m -30.99429,0.02792 c 1.68877,0.741629 3.425567,1.503363 5.221561,2.289668 -0.58973,1.590482 -1.121379,3.263615 -1.675367,4.970256 -1.867476,-0.688018 -3.672405,-1.368217 -5.361175,-2.038363 0.589729,-1.831735 1.162705,-3.541726 1.814981,-5.221561 z m 28.98385,11.811338 c 1.545805,0.822046 2.967633,1.654145 4.495568,2.485127 0.125094,1.143718 0.28928,2.31089 0.530533,3.490348 -1.679835,-0.741629 -3.199951,-1.492193 -4.942333,-2.233822 -0.08042,-1.23307 -0.119509,-2.490713 -0.08372,-3.741653 z M 7.12031,55.119572 c 1.715576,0.375283 3.772927,0.750565 6.087167,1.116912 -0.500376,1.894281 -0.97618,3.854461 -1.396139,5.891707 -2.519752,-0.232317 -4.685443,-0.476921 -6.338472,-0.753915 0.47357,-2.16234 1.04878,-4.244263 1.647444,-6.254704 z m 37.10938,6.11509 c 2.162341,0.402088 3.856695,0.77737 5.724171,1.116911 0.482505,1.242006 1.009687,2.49071 1.563675,3.741647 C 49.650061,65.959191 47.97246,65.795005 45.765443,65.562687 45.20252,64.097303 44.68539,62.646438 44.22969,61.234662 z m -36.383387,16.530277 7.371615,0 c 2.135534,0 3.853344,1.717808 3.853344,3.853342 l 0,1.982518 c 0,1.930023 -1.351463,3.493699 -3.183198,3.797498 l 3.60204,4.802719 -4.579337,0 -3.21112,-4.244263 0,4.244263 -3.853344,0 0,-14.436077 z m 19.210875,0 3.518271,0 c 2.135534,0 3.872332,1.74573 3.881267,3.881265 l 0,10.554812 -3.853344,0 0,-2.848124 -3.546194,0 0,2.848124 -3.853344,0 0,-10.582735 c 0,-2.14447 1.708874,-3.853342 3.853344,-3.853342 z m 11.587955,0 3.881267,0 0,14.436077 -3.881267,0 0,-14.436077 z m 8.097608,0 3.881266,0 0,10.582733 5.724171,0 0,3.853344 -9.605437,0 0,-14.436077 z m 15.776372,0 6.673546,0 0,3.602037 -6.673546,0 0,1.563676 3.518271,0 c 2.14447,0 3.84441,1.71781 3.853345,3.853344 l 0,1.563676 c 0,2.14447 -1.680952,3.853344 -3.825422,3.853344 l -7.148233,0 0,-3.602039 7.148233,0 0,-1.814981 -3.518271,0 c -2.14447,0 -3.90919,-1.689887 -3.90919,-3.825421 l 0,-1.312371 c 0,-2.135535 1.736798,-3.881265 3.881267,-3.881265 z m -50.847389,3.853342 0,2.931892 3.546194,0 0,-2.931892 -3.546194,0 z m 15.385454,0 0,3.90919 3.546194,0 0,-3.90919 -3.546194,0 z"
   id="path308"
   inkscape:connector-curvature="0" />
</svg>
