<?xml version="1.0" encoding="UTF-8" standalone="no"?>
<!-- Generator: Adobe Illustrator 15.0.0, SVG Export Plug-In . SVG Version: 6.00 Build 0)  -->

<svg
   xmlns:dc="http://purl.org/dc/elements/1.1/"
   xmlns:cc="http://creativecommons.org/ns#"
   xmlns:rdf="http://www.w3.org/1999/02/22-rdf-syntax-ns#"
   xmlns:svg="http://www.w3.org/2000/svg"
   xmlns="http://www.w3.org/2000/svg"
   xmlns:xlink="http://www.w3.org/1999/xlink"
   xmlns:sodipodi="http://sodipodi.sourceforge.net/DTD/sodipodi-0.dtd"
   xmlns:inkscape="http://www.inkscape.org/namespaces/inkscape"
   version="1.1"
   id="Layer_1"
   x="0px"
   y="0px"
   width="271.09134"
   height="340.0141"
   viewBox="0 0 271.09134 340.0141"
   xml:space="preserve"
   inkscape:version="0.48.2 r9819"
   sodipodi:docname="rails.svg"><metadata
   id="metadata613"><rdf:RDF><cc:Work
       rdf:about=""><dc:format>image/svg+xml</dc:format><dc:type
         rdf:resource="http://purl.org/dc/dcmitype/StillImage" /><dc:title /></cc:Work></rdf:RDF></metadata><defs
   id="defs611">
	
	
	
	<linearGradient
   y2="81.466599"
   x2="211.17751"
   y1="151.02831"
   x1="210.3623"
   gradientUnits="userSpaceOnUse"
   id="SVGID_24_">
		<stop
   id="stop345"
   style="stop-color:#FFFFFF"
   offset="0" />
		<stop
   id="stop347"
   style="stop-color:#AAAAAA"
   offset="0.1729" />
		<stop
   id="stop349"
   style="stop-color:#434343"
   offset="0.5374" />
		<stop
   id="stop351"
   style="stop-color:#181818"
   offset="1" />
	</linearGradient>
	
	<linearGradient
   y2="-34.480598"
   x2="265.55981"
   y1="131.7607"
   x1="173.582"
   gradientUnits="userSpaceOnUse"
   id="SVGID_25_">
		<stop
   id="stop356"
   style="stop-color:#FFFFFF"
   offset="0" />
		<stop
   id="stop358"
   style="stop-color:#AAAAAA"
   offset="0.1729" />
		<stop
   id="stop360"
   style="stop-color:#434343"
   offset="0.5374" />
		<stop
   id="stop362"
   style="stop-color:#181818"
   offset="1" />
	</linearGradient>
	
	<linearGradient
   y2="139.23849"
   x2="269.61569"
   y1="52.943802"
   x1="227.98241"
   gradientUnits="userSpaceOnUse"
   id="SVGID_26_">
		<stop
   id="stop367"
   style="stop-color:#FFFFFF"
   offset="0" />
		<stop
   id="stop369"
   style="stop-color:#AAAAAA"
   offset="0.1729" />
		<stop
   id="stop371"
   style="stop-color:#434343"
   offset="0.5374" />
		<stop
   id="stop373"
   style="stop-color:#181818"
   offset="1" />
	</linearGradient>
	
	<linearGradient
   y2="59.9207"
   x2="277.69421"
   y1="67.199699"
   x1="239.6562"
   gradientUnits="userSpaceOnUse"
   id="SVGID_27_">
		<stop
   id="stop378"
   style="stop-color:#FFFFFF"
   offset="0" />
		<stop
   id="stop380"
   style="stop-color:#AAAAAA"
   offset="0.1729" />
		<stop
   id="stop382"
   style="stop-color:#434343"
   offset="0.5374" />
		<stop
   id="stop384"
   style="stop-color:#181818"
   offset="1" />
	</linearGradient>
	
	<linearGradient
   y2="57.8536"
   x2="194.3217"
   y1="122.8965"
   x1="245.0547"
   gradientUnits="userSpaceOnUse"
   id="SVGID_28_">
		<stop
   id="stop389"
   style="stop-color:#FFFFFF"
   offset="0" />
		<stop
   id="stop391"
   style="stop-color:#AAAAAA"
   offset="0.1729" />
		<stop
   id="stop393"
   style="stop-color:#434343"
   offset="0.5374" />
		<stop
   id="stop395"
   style="stop-color:#181818"
   offset="1" />
	</linearGradient>
	
	<linearGradient
   y2="64.041901"
   x2="225.8775"
   y1="178.1006"
   x1="276.43951"
   gradientUnits="userSpaceOnUse"
   id="SVGID_29_">
		<stop
   id="stop400"
   style="stop-color:#FFFFFF"
   offset="0" />
		<stop
   id="stop402"
   style="stop-color:#AAAAAA"
   offset="0.1729" />
		<stop
   id="stop404"
   style="stop-color:#434343"
   offset="0.5374" />
		<stop
   id="stop406"
   style="stop-color:#181818"
   offset="1" />
	</linearGradient>
	
	<linearGradient
   y2="-6.7294002"
   x2="270.9003"
   y1="35.499001"
   x1="222.97459"
   gradientUnits="userSpaceOnUse"
   id="SVGID_30_">
		<stop
   id="stop411"
   style="stop-color:#FFFFFF"
   offset="0" />
		<stop
   id="stop413"
   style="stop-color:#AAAAAA"
   offset="0.1729" />
		<stop
   id="stop415"
   style="stop-color:#434343"
   offset="0.5374" />
		<stop
   id="stop417"
   style="stop-color:#181818"
   offset="1" />
	</linearGradient>
	
	<linearGradient
   y2="20.888"
   x2="260.7016"
   y1="36.079601"
   x1="236.0146"
   gradientUnits="userSpaceOnUse"
   id="SVGID_31_">
		<stop
   id="stop422"
   style="stop-color:#FFFFFF"
   offset="0" />
		<stop
   id="stop424"
   style="stop-color:#AAAAAA"
   offset="0.1729" />
		<stop
   id="stop426"
   style="stop-color:#434343"
   offset="0.5374" />
		<stop
   id="stop428"
   style="stop-color:#181818"
   offset="1" />
	</linearGradient>
	
	<linearGradient
   y2="64.996597"
   x2="244.6064"
   y1="64.996597"
   x1="244.6064"
   gradientUnits="userSpaceOnUse"
   id="SVGID_32_">
		<stop
   id="stop433"
   style="stop-color:#FFFFFF"
   offset="0" />
		<stop
   id="stop435"
   style="stop-color:#434343"
   offset="1" />
	</linearGradient>
	
	<linearGradient
   y2="17.763599"
   x2="280.90811"
   y1="38.745098"
   x1="223.8223"
   gradientUnits="userSpaceOnUse"
   id="SVGID_33_">
		<stop
   id="stop440"
   style="stop-color:#FFFFFF"
   offset="0" />
		<stop
   id="stop442"
   style="stop-color:#AAAAAA"
   offset="0.1729" />
		<stop
   id="stop444"
   style="stop-color:#434343"
   offset="0.5374" />
		<stop
   id="stop446"
   style="stop-color:#181818"
   offset="1" />
	</linearGradient>
	
	<linearGradient
   y2="109.6382"
   x2="169.0269"
   y1="123.0703"
   x1="150.88181"
   gradientUnits="userSpaceOnUse"
   id="SVGID_34_">
		<stop
   id="stop451"
   style="stop-color:#FFFFFF"
   offset="0" />
		<stop
   id="stop453"
   style="stop-color:#AAAAAA"
   offset="0.1729" />
		<stop
   id="stop455"
   style="stop-color:#434343"
   offset="0.5374" />
		<stop
   id="stop457"
   style="stop-color:#181818"
   offset="1" />
	</linearGradient>
	
	<linearGradient
   y2="15.4436"
   x2="298.39679"
   y1="58.309101"
   x1="231.03709"
   gradientUnits="userSpaceOnUse"
   id="SVGID_35_">
		<stop
   id="stop462"
   style="stop-color:#FFFFFF"
   offset="0" />
		<stop
   id="stop464"
   style="stop-color:#AAAAAA"
   offset="0.1729" />
		<stop
   id="stop466"
   style="stop-color:#434343"
   offset="0.5374" />
		<stop
   id="stop468"
   style="stop-color:#181818"
   offset="1" />
	</linearGradient>
	
	<linearGradient
   y2="64.803902"
   x2="197.1666"
   y1="112.4844"
   x1="137.0479"
   gradientUnits="userSpaceOnUse"
   id="SVGID_36_">
		<stop
   id="stop473"
   style="stop-color:#FFFFFF"
   offset="0" />
		<stop
   id="stop475"
   style="stop-color:#AAAAAA"
   offset="0.1729" />
		<stop
   id="stop477"
   style="stop-color:#434343"
   offset="0.5374" />
		<stop
   id="stop479"
   style="stop-color:#181818"
   offset="1" />
	</linearGradient>
	
	<linearGradient
   y2="66.145302"
   x2="189.9409"
   y1="63.412102"
   x1="135.5273"
   gradientUnits="userSpaceOnUse"
   id="SVGID_37_">
		<stop
   id="stop484"
   style="stop-color:#FFFFFF"
   offset="0" />
		<stop
   id="stop486"
   style="stop-color:#AAAAAA"
   offset="0.1729" />
		<stop
   id="stop488"
   style="stop-color:#434343"
   offset="0.5374" />
		<stop
   id="stop490"
   style="stop-color:#181818"
   offset="1" />
	</linearGradient>
	
	<linearGradient
   y2="73.902702"
   x2="205.6675"
   y1="132.03999"
   x1="185.29491"
   gradientUnits="userSpaceOnUse"
   id="SVGID_38_">
		<stop
   id="stop495"
   style="stop-color:#FFFFFF"
   offset="0" />
		<stop
   id="stop497"
   style="stop-color:#AAAAAA"
   offset="0.1729" />
		<stop
   id="stop499"
   style="stop-color:#434343"
   offset="0.5374" />
		<stop
   id="stop501"
   style="stop-color:#181818"
   offset="1" />
	</linearGradient>
	
	<linearGradient
   y2="100.2281"
   x2="181.5813"
   y1="118.3643"
   x1="157.97951"
   gradientUnits="userSpaceOnUse"
   id="SVGID_39_">
		<stop
   id="stop506"
   style="stop-color:#FFFFFF"
   offset="0" />
		<stop
   id="stop508"
   style="stop-color:#AAAAAA"
   offset="0.1729" />
		<stop
   id="stop510"
   style="stop-color:#434343"
   offset="0.5374" />
		<stop
   id="stop512"
   style="stop-color:#181818"
   offset="1" />
	</linearGradient>
	
	<linearGradient
   y2="39.7892"
   x2="102.8014"
   y1="24.434099"
   x1="218.39841"
   gradientUnits="userSpaceOnUse"
   id="SVGID_40_">
		<stop
   id="stop517"
   style="stop-color:#FFFFFF"
   offset="0" />
		<stop
   id="stop519"
   style="stop-color:#AAAAAA"
   offset="0.1729" />
		<stop
   id="stop521"
   style="stop-color:#434343"
   offset="0.5374" />
		<stop
   id="stop523"
   style="stop-color:#181818"
   offset="1" />
	</linearGradient>
	
	<linearGradient
   y2="31.6343"
   x2="155.0564"
   y1="31.6343"
   x1="139.3857"
   gradientUnits="userSpaceOnUse"
   id="SVGID_41_">
		<stop
   id="stop528"
   style="stop-color:#FFFFFF"
   offset="0" />
		<stop
   id="stop530"
   style="stop-color:#AAAAAA"
   offset="0.1729" />
		<stop
   id="stop532"
   style="stop-color:#434343"
   offset="0.5374" />
		<stop
   id="stop534"
   style="stop-color:#181818"
   offset="1" />
	</linearGradient>
	
	<linearGradient
   y2="79.4543"
   x2="137.9464"
   y1="23.8169"
   x1="219.6992"
   gradientUnits="userSpaceOnUse"
   id="SVGID_42_">
		<stop
   id="stop539"
   style="stop-color:#FFFFFF"
   offset="0" />
		<stop
   id="stop541"
   style="stop-color:#AAAAAA"
   offset="0.1729" />
		<stop
   id="stop543"
   style="stop-color:#434343"
   offset="0.5374" />
		<stop
   id="stop545"
   style="stop-color:#181818"
   offset="1" />
	</linearGradient>
	
	<linearGradient
   y2="-18.987101"
   x2="215.49181"
   y1="30.607401"
   x1="208.7422"
   gradientUnits="userSpaceOnUse"
   id="SVGID_43_">
		<stop
   id="stop550"
   style="stop-color:#FFFFFF"
   offset="0" />
		<stop
   id="stop552"
   style="stop-color:#AAAAAA"
   offset="0.1729" />
		<stop
   id="stop554"
   style="stop-color:#434343"
   offset="0.5374" />
		<stop
   id="stop556"
   style="stop-color:#181818"
   offset="1" />
	</linearGradient>
	
	<linearGradient
   y2="71.092201"
   x2="222.0092"
   y1="144.6689"
   x1="270.59769"
   gradientUnits="userSpaceOnUse"
   id="SVGID_44_">
		<stop
   id="stop561"
   style="stop-color:#FFFFFF"
   offset="0" />
		<stop
   id="stop563"
   style="stop-color:#AAAAAA"
   offset="0.1729" />
		<stop
   id="stop565"
   style="stop-color:#434343"
   offset="0.5374" />
		<stop
   id="stop567"
   style="stop-color:#181818"
   offset="1" />
	</linearGradient>
	
	<linearGradient
   y2="58.576302"
   x2="206.76891"
   y1="-12.5044"
   x1="129.1748"
   gradientUnits="userSpaceOnUse"
   id="SVGID_45_">
		<stop
   id="stop572"
   style="stop-color:#FFFFFF"
   offset="0" />
		<stop
   id="stop574"
   style="stop-color:#AAAAAA"
   offset="0.1729" />
		<stop
   id="stop576"
   style="stop-color:#434343"
   offset="0.5374" />
		<stop
   id="stop578"
   style="stop-color:#181818"
   offset="1" />
	</linearGradient>
	
	<linearGradient
   y2="108.2671"
   x2="215.9563"
   y1="161.85159"
   x1="197.4072"
   gradientUnits="userSpaceOnUse"
   id="SVGID_46_">
		<stop
   id="stop583"
   style="stop-color:#FFFFFF"
   offset="0" />
		<stop
   id="stop585"
   style="stop-color:#AAAAAA"
   offset="0.1729" />
		<stop
   id="stop587"
   style="stop-color:#434343"
   offset="0.5374" />
		<stop
   id="stop589"
   style="stop-color:#181818"
   offset="1" />
	</linearGradient>
	
	

		
		
		
		
		
		
		
	
		
		
		
		
		
		
		
		
		
		
		
		
		
		
		
	<linearGradient
   inkscape:collect="always"
   xlink:href="#SVGID_1_"
   id="linearGradient4622"
   gradientUnits="userSpaceOnUse"
   x1="70.362297"
   y1="151.02831"
   x2="71.177498"
   y2="81.466599" /><linearGradient
   inkscape:collect="always"
   xlink:href="#SVGID_2_"
   id="linearGradient4624"
   gradientUnits="userSpaceOnUse"
   x1="33.5811"
   y1="131.7598"
   x2="125.5591"
   y2="-34.482201" /><linearGradient
   inkscape:collect="always"
   xlink:href="#SVGID_3_"
   id="linearGradient4626"
   gradientUnits="userSpaceOnUse"
   x1="87.983398"
   y1="52.945301"
   x2="129.6145"
   y2="139.2356" /><linearGradient
   inkscape:collect="always"
   xlink:href="#SVGID_4_"
   id="linearGradient4628"
   gradientUnits="userSpaceOnUse"
   x1="99.656197"
   y1="67.200203"
   x2="137.69431"
   y2="59.9212" /><linearGradient
   inkscape:collect="always"
   xlink:href="#SVGID_5_"
   id="linearGradient4630"
   gradientUnits="userSpaceOnUse"
   x1="105.0537"
   y1="122.8955"
   x2="54.320702"
   y2="57.8526" /><linearGradient
   inkscape:collect="always"
   xlink:href="#SVGID_6_"
   id="linearGradient4632"
   gradientUnits="userSpaceOnUse"
   x1="136.43851"
   y1="178.0977"
   x2="85.878098"
   y2="64.042503" /><linearGradient
   inkscape:collect="always"
   xlink:href="#SVGID_7_"
   id="linearGradient4634"
   gradientUnits="userSpaceOnUse"
   x1="82.975601"
   y1="35.499001"
   x2="130.9021"
   y2="-6.7301002" /><linearGradient
   inkscape:collect="always"
   xlink:href="#SVGID_8_"
   id="linearGradient4636"
   gradientUnits="userSpaceOnUse"
   x1="96.014603"
   y1="36.080101"
   x2="120.7016"
   y2="20.8885" /><linearGradient
   inkscape:collect="always"
   xlink:href="#SVGID_9_"
   id="linearGradient4638"
   gradientUnits="userSpaceOnUse"
   x1="104.6079"
   y1="64.997101"
   x2="104.6079"
   y2="64.997101" /><linearGradient
   inkscape:collect="always"
   xlink:href="#SVGID_10_"
   id="linearGradient4640"
   gradientUnits="userSpaceOnUse"
   x1="83.821297"
   y1="38.744598"
   x2="140.90891"
   y2="17.7624" /><linearGradient
   inkscape:collect="always"
   xlink:href="#SVGID_11_"
   id="linearGradient4642"
   gradientUnits="userSpaceOnUse"
   x1="10.8818"
   y1="123.0703"
   x2="29.026501"
   y2="109.6385" /><linearGradient
   inkscape:collect="always"
   xlink:href="#SVGID_12_"
   id="linearGradient4644"
   gradientUnits="userSpaceOnUse"
   x1="91.036102"
   y1="58.309101"
   x2="158.3979"
   y2="15.4423" /><linearGradient
   inkscape:collect="always"
   xlink:href="#SVGID_13_"
   id="linearGradient4646"
   gradientUnits="userSpaceOnUse"
   x1="-2.9531"
   y1="112.4844"
   x2="57.1656"
   y2="64.803902" /><linearGradient
   inkscape:collect="always"
   xlink:href="#SVGID_14_"
   id="linearGradient4648"
   gradientUnits="userSpaceOnUse"
   x1="-4.4692001"
   y1="63.412601"
   x2="49.938499"
   y2="66.1455" /><linearGradient
   inkscape:collect="always"
   xlink:href="#SVGID_15_"
   id="linearGradient4650"
   gradientUnits="userSpaceOnUse"
   x1="45.294899"
   y1="132.03999"
   x2="65.667503"
   y2="73.902702" /><linearGradient
   inkscape:collect="always"
   xlink:href="#SVGID_16_"
   id="linearGradient4652"
   gradientUnits="userSpaceOnUse"
   x1="17.9795"
   y1="118.3643"
   x2="41.581299"
   y2="100.2281" /><linearGradient
   inkscape:collect="always"
   xlink:href="#SVGID_17_"
   id="linearGradient4654"
   gradientUnits="userSpaceOnUse"
   x1="78.398399"
   y1="24.4331"
   x2="-37.198601"
   y2="39.7882" /><linearGradient
   inkscape:collect="always"
   xlink:href="#SVGID_18_"
   id="linearGradient4656"
   gradientUnits="userSpaceOnUse"
   x1="-0.61330003"
   y1="31.6343"
   x2="15.0569"
   y2="31.6343" /><linearGradient
   inkscape:collect="always"
   xlink:href="#SVGID_19_"
   id="linearGradient4658"
   gradientUnits="userSpaceOnUse"
   x1="79.699699"
   y1="23.816401"
   x2="-2.0548999"
   y2="79.455002" /><linearGradient
   inkscape:collect="always"
   xlink:href="#SVGID_20_"
   id="linearGradient4660"
   gradientUnits="userSpaceOnUse"
   x1="68.743698"
   y1="30.607901"
   x2="75.493301"
   y2="-18.986601" /><linearGradient
   inkscape:collect="always"
   xlink:href="#SVGID_21_"
   id="linearGradient4662"
   gradientUnits="userSpaceOnUse"
   x1="130.5977"
   y1="144.6689"
   x2="82.009201"
   y2="71.092201" /><linearGradient
   inkscape:collect="always"
   xlink:href="#SVGID_22_"
   id="linearGradient4664"
   gradientUnits="userSpaceOnUse"
   x1="-10.8286"
   y1="-12.5073"
   x2="66.769997"
   y2="58.577499" /><linearGradient
   inkscape:collect="always"
   xlink:href="#SVGID_23_"
   id="linearGradient4666"
   gradientUnits="userSpaceOnUse"
   x1="57.4072"
   y1="161.85159"
   x2="75.956001"
   y2="108.268" /></defs><sodipodi:namedview
   pagecolor="#ffffff"
   bordercolor="#666666"
   borderopacity="1"
   objecttolerance="10"
   gridtolerance="10"
   guidetolerance="10"
   inkscape:pageopacity="0"
   inkscape:pageshadow="2"
   inkscape:window-width="1366"
   inkscape:window-height="720"
   id="namedview609"
   showgrid="false"
   fit-margin-top="0"
   fit-margin-left="0"
   fit-margin-right="0"
   fit-margin-bottom="0"
   inkscape:zoom="1.0468683"
   inkscape:cx="326.27428"
   inkscape:cy="150.63003"
   inkscape:window-x="0"
   inkscape:window-y="0"
   inkscape:window-maximized="1"
   inkscape:current-layer="Layer_1"
   inkscape:snap-global="false" />
<style
   type="text/css"
   id="style3">

	.st0{opacity:0.75;fill:url(#SVGID_4_);}
	.st1{opacity:0.27;fill:url(#SVGID_11_);}
	.st2{opacity:0.27;fill:url(#SVGID_13_);}
	.st3{opacity:0.27;fill:url(#SVGID_34_);}
	.st4{opacity:0.27;fill:url(#SVGID_36_);}
	.st5{fill:#800828;}
	.st6{opacity:0.45;fill:url(#SVGID_28_);}
	.st7{opacity:0.8;fill:url(#SVGID_18_);}
	.st8{opacity:0.8;fill:url(#SVGID_41_);}
	.st9{fill:#B42738;}
	.st10{opacity:0.63;fill:url(#SVGID_14_);}
	.st11{opacity:0.63;fill:url(#SVGID_19_);}
	.st12{opacity:0.63;fill:url(#SVGID_22_);}
	.st13{opacity:0.63;fill:url(#SVGID_37_);}
	.st14{opacity:0.63;fill:url(#SVGID_42_);}
	.st15{opacity:0.63;fill:url(#SVGID_45_);}
	.st16{fill:#535353;}
	.st17{opacity:0.35;fill:url(#SVGID_15_);}
	.st18{opacity:0.35;fill:url(#SVGID_38_);}
	.st19{opacity:0.42;fill:url(#SVGID_2_);}
	.st20{opacity:0.53;fill:url(#SVGID_24_);}
	.st21{opacity:0.62;fill:url(#SVGID_31_);}
	.st22{fill:url(#SVGID_3_);}
	.st23{fill:url(#SVGID_9_);}
	.st24{opacity:0.55;fill:url(#SVGID_6_);}
	.st25{opacity:0.5;}
	.st26{opacity:0.66;fill:url(#SVGID_20_);}
	.st27{opacity:0.66;fill:url(#SVGID_43_);}
	.st28{opacity:0.34;fill:url(#SVGID_23_);}
	.st29{opacity:0.34;fill:url(#SVGID_46_);}
	.st30{fill:#FFFFFF;}
	.st31{opacity:0.75;fill:url(#SVGID_27_);}
	.st32{opacity:0.53;fill:url(#SVGID_1_);}
	.st33{fill:none;}
	.st34{fill:#303030;}
	.st35{opacity:0.45;fill:url(#SVGID_5_);}
	.st36{opacity:0.79;fill:url(#SVGID_30_);}
	.st37{opacity:0.47;fill:url(#SVGID_17_);}
	.st38{opacity:0.47;fill:url(#SVGID_40_);}
	.st39{opacity:0.24;fill:url(#SVGID_16_);}
	.st40{opacity:0.24;fill:url(#SVGID_39_);}
	.st41{opacity:0.42;fill:url(#SVGID_25_);}
	.st42{fill:url(#SVGID_10_);}
	.st43{fill:url(#SVGID_12_);}
	.st44{fill:url(#SVGID_26_);}
	.st45{fill:url(#SVGID_32_);}
	.st46{fill:url(#SVGID_33_);}
	.st47{fill:url(#SVGID_35_);}
	.st48{opacity:0.51;fill:url(#SVGID_21_);}
	.st49{opacity:0.51;fill:url(#SVGID_44_);}
	.st50{opacity:0.79;fill:url(#SVGID_7_);}
	.st51{opacity:0.62;fill:url(#SVGID_8_);}
	.st52{opacity:0.55;fill:url(#SVGID_29_);}

</style>

<g
   transform="translate(2.0594257e-7,-3.8814874e-6)"
   id="g6835"><rect
     ry="1.3936794"
     rx="0.390625"
     y="7.0140653"
     x="25.045666"
     height="317"
     width="221"
     id="rect6833"
     style="fill:#ffffff;fill-opacity:1;stroke:none" /><g
     id="g3837"
     transform="matrix(0.70103961,0,0,0.70103961,-309.03861,-200.99861)"><path
       sodipodi:type="arc"
       style="fill:#b1473b;fill-opacity:0.68888891;stroke:none"
       id="path3835"
       sodipodi:cx="577.28638"
       sodipodi:cy="763.44275"
       sodipodi:rx="162.96602"
       sodipodi:ry="14.915534"
       d="m 740.2524,763.44275 c 0,8.23762 -72.96238,14.91553 -162.96602,14.91553 -90.00365,0 -162.96602,-6.67791 -162.96602,-14.91553 0,-8.23762 72.96237,-14.91553 162.96602,-14.91553 90.00364,0 162.96602,6.67791 162.96602,14.91553 z"
       transform="matrix(1.1864407,0,0,0.77777778,-50.737508,166.33938)" /><path
       style="fill:#303e4e;fill-opacity:1;stroke:none"
       d="m 477.47542,286.72337 c -11.53526,0.58096 -20.625,10.06541 -20.625,21.75 l 0,428.25 c 0,12.06151 9.68849,21.75 21.75,21.75 l 311.125,0 c 12.06151,0 21.78125,-9.68849 21.78125,-21.75 l 0,-428.25 c 0,-12.06151 -9.71974,-21.75 -21.78125,-21.75 l -311.125,0 c -0.37692,0 -0.7529,-0.0187 -1.125,0 z m 123.71875,20.40625 65.9375,0 c 0.72338,0 1.3125,0.58912 1.3125,1.3125 l 0,3.59375 c 0,0.72338 -0.58912,1.3125 -1.3125,1.3125 l -65.9375,0 c -0.72339,0 -1.3125,-0.58912 -1.3125,-1.3125 l 0,-3.59375 c 0,-0.72338 0.58911,-1.3125 1.3125,-1.3125 z m -109.53125,28.84375 285,0 0,375 -285,0 0,-375 z m 142.53125,383.8125 c 7.93253,0 14.34375,6.44248 14.34375,14.375 0,7.93252 -6.41122,14.375 -14.34375,14.375 -7.93252,0 -14.375,-6.44248 -14.375,-14.375 0,-7.93252 6.44248,-14.375 14.375,-14.375 z"
       id="rect3050"
       inkscape:connector-curvature="0" /></g></g><path
   style="fill:#c0392b;fill-opacity:1"
   d="m 106.9388,120.33242 c -5.70072,0 -10.359354,4.65864 -10.359354,10.35936 l 0,88.3756 c 0,0.20551 0.01894,0.40879 0.02788,0.6143 l 67.545214,0 c 5.69178,0 10.35935,-4.65864 10.35935,-10.35936 l 0,-88.37559 c 0,-0.20552 -0.019,-0.40879 -0.0279,-0.61431 l -67.54521,0 z m 38.7289,4.66311 c 1.49219,-0.0268 3.00338,0.0648 4.49557,0.27923 0.3038,0.96501 0.58973,1.91997 0.89353,2.87604 -1.35817,-0.11615 -2.70851,-0.10722 -4.04881,0 -0.44676,-1.04542 -0.89352,-2.10091 -1.34029,-3.15527 z m -10.94573,2.09421 c 0.9114,1.15265 1.79488,2.30977 2.65266,3.46242 -1.16158,0.64334 -2.27849,1.3738 -3.35073,2.17798 -1.01862,-1.15265 -2.05512,-2.29078 -3.12735,-3.4345 1.22413,-0.82205 2.503,-1.5715 3.82542,-2.2059 z m 15.86014,2.62474 c 7.27728,0.0747 14.55894,2.86767 20.02064,8.5723 -0.3038,0.6344 -0.58861,1.26434 -0.86561,1.89874 -16.1282,-9.51608 -26.99016,2.20926 -30.29622,14.12893 -0.27699,0.78631 -0.55957,1.57932 -0.80976,2.40136 0.0268,0.0268 0.0849,0.057 0.11169,0.0838 -0.83098,3.05587 -1.3805,6.26699 -1.45198,9.46583 -0.0447,-0.0268 -0.0949,-0.029 -0.13962,-0.0558 -0.009,1.242 0.0703,2.48289 0.19546,3.76957 0.0179,0.009 0.0189,0.019 0.0279,0.0279 0.96501,7.6218 2.44157,15.11069 5.41702,22.36614 l -32.64173,0 c 0.6344,-18.79984 5.49743,-38.24862 18.37319,-52.85782 5.24501,-6.11621 12.85342,-9.46806 20.60701,-9.77297 0.4846,-0.0191 0.96684,-0.0329 1.45199,-0.0279 z m -30.10076,8.06969 c 1.40284,1.03649 2.82243,2.09197 4.21634,3.15527 -0.89353,1.18839 -1.76584,2.42817 -2.59682,3.74165 -1.51006,-1.00075 -3.02236,-1.96688 -4.52349,-2.93189 0.92927,-1.38497 1.89428,-2.71409 2.90397,-3.96503 z m 41.60495,0.83768 c 0.99182,0.12509 2.01491,0.34624 3.01566,0.6143 -0.0357,0.44676 -0.057,0.86561 -0.0837,1.31237 -0.94715,-0.12509 -1.87195,-0.14855 -2.79228,-0.13961 -0.0447,-0.58973 -0.10388,-1.19733 -0.13962,-1.78706 z m -7.76254,0.50261 c 0.29487,0.92033 0.57075,1.85295 0.86561,2.76435 -0.80418,0.34848 -1.57596,0.73605 -2.31759,1.20068 -0.39315,-1.00075 -0.78966,-1.97805 -1.20068,-2.98773 0.84885,-0.38422 1.7502,-0.72711 2.65266,-0.9773 z m -8.18137,5.3891 c 0.74163,1.14371 1.44416,2.29972 2.15005,3.4345 -0.54505,0.72376 -1.05324,1.48549 -1.53575,2.28967 -0.81311,-1.16159 -1.63628,-2.32876 -2.48513,-3.49035 0.58973,-0.79524 1.20962,-1.53687 1.87083,-2.23382 z m -5.22156,10.02428 c 1.10797,1.10797 2.18468,2.21483 3.23904,3.32281 -0.31273,0.98288 -0.59531,1.9881 -0.80976,3.01566 -1.14372,-1.0365 -2.23606,-2.06294 -3.40658,-3.09943 0.22338,-0.83992 0.44788,-1.67202 0.69807,-2.48513 0.0893,-0.25019 0.18094,-0.50373 0.27923,-0.75391 z m -30.99429,0.0279 c 1.68877,0.74162 3.42556,1.50336 5.22156,2.28966 -0.58973,1.59049 -1.12138,3.26362 -1.67537,4.97026 -1.86747,-0.68802 -3.6724,-1.36822 -5.36117,-2.03836 0.58973,-1.83174 1.1627,-3.54173 1.81498,-5.22156 z m 28.98385,11.81133 c 1.5458,0.82205 2.96763,1.65415 4.49557,2.48513 0.12509,1.14372 0.28928,2.31089 0.53053,3.49035 -1.67984,-0.74163 -3.19995,-1.49219 -4.94233,-2.23382 -0.0804,-1.23307 -0.11951,-2.49072 -0.0837,-3.74166 z m -35.21063,9.07491 c 1.71557,0.37528 3.77292,0.75056 6.08716,1.11691 -0.50037,1.89428 -0.97618,3.85446 -1.39614,5.89171 -2.51975,-0.23232 -4.68544,-0.47692 -6.33847,-0.75392 0.47357,-2.16234 1.04878,-4.24426 1.64745,-6.2547 z m 37.10938,6.11509 c 2.16234,0.40209 3.85669,0.77737 5.72417,1.11691 0.4825,1.242 1.00968,2.49071 1.56367,3.74165 -1.86747,-0.13403 -3.54507,-0.29822 -5.75209,-0.53054 -0.56292,-1.46538 -1.08005,-2.91625 -1.53575,-4.32802 z m -36.38339,16.53027 7.37161,0 c 2.13554,0 3.85335,1.71781 3.85335,3.85335 l 0,1.98251 c 0,1.93003 -1.35146,3.4937 -3.1832,3.7975 l 3.60204,4.80272 -4.57934,0 -3.21112,-4.24426 0,4.24426 -3.85334,0 0,-14.43608 z m 19.21087,0 3.51828,0 c 2.13553,0 3.87233,1.74573 3.88126,3.88127 l 0,10.55481 -3.85334,0 0,-2.84812 -3.5462,0 0,2.84812 -3.85334,0 0,-10.58273 c 0,-2.14447 1.70887,-3.85335 3.85334,-3.85335 z m 11.58796,0 3.88127,0 0,14.43608 -3.88127,0 0,-14.43608 z m 8.09761,0 3.88126,0 0,10.58274 5.72417,0 0,3.85334 -9.60543,0 0,-14.43608 z m 15.77637,0 6.67355,0 0,3.60204 -6.67355,0 0,1.56368 3.51827,0 c 2.14447,0 3.84441,1.71781 3.85335,3.85334 l 0,1.56368 c 0,2.14447 -1.68096,3.85334 -3.82543,3.85334 l -7.14823,0 0,-3.60204 7.14823,0 0,-1.81498 -3.51827,0 c -2.14447,0 -3.90919,-1.68989 -3.90919,-3.82542 l 0,-1.31237 c 0,-2.13554 1.7368,-3.88127 3.88127,-3.88127 z m -50.84739,3.85335 0,2.93189 3.54619,0 0,-2.93189 -3.54619,0 z m 15.38545,0 0,3.90919 3.5462,0 0,-3.90919 -3.5462,0 z"
   id="path308"
   inkscape:connector-curvature="0" />
</svg>