<?xml version="1.0" encoding="UTF-8" standalone="no"?>
<!-- Created with Inkscape (http://www.inkscape.org/) -->

<svg
   xmlns:dc="http://purl.org/dc/elements/1.1/"
   xmlns:cc="http://creativecommons.org/ns#"
   xmlns:rdf="http://www.w3.org/1999/02/22-rdf-syntax-ns#"
   xmlns:svg="http://www.w3.org/2000/svg"
   xmlns="http://www.w3.org/2000/svg"
   xmlns:xlink="http://www.w3.org/1999/xlink"
   xmlns:sodipodi="http://sodipodi.sourceforge.net/DTD/sodipodi-0.dtd"
   xmlns:inkscape="http://www.inkscape.org/namespaces/inkscape"
   width="385.06"
   height="361.88477"
   id="svg2"
   version="1.1"
   inkscape:version="0.48.2 r9819"
   sodipodi:docname="gorilla_twinkle_twinkle.svg"
   inkscape:export-filename="/Users/sdecaste/devel/gorillasoftware/gorillasoftware.ch/source/images/gorilla_twinkle_twinkle.png"
   inkscape:export-xdpi="90"
   inkscape:export-ydpi="90">
  <defs
     id="defs4">
    <clipPath
       id="clipPath16"
       clipPathUnits="userSpaceOnUse">
      <path
         id="path18"
         d="m 0,841.89 595.276,0 L 595.276,0 0,0 0,841.89 z"
         inkscape:connector-curvature="0" />
    </clipPath>
    <pattern
       patternUnits="userSpaceOnUse"
       width="798"
       height="800"
       patternTransform="translate(844.74634,-137.66251)"
       id="pattern4511">
      <image
         width="798"
         height="800"
         xlink:href="file:///Users/sdecaste/Downloads/vertical_cloth/cloth_brown.png"
         id="image4508"
         x="0"
         y="0" />
    </pattern>
  </defs>
  <sodipodi:namedview
     id="base"
     pagecolor="#ffffff"
     bordercolor="#666666"
     borderopacity="1.0"
     inkscape:pageopacity="0.0"
     inkscape:pageshadow="2"
     inkscape:zoom="0.99999999"
     inkscape:cx="520.05887"
     inkscape:cy="152.9245"
     inkscape:document-units="px"
     inkscape:current-layer="layer1"
     showgrid="false"
     fit-margin-top="0"
     fit-margin-left="0"
     fit-margin-right="0"
     fit-margin-bottom="0"
     inkscape:showpageshadow="false"
     inkscape:window-width="1366"
     inkscape:window-height="720"
     inkscape:window-x="0"
     inkscape:window-y="0"
     inkscape:window-maximized="1"
     inkscape:snap-object-midpoints="true"
     inkscape:object-nodes="true"
     inkscape:object-paths="true"
     inkscape:snap-global="false" />
  <metadata
     id="metadata7">
    <rdf:RDF>
      <cc:Work
         rdf:about="">
        <dc:format>image/svg+xml</dc:format>
        <dc:type
           rdf:resource="http://purl.org/dc/dcmitype/StillImage" />
        <dc:title />
      </cc:Work>
    </rdf:RDF>
  </metadata>
  <g
     inkscape:label="Layer 1"
     inkscape:groupmode="layer"
     id="layer1"
     transform="translate(-43.746378,-9.0241567)">
    <path
       style="fill:#1c1d1f;fill-opacity:0.15555558;stroke:none"
       d="m 80.15378,328.1011 92.14286,-6.42857 c 6.56599,-1.89404 8.34735,-11.13271 16.42857,-12.14286 9.21764,-1.89404 33.79795,7.20041 48.57143,10.35714 8.46003,-1.38896 29.89104,-12.46038 44.28572,-11.07142 8.46002,1.01015 11.29115,9.99628 17.85714,12.14285 8.83883,3.283 95.71428,5.71429 95.71428,5.71429 0,0 20.05076,13.63578 15,25 -3.03046,6.06092 -9.27456,8.44144 -15.71428,10.71428 -10.73287,2.27284 -58.51323,3.11712 -67.85714,-1.42857 -8.83883,-5.68211 -18.04033,-21.8866 -33.57143,-24.28571 -10.73287,-1.6415 -114.14458,-2.06735 -122.85715,2.85714 -8.58629,4.29315 -1.72316,29.87745 -26.97697,29.87745 -21.2132,4.04061 -63.08738,-0.1869 -77.22952,-11.29858 -9.34391,-9.72272 -7.51794,-14.49865 -6.50779,-18.03418 4.54569,-5.42957 20.71428,-11.97326 20.71428,-11.97326 z"
       id="path3512"
       inkscape:connector-curvature="0"
       sodipodi:nodetypes="cccccccccccccccc"
       inkscape:export-filename="/Users/sdecaste/devel/gorillasoftware/source/images/gorilla.png"
       inkscape:export-xdpi="81.809998"
       inkscape:export-ydpi="81.809998" />
    <path
       id="path22"
       style="fill:#483831;fill-opacity:1;fill-rule:nonzero;stroke:none"
       d="m 144.33037,354.09169 c 0,0 30.99302,-36.15963 15.49322,-51.65504 -15.49322,-15.49761 -26.86194,-6.19993 -26.86194,-6.19993 0,0 -26.1226,-34.07104 8.0033,-96.27429 1.35362,1.34046 2.7248,2.69848 4.1245,4.09599 42.78955,42.79832 45.9663,90.76325 53.36628,108.09275 -2.10833,-0.49801 -4.24737,-0.79638 -6.20651,-0.79638 -7.92431,0 -9.9383,4.86385 -9.9383,8.15029 l 28.68506,0 c 0,-0.66694 -0.46291,-1.3997 -1.23955,-2.14124 0.17323,-22.80105 8.32361,-29.23133 25.85495,-29.23133 17.7266,0 25.87688,6.54436 25.87688,29.95532 0,0.10969 0.0658,0.18648 0.15796,0.24791 -0.25888,0.40367 -0.41464,0.79857 -0.41464,1.16934 l 28.68286,0 c 0,-3.28644 -2.01399,-8.15029 -9.93611,-8.15029 -2.31016,0 -4.86604,0.42123 -7.32977,1.09036 7.48554,-17.09037 10.46483,-65.35586 53.49132,-108.38673 1.69807,-1.70027 3.34787,-3.32813 4.98232,-4.93625 34.82355,62.73197 8.4684,97.11455 8.4684,97.11455 0,0 -11.36433,-9.29768 -26.85755,6.19993 -15.49981,15.49541 15.48883,51.65504 15.48883,51.65504 21.69534,9.29769 69.2193,-9.2933 69.2193,-9.2933 C 487.72835,151.20112 354.36423,75.16762 354.36423,75.16762 l -0.0198,0.05265 C 334.81003,59.509856 306.55059,47.83619 273.7849,42.700303 268.35504,34.41619 261.29292,27.035958 253.23039,22.490226 c 2.84766,-4.258332 6.84492,-7.538192 6.84492,-7.538192 0,0 -8.05595,0.335665 -15.40327,3.979709 -0.87317,-0.243521 -1.75511,-0.447552 -2.64363,-0.618676 2.41327,-6.559718 8.40916,-9.2889123 8.40916,-9.2889123 -15.59414,2.9551643 -24.44866,9.0870753 -27.72633,11.7745853 -9.44907,4.232006 -17.7266,12.443721 -23.89361,21.83794 -33.24395,5.155632 -61.85881,17.042106 -81.4875,33.044309 -11.21954,6.915128 -128.254572,84.642311 -42.219143,269.117401 0,0 47.523953,18.59099 69.219293,9.2933"
       inkscape:connector-curvature="0"
       inkscape:export-filename="/Users/sdecaste/devel/gorillasoftware/source/images/gorilla.png"
       inkscape:export-xdpi="81.809998"
       inkscape:export-ydpi="81.809998"
       sodipodi:nodetypes="ccccccscccsscccscccccccccccccccccccc" />
    <path
       id="path26"
       style="fill:#dabfa2;fill-opacity:1;fill-rule:nonzero;stroke:none"
       d="m 225.71388,111.72982 c 0,0 4.72563,0.84025 10.56576,0.84025 5.83793,0 10.56794,-0.84025 10.56794,-0.84025 0,0 -4.73001,4.08282 -10.56794,4.08282 -5.84013,0 -10.56576,-4.08282 -10.56576,-4.08282 m 43.78558,-9.7255 c 0.99821,-0.59674 1.5401,-1.46552 1.5401,-2.702867 0,-0.737146 -0.21939,-1.454547 -0.58357,-2.154396 -3.19759,1.861511 -8.54898,0.773339 -14.43216,3.285663 -5.88318,2.51231 -12.29815,8.62511 -19.74419,8.62511 -7.37914,0 -14.79937,-6.08757 -20.65101,-8.57493 -5.85165,-2.487364 -10.1347,-1.374509 -13.36081,-3.237118 -0.33127,0.669135 -0.54189,1.353627 -0.54189,2.055671 0,1.132047 0.48266,1.935007 1.32292,2.522967 1.51597,14.59592 15.80475,26.04143 33.23079,26.04143 17.34924,0 31.60512,-11.35117 33.21982,-25.86153"
       inkscape:connector-curvature="0"
       inkscape:export-filename="/Users/sdecaste/devel/gorillasoftware/source/images/gorilla.png"
       inkscape:export-xdpi="81.809998"
       inkscape:export-ydpi="81.809998"
       sodipodi:nodetypes="cscsccscssscscsc" />
    <path
       id="path30"
       style="fill:#dabfa2;fill-opacity:1;fill-rule:nonzero;stroke:none"
       d="m 231.04874,79.663559 c 2.16756,-0.368573 4.02359,-0.06143 4.15742,0.686686 0.12286,0.741534 -1.53572,1.645415 -3.69889,2.0096 -2.17634,0.366379 -4.03237,0.05915 -4.15742,-0.684493 -0.12724,-0.748115 1.52695,-1.649802 3.69889,-2.011793 m 10.46045,0 c 2.16317,0.361991 3.82614,1.263678 3.6967,2.011793 -0.12725,0.743728 -1.98766,1.050872 -4.15083,0.684493 -2.17414,-0.364185 -3.82833,-1.268066 -3.70328,-2.0096 0.12953,-0.748115 1.98766,-1.055259 4.15741,-0.686686 m -38.18678,15.49761 c 3.36323,0.81832 8.10038,2.537269 13.74799,4.051645 2.8238,0.757188 5.83103,-0.127761 9.00794,-1.202007 3.17691,-1.074245 6.5235,-2.337788 10.02604,-2.337788 3.50144,0 6.9356,1.26368 10.20025,2.338098 3.26465,1.074417 6.35978,1.959571 9.18318,1.20252 5.64679,-1.514103 10.38339,-3.233051 13.74552,-4.052468 -1.20664,-6.04635 -5.15344,-9.824221 -10.86193,-12.088311 4.32415,-3.913893 7.19156,-10.067743 7.19156,-14.192248 0,-5.590021 -1.33707,-6.851816 -4.03576,-8.375072 -4.30594,-2.430457 -10.13294,-0.329005 -14.76804,1.392654 -4.01586,1.491649 -8.28192,4.55598 -10.48019,7.438746 -2.19828,-2.882766 -6.41451,-6.098248 -10.48458,-7.438746 -4.3994,-1.448967 -9.77985,-2.397423 -13.89304,-0.267654 -2.59312,1.342691 -4.91734,1.65996 -4.91734,7.250072 0,4.124505 2.8696,10.280549 7.19595,14.194442 -5.7063,2.261896 -9.65091,6.039767 -10.85755,12.086117"
       inkscape:connector-curvature="0"
       inkscape:export-filename="/Users/sdecaste/devel/gorillasoftware/source/images/gorilla.png"
       inkscape:export-xdpi="81.809998"
       inkscape:export-ydpi="81.809998"
       sodipodi:nodetypes="cccccccccccsssssccsaacaascc" />
    <path
       transform="matrix(1.073474,0,0,1.073474,0.75344863,4.8127061)"
       d="m 210.75097,57.652763 a 4.2640471,4.2640471 0 1 1 -8.52809,0 4.2640471,4.2640471 0 1 1 8.52809,0 z"
       sodipodi:ry="4.2640471"
       sodipodi:rx="4.2640471"
       sodipodi:cy="57.652763"
       sodipodi:cx="206.48692"
       id="path3968"
       style="fill:#483831;fill-opacity:1;stroke:none"
       sodipodi:type="arc" />
    <path
       id="path34"
       style="fill:#ffffff;fill-opacity:1;fill-rule:nonzero;stroke:none"
       d="m 222.82585,65.596135 c 0,0.741533 0.59893,1.342658 1.34485,1.342658 0.73715,0 1.34266,-0.601125 1.34266,-1.342658 0,-0.741534 -0.60551,-1.344852 -1.34266,-1.344852 -0.74592,0 -1.34485,0.603318 -1.34485,1.344852"
       inkscape:connector-curvature="0"
       inkscape:export-filename="/Users/sdecaste/devel/gorillasoftware/source/images/gorilla.png"
       inkscape:export-xdpi="81.809998"
       inkscape:export-ydpi="81.809998" />
    <path
       sodipodi:type="arc"
       style="fill:#483831;fill-opacity:1;stroke:none"
       id="path3960"
       sodipodi:cx="206.48692"
       sodipodi:cy="57.652763"
       sodipodi:rx="4.2640471"
       sodipodi:ry="4.2640471"
       d="m 210.75097,57.652763 a 4.2640471,4.2640471 0 1 1 -8.52809,0 4.2640471,4.2640471 0 1 1 8.52809,0 z"
       transform="matrix(1.073474,0,0,1.073474,28.488934,4.8127061)" />
    <path
       id="path38"
       style="fill:#ffffff;fill-opacity:1;fill-rule:nonzero;stroke:none"
       d="m 250.56227,65.596135 c 0,0.741533 0.60332,1.342658 1.34047,1.342658 0.74592,0 1.34265,-0.601125 1.34265,-1.342658 0,-0.741534 -0.59673,-1.344852 -1.34265,-1.344852 -0.73715,0 -1.34047,0.603318 -1.34047,1.344852"
       inkscape:connector-curvature="0"
       inkscape:export-filename="/Users/sdecaste/devel/gorillasoftware/source/images/gorilla.png"
       inkscape:export-xdpi="81.809998"
       inkscape:export-ydpi="81.809998" />
    <path
       id="path108"
       style="fill:#483831;fill-opacity:1;fill-rule:nonzero;stroke:none"
       d="m 246.84736,111.72982 c 0,0 -4.73002,0.84025 -10.56576,0.84025 -5.84232,0 -10.56795,-0.84025 -10.56795,-0.84025 0,0 4.72563,4.08282 10.56795,4.08282 5.83574,0 10.56576,-4.08282 10.56576,-4.08282"
       inkscape:connector-curvature="0"
       inkscape:export-filename="/Users/sdecaste/devel/gorillasoftware/source/images/gorilla.png"
       inkscape:export-xdpi="81.809998"
       inkscape:export-ydpi="81.809998" />
  </g>
</svg>
