<?xml version="1.0" encoding="UTF-8" standalone="no"?>
<!-- Generator: Adobe Illustrator 15.0.0, SVG Export Plug-In . SVG Version: 6.00 Build 0)  -->

<svg
   xmlns:dc="http://purl.org/dc/elements/1.1/"
   xmlns:cc="http://creativecommons.org/ns#"
   xmlns:rdf="http://www.w3.org/1999/02/22-rdf-syntax-ns#"
   xmlns:svg="http://www.w3.org/2000/svg"
   xmlns="http://www.w3.org/2000/svg"
   xmlns:xlink="http://www.w3.org/1999/xlink"
   xmlns:sodipodi="http://sodipodi.sourceforge.net/DTD/sodipodi-0.dtd"
   xmlns:inkscape="http://www.inkscape.org/namespaces/inkscape"
   version="1.1"
   id="Layer_1"
   x="0px"
   y="0px"
   width="87.218697"
   height="111.91577"
   viewBox="0 0 87.218697 111.91577"
   xml:space="preserve"
   inkscape:version="0.48.2 r9819"
   sodipodi:docname="skills-rails.svg"><metadata
   id="metadata613"><rdf:RDF><cc:Work
       rdf:about=""><dc:format>image/svg+xml</dc:format><dc:type
         rdf:resource="http://purl.org/dc/dcmitype/StillImage" /><dc:title></dc:title></cc:Work></rdf:RDF></metadata><defs
   id="defs611">
	
	
	
	<linearGradient
   y2="81.466599"
   x2="211.17751"
   y1="151.02831"
   x1="210.3623"
   gradientUnits="userSpaceOnUse"
   id="SVGID_24_">
		<stop
   id="stop345"
   style="stop-color:#FFFFFF"
   offset="0" />
		<stop
   id="stop347"
   style="stop-color:#AAAAAA"
   offset="0.1729" />
		<stop
   id="stop349"
   style="stop-color:#434343"
   offset="0.5374" />
		<stop
   id="stop351"
   style="stop-color:#181818"
   offset="1" />
	</linearGradient>
	
	<linearGradient
   y2="-34.480598"
   x2="265.55981"
   y1="131.7607"
   x1="173.582"
   gradientUnits="userSpaceOnUse"
   id="SVGID_25_">
		<stop
   id="stop356"
   style="stop-color:#FFFFFF"
   offset="0" />
		<stop
   id="stop358"
   style="stop-color:#AAAAAA"
   offset="0.1729" />
		<stop
   id="stop360"
   style="stop-color:#434343"
   offset="0.5374" />
		<stop
   id="stop362"
   style="stop-color:#181818"
   offset="1" />
	</linearGradient>
	
	<linearGradient
   y2="139.23849"
   x2="269.61569"
   y1="52.943802"
   x1="227.98241"
   gradientUnits="userSpaceOnUse"
   id="SVGID_26_">
		<stop
   id="stop367"
   style="stop-color:#FFFFFF"
   offset="0" />
		<stop
   id="stop369"
   style="stop-color:#AAAAAA"
   offset="0.1729" />
		<stop
   id="stop371"
   style="stop-color:#434343"
   offset="0.5374" />
		<stop
   id="stop373"
   style="stop-color:#181818"
   offset="1" />
	</linearGradient>
	
	<linearGradient
   y2="59.9207"
   x2="277.69421"
   y1="67.199699"
   x1="239.6562"
   gradientUnits="userSpaceOnUse"
   id="SVGID_27_">
		<stop
   id="stop378"
   style="stop-color:#FFFFFF"
   offset="0" />
		<stop
   id="stop380"
   style="stop-color:#AAAAAA"
   offset="0.1729" />
		<stop
   id="stop382"
   style="stop-color:#434343"
   offset="0.5374" />
		<stop
   id="stop384"
   style="stop-color:#181818"
   offset="1" />
	</linearGradient>
	
	<linearGradient
   y2="57.8536"
   x2="194.3217"
   y1="122.8965"
   x1="245.0547"
   gradientUnits="userSpaceOnUse"
   id="SVGID_28_">
		<stop
   id="stop389"
   style="stop-color:#FFFFFF"
   offset="0" />
		<stop
   id="stop391"
   style="stop-color:#AAAAAA"
   offset="0.1729" />
		<stop
   id="stop393"
   style="stop-color:#434343"
   offset="0.5374" />
		<stop
   id="stop395"
   style="stop-color:#181818"
   offset="1" />
	</linearGradient>
	
	<linearGradient
   y2="64.041901"
   x2="225.8775"
   y1="178.1006"
   x1="276.43951"
   gradientUnits="userSpaceOnUse"
   id="SVGID_29_">
		<stop
   id="stop400"
   style="stop-color:#FFFFFF"
   offset="0" />
		<stop
   id="stop402"
   style="stop-color:#AAAAAA"
   offset="0.1729" />
		<stop
   id="stop404"
   style="stop-color:#434343"
   offset="0.5374" />
		<stop
   id="stop406"
   style="stop-color:#181818"
   offset="1" />
	</linearGradient>
	
	<linearGradient
   y2="-6.7294002"
   x2="270.9003"
   y1="35.499001"
   x1="222.97459"
   gradientUnits="userSpaceOnUse"
   id="SVGID_30_">
		<stop
   id="stop411"
   style="stop-color:#FFFFFF"
   offset="0" />
		<stop
   id="stop413"
   style="stop-color:#AAAAAA"
   offset="0.1729" />
		<stop
   id="stop415"
   style="stop-color:#434343"
   offset="0.5374" />
		<stop
   id="stop417"
   style="stop-color:#181818"
   offset="1" />
	</linearGradient>
	
	<linearGradient
   y2="20.888"
   x2="260.7016"
   y1="36.079601"
   x1="236.0146"
   gradientUnits="userSpaceOnUse"
   id="SVGID_31_">
		<stop
   id="stop422"
   style="stop-color:#FFFFFF"
   offset="0" />
		<stop
   id="stop424"
   style="stop-color:#AAAAAA"
   offset="0.1729" />
		<stop
   id="stop426"
   style="stop-color:#434343"
   offset="0.5374" />
		<stop
   id="stop428"
   style="stop-color:#181818"
   offset="1" />
	</linearGradient>
	
	<linearGradient
   y2="64.996597"
   x2="244.6064"
   y1="64.996597"
   x1="244.6064"
   gradientUnits="userSpaceOnUse"
   id="SVGID_32_">
		<stop
   id="stop433"
   style="stop-color:#FFFFFF"
   offset="0" />
		<stop
   id="stop435"
   style="stop-color:#434343"
   offset="1" />
	</linearGradient>
	
	<linearGradient
   y2="17.763599"
   x2="280.90811"
   y1="38.745098"
   x1="223.8223"
   gradientUnits="userSpaceOnUse"
   id="SVGID_33_">
		<stop
   id="stop440"
   style="stop-color:#FFFFFF"
   offset="0" />
		<stop
   id="stop442"
   style="stop-color:#AAAAAA"
   offset="0.1729" />
		<stop
   id="stop444"
   style="stop-color:#434343"
   offset="0.5374" />
		<stop
   id="stop446"
   style="stop-color:#181818"
   offset="1" />
	</linearGradient>
	
	<linearGradient
   y2="109.6382"
   x2="169.0269"
   y1="123.0703"
   x1="150.88181"
   gradientUnits="userSpaceOnUse"
   id="SVGID_34_">
		<stop
   id="stop451"
   style="stop-color:#FFFFFF"
   offset="0" />
		<stop
   id="stop453"
   style="stop-color:#AAAAAA"
   offset="0.1729" />
		<stop
   id="stop455"
   style="stop-color:#434343"
   offset="0.5374" />
		<stop
   id="stop457"
   style="stop-color:#181818"
   offset="1" />
	</linearGradient>
	
	<linearGradient
   y2="15.4436"
   x2="298.39679"
   y1="58.309101"
   x1="231.03709"
   gradientUnits="userSpaceOnUse"
   id="SVGID_35_">
		<stop
   id="stop462"
   style="stop-color:#FFFFFF"
   offset="0" />
		<stop
   id="stop464"
   style="stop-color:#AAAAAA"
   offset="0.1729" />
		<stop
   id="stop466"
   style="stop-color:#434343"
   offset="0.5374" />
		<stop
   id="stop468"
   style="stop-color:#181818"
   offset="1" />
	</linearGradient>
	
	<linearGradient
   y2="64.803902"
   x2="197.1666"
   y1="112.4844"
   x1="137.0479"
   gradientUnits="userSpaceOnUse"
   id="SVGID_36_">
		<stop
   id="stop473"
   style="stop-color:#FFFFFF"
   offset="0" />
		<stop
   id="stop475"
   style="stop-color:#AAAAAA"
   offset="0.1729" />
		<stop
   id="stop477"
   style="stop-color:#434343"
   offset="0.5374" />
		<stop
   id="stop479"
   style="stop-color:#181818"
   offset="1" />
	</linearGradient>
	
	<linearGradient
   y2="66.145302"
   x2="189.9409"
   y1="63.412102"
   x1="135.5273"
   gradientUnits="userSpaceOnUse"
   id="SVGID_37_">
		<stop
   id="stop484"
   style="stop-color:#FFFFFF"
   offset="0" />
		<stop
   id="stop486"
   style="stop-color:#AAAAAA"
   offset="0.1729" />
		<stop
   id="stop488"
   style="stop-color:#434343"
   offset="0.5374" />
		<stop
   id="stop490"
   style="stop-color:#181818"
   offset="1" />
	</linearGradient>
	
	<linearGradient
   y2="73.902702"
   x2="205.6675"
   y1="132.03999"
   x1="185.29491"
   gradientUnits="userSpaceOnUse"
   id="SVGID_38_">
		<stop
   id="stop495"
   style="stop-color:#FFFFFF"
   offset="0" />
		<stop
   id="stop497"
   style="stop-color:#AAAAAA"
   offset="0.1729" />
		<stop
   id="stop499"
   style="stop-color:#434343"
   offset="0.5374" />
		<stop
   id="stop501"
   style="stop-color:#181818"
   offset="1" />
	</linearGradient>
	
	<linearGradient
   y2="100.2281"
   x2="181.5813"
   y1="118.3643"
   x1="157.97951"
   gradientUnits="userSpaceOnUse"
   id="SVGID_39_">
		<stop
   id="stop506"
   style="stop-color:#FFFFFF"
   offset="0" />
		<stop
   id="stop508"
   style="stop-color:#AAAAAA"
   offset="0.1729" />
		<stop
   id="stop510"
   style="stop-color:#434343"
   offset="0.5374" />
		<stop
   id="stop512"
   style="stop-color:#181818"
   offset="1" />
	</linearGradient>
	
	<linearGradient
   y2="39.7892"
   x2="102.8014"
   y1="24.434099"
   x1="218.39841"
   gradientUnits="userSpaceOnUse"
   id="SVGID_40_">
		<stop
   id="stop517"
   style="stop-color:#FFFFFF"
   offset="0" />
		<stop
   id="stop519"
   style="stop-color:#AAAAAA"
   offset="0.1729" />
		<stop
   id="stop521"
   style="stop-color:#434343"
   offset="0.5374" />
		<stop
   id="stop523"
   style="stop-color:#181818"
   offset="1" />
	</linearGradient>
	
	<linearGradient
   y2="31.6343"
   x2="155.0564"
   y1="31.6343"
   x1="139.3857"
   gradientUnits="userSpaceOnUse"
   id="SVGID_41_">
		<stop
   id="stop528"
   style="stop-color:#FFFFFF"
   offset="0" />
		<stop
   id="stop530"
   style="stop-color:#AAAAAA"
   offset="0.1729" />
		<stop
   id="stop532"
   style="stop-color:#434343"
   offset="0.5374" />
		<stop
   id="stop534"
   style="stop-color:#181818"
   offset="1" />
	</linearGradient>
	
	<linearGradient
   y2="79.4543"
   x2="137.9464"
   y1="23.8169"
   x1="219.6992"
   gradientUnits="userSpaceOnUse"
   id="SVGID_42_">
		<stop
   id="stop539"
   style="stop-color:#FFFFFF"
   offset="0" />
		<stop
   id="stop541"
   style="stop-color:#AAAAAA"
   offset="0.1729" />
		<stop
   id="stop543"
   style="stop-color:#434343"
   offset="0.5374" />
		<stop
   id="stop545"
   style="stop-color:#181818"
   offset="1" />
	</linearGradient>
	
	<linearGradient
   y2="-18.987101"
   x2="215.49181"
   y1="30.607401"
   x1="208.7422"
   gradientUnits="userSpaceOnUse"
   id="SVGID_43_">
		<stop
   id="stop550"
   style="stop-color:#FFFFFF"
   offset="0" />
		<stop
   id="stop552"
   style="stop-color:#AAAAAA"
   offset="0.1729" />
		<stop
   id="stop554"
   style="stop-color:#434343"
   offset="0.5374" />
		<stop
   id="stop556"
   style="stop-color:#181818"
   offset="1" />
	</linearGradient>
	
	<linearGradient
   y2="71.092201"
   x2="222.0092"
   y1="144.6689"
   x1="270.59769"
   gradientUnits="userSpaceOnUse"
   id="SVGID_44_">
		<stop
   id="stop561"
   style="stop-color:#FFFFFF"
   offset="0" />
		<stop
   id="stop563"
   style="stop-color:#AAAAAA"
   offset="0.1729" />
		<stop
   id="stop565"
   style="stop-color:#434343"
   offset="0.5374" />
		<stop
   id="stop567"
   style="stop-color:#181818"
   offset="1" />
	</linearGradient>
	
	<linearGradient
   y2="58.576302"
   x2="206.76891"
   y1="-12.5044"
   x1="129.1748"
   gradientUnits="userSpaceOnUse"
   id="SVGID_45_">
		<stop
   id="stop572"
   style="stop-color:#FFFFFF"
   offset="0" />
		<stop
   id="stop574"
   style="stop-color:#AAAAAA"
   offset="0.1729" />
		<stop
   id="stop576"
   style="stop-color:#434343"
   offset="0.5374" />
		<stop
   id="stop578"
   style="stop-color:#181818"
   offset="1" />
	</linearGradient>
	
	<linearGradient
   y2="108.2671"
   x2="215.9563"
   y1="161.85159"
   x1="197.4072"
   gradientUnits="userSpaceOnUse"
   id="SVGID_46_">
		<stop
   id="stop583"
   style="stop-color:#FFFFFF"
   offset="0" />
		<stop
   id="stop585"
   style="stop-color:#AAAAAA"
   offset="0.1729" />
		<stop
   id="stop587"
   style="stop-color:#434343"
   offset="0.5374" />
		<stop
   id="stop589"
   style="stop-color:#181818"
   offset="1" />
	</linearGradient>
	
	

		
		
		
		
		
		
		
	
		
		
		
		
		
		
		
		
		
		
		
		
		
		
		
	<linearGradient
   inkscape:collect="always"
   xlink:href="#SVGID_1_"
   id="linearGradient4622"
   gradientUnits="userSpaceOnUse"
   x1="70.362297"
   y1="151.02831"
   x2="71.177498"
   y2="81.466599" /><linearGradient
   inkscape:collect="always"
   xlink:href="#SVGID_2_"
   id="linearGradient4624"
   gradientUnits="userSpaceOnUse"
   x1="33.5811"
   y1="131.7598"
   x2="125.5591"
   y2="-34.482201" /><linearGradient
   inkscape:collect="always"
   xlink:href="#SVGID_3_"
   id="linearGradient4626"
   gradientUnits="userSpaceOnUse"
   x1="87.983398"
   y1="52.945301"
   x2="129.6145"
   y2="139.2356" /><linearGradient
   inkscape:collect="always"
   xlink:href="#SVGID_4_"
   id="linearGradient4628"
   gradientUnits="userSpaceOnUse"
   x1="99.656197"
   y1="67.200203"
   x2="137.69431"
   y2="59.9212" /><linearGradient
   inkscape:collect="always"
   xlink:href="#SVGID_5_"
   id="linearGradient4630"
   gradientUnits="userSpaceOnUse"
   x1="105.0537"
   y1="122.8955"
   x2="54.320702"
   y2="57.8526" /><linearGradient
   inkscape:collect="always"
   xlink:href="#SVGID_6_"
   id="linearGradient4632"
   gradientUnits="userSpaceOnUse"
   x1="136.43851"
   y1="178.0977"
   x2="85.878098"
   y2="64.042503" /><linearGradient
   inkscape:collect="always"
   xlink:href="#SVGID_7_"
   id="linearGradient4634"
   gradientUnits="userSpaceOnUse"
   x1="82.975601"
   y1="35.499001"
   x2="130.9021"
   y2="-6.7301002" /><linearGradient
   inkscape:collect="always"
   xlink:href="#SVGID_8_"
   id="linearGradient4636"
   gradientUnits="userSpaceOnUse"
   x1="96.014603"
   y1="36.080101"
   x2="120.7016"
   y2="20.8885" /><linearGradient
   inkscape:collect="always"
   xlink:href="#SVGID_9_"
   id="linearGradient4638"
   gradientUnits="userSpaceOnUse"
   x1="104.6079"
   y1="64.997101"
   x2="104.6079"
   y2="64.997101" /><linearGradient
   inkscape:collect="always"
   xlink:href="#SVGID_10_"
   id="linearGradient4640"
   gradientUnits="userSpaceOnUse"
   x1="83.821297"
   y1="38.744598"
   x2="140.90891"
   y2="17.7624" /><linearGradient
   inkscape:collect="always"
   xlink:href="#SVGID_11_"
   id="linearGradient4642"
   gradientUnits="userSpaceOnUse"
   x1="10.8818"
   y1="123.0703"
   x2="29.026501"
   y2="109.6385" /><linearGradient
   inkscape:collect="always"
   xlink:href="#SVGID_12_"
   id="linearGradient4644"
   gradientUnits="userSpaceOnUse"
   x1="91.036102"
   y1="58.309101"
   x2="158.3979"
   y2="15.4423" /><linearGradient
   inkscape:collect="always"
   xlink:href="#SVGID_13_"
   id="linearGradient4646"
   gradientUnits="userSpaceOnUse"
   x1="-2.9531"
   y1="112.4844"
   x2="57.1656"
   y2="64.803902" /><linearGradient
   inkscape:collect="always"
   xlink:href="#SVGID_14_"
   id="linearGradient4648"
   gradientUnits="userSpaceOnUse"
   x1="-4.4692001"
   y1="63.412601"
   x2="49.938499"
   y2="66.1455" /><linearGradient
   inkscape:collect="always"
   xlink:href="#SVGID_15_"
   id="linearGradient4650"
   gradientUnits="userSpaceOnUse"
   x1="45.294899"
   y1="132.03999"
   x2="65.667503"
   y2="73.902702" /><linearGradient
   inkscape:collect="always"
   xlink:href="#SVGID_16_"
   id="linearGradient4652"
   gradientUnits="userSpaceOnUse"
   x1="17.9795"
   y1="118.3643"
   x2="41.581299"
   y2="100.2281" /><linearGradient
   inkscape:collect="always"
   xlink:href="#SVGID_17_"
   id="linearGradient4654"
   gradientUnits="userSpaceOnUse"
   x1="78.398399"
   y1="24.4331"
   x2="-37.198601"
   y2="39.7882" /><linearGradient
   inkscape:collect="always"
   xlink:href="#SVGID_18_"
   id="linearGradient4656"
   gradientUnits="userSpaceOnUse"
   x1="-0.61330003"
   y1="31.6343"
   x2="15.0569"
   y2="31.6343" /><linearGradient
   inkscape:collect="always"
   xlink:href="#SVGID_19_"
   id="linearGradient4658"
   gradientUnits="userSpaceOnUse"
   x1="79.699699"
   y1="23.816401"
   x2="-2.0548999"
   y2="79.455002" /><linearGradient
   inkscape:collect="always"
   xlink:href="#SVGID_20_"
   id="linearGradient4660"
   gradientUnits="userSpaceOnUse"
   x1="68.743698"
   y1="30.607901"
   x2="75.493301"
   y2="-18.986601" /><linearGradient
   inkscape:collect="always"
   xlink:href="#SVGID_21_"
   id="linearGradient4662"
   gradientUnits="userSpaceOnUse"
   x1="130.5977"
   y1="144.6689"
   x2="82.009201"
   y2="71.092201" /><linearGradient
   inkscape:collect="always"
   xlink:href="#SVGID_22_"
   id="linearGradient4664"
   gradientUnits="userSpaceOnUse"
   x1="-10.8286"
   y1="-12.5073"
   x2="66.769997"
   y2="58.577499" /><linearGradient
   inkscape:collect="always"
   xlink:href="#SVGID_23_"
   id="linearGradient4666"
   gradientUnits="userSpaceOnUse"
   x1="57.4072"
   y1="161.85159"
   x2="75.956001"
   y2="108.268" /></defs><sodipodi:namedview
   pagecolor="#ffffff"
   bordercolor="#666666"
   borderopacity="1"
   objecttolerance="10"
   gridtolerance="10"
   guidetolerance="10"
   inkscape:pageopacity="0"
   inkscape:pageshadow="2"
   inkscape:window-width="1366"
   inkscape:window-height="720"
   id="namedview609"
   showgrid="false"
   fit-margin-top="0"
   fit-margin-left="0"
   fit-margin-right="0"
   fit-margin-bottom="0"
   inkscape:zoom="4.187473"
   inkscape:cx="55.685929"
   inkscape:cy="59.632894"
   inkscape:window-x="0"
   inkscape:window-y="0"
   inkscape:window-maximized="1"
   inkscape:current-layer="Layer_1" />
<style
   type="text/css"
   id="style3">

	.st0{opacity:0.75;fill:url(#SVGID_4_);}
	.st1{opacity:0.27;fill:url(#SVGID_11_);}
	.st2{opacity:0.27;fill:url(#SVGID_13_);}
	.st3{opacity:0.27;fill:url(#SVGID_34_);}
	.st4{opacity:0.27;fill:url(#SVGID_36_);}
	.st5{fill:#800828;}
	.st6{opacity:0.45;fill:url(#SVGID_28_);}
	.st7{opacity:0.8;fill:url(#SVGID_18_);}
	.st8{opacity:0.8;fill:url(#SVGID_41_);}
	.st9{fill:#B42738;}
	.st10{opacity:0.63;fill:url(#SVGID_14_);}
	.st11{opacity:0.63;fill:url(#SVGID_19_);}
	.st12{opacity:0.63;fill:url(#SVGID_22_);}
	.st13{opacity:0.63;fill:url(#SVGID_37_);}
	.st14{opacity:0.63;fill:url(#SVGID_42_);}
	.st15{opacity:0.63;fill:url(#SVGID_45_);}
	.st16{fill:#535353;}
	.st17{opacity:0.35;fill:url(#SVGID_15_);}
	.st18{opacity:0.35;fill:url(#SVGID_38_);}
	.st19{opacity:0.42;fill:url(#SVGID_2_);}
	.st20{opacity:0.53;fill:url(#SVGID_24_);}
	.st21{opacity:0.62;fill:url(#SVGID_31_);}
	.st22{fill:url(#SVGID_3_);}
	.st23{fill:url(#SVGID_9_);}
	.st24{opacity:0.55;fill:url(#SVGID_6_);}
	.st25{opacity:0.5;}
	.st26{opacity:0.66;fill:url(#SVGID_20_);}
	.st27{opacity:0.66;fill:url(#SVGID_43_);}
	.st28{opacity:0.34;fill:url(#SVGID_23_);}
	.st29{opacity:0.34;fill:url(#SVGID_46_);}
	.st30{fill:#FFFFFF;}
	.st31{opacity:0.75;fill:url(#SVGID_27_);}
	.st32{opacity:0.53;fill:url(#SVGID_1_);}
	.st33{fill:none;}
	.st34{fill:#303030;}
	.st35{opacity:0.45;fill:url(#SVGID_5_);}
	.st36{opacity:0.79;fill:url(#SVGID_30_);}
	.st37{opacity:0.47;fill:url(#SVGID_17_);}
	.st38{opacity:0.47;fill:url(#SVGID_40_);}
	.st39{opacity:0.24;fill:url(#SVGID_16_);}
	.st40{opacity:0.24;fill:url(#SVGID_39_);}
	.st41{opacity:0.42;fill:url(#SVGID_25_);}
	.st42{fill:url(#SVGID_10_);}
	.st43{fill:url(#SVGID_12_);}
	.st44{fill:url(#SVGID_26_);}
	.st45{fill:url(#SVGID_32_);}
	.st46{fill:url(#SVGID_33_);}
	.st47{fill:url(#SVGID_35_);}
	.st48{opacity:0.51;fill:url(#SVGID_21_);}
	.st49{opacity:0.51;fill:url(#SVGID_44_);}
	.st50{opacity:0.79;fill:url(#SVGID_7_);}
	.st51{opacity:0.62;fill:url(#SVGID_8_);}
	.st52{opacity:0.55;fill:url(#SVGID_29_);}

</style>

<g
   id="g4672"
   transform="translate(-166.01061,-12.696795)"><path
     inkscape:connector-curvature="0"
     id="path4670"
     d="m 177.60436,13.425085 c -6.38,0 -11.59375,5.21375 -11.59375,11.59375 l 0,98.906235 c 0,0.23 0.0212,0.4575 0.0312,0.6875 l 75.59375,0 c 6.37,0 11.59375,-5.21375 11.59375,-11.59375 l 0,-98.906235 c 0,-0.23 -0.0213,-0.4575 -0.0312,-0.6875 l -75.59375,0 z m 43.34375,5.21875 c 1.67,-0.03 3.36125,0.0725 5.03125,0.3125 0.34,1.08 0.66,2.14875 1,3.21875 -1.52,-0.13 -3.03125,-0.12 -4.53125,0 -0.5,-1.17 -1,-2.35125 -1.5,-3.53125 z m -12.25,2.34375 c 1.02,1.29 2.00875,2.585 2.96875,3.875 -1.3,0.72 -2.55,1.5375 -3.75,2.4375 -1.14,-1.29 -2.3,-2.56375 -3.5,-3.84375 1.37,-0.92 2.80125,-1.75875 4.28125,-2.46875 z m 17.75,2.9375 c 8.14442,0.08365 16.29375,3.209375 22.40625,9.59375 -0.34,0.71 -0.65875,1.415 -0.96875,2.125 -18.05,-10.65 -30.20625,2.4725 -33.90625,15.8125 -0.31,0.88 -0.62625,1.7675 -0.90625,2.6875 0.03,0.03 0.095,0.06375 0.125,0.09375 -0.93,3.42 -1.545,7.01375 -1.625,10.59375 -0.05,-0.03 -0.10625,-0.0325 -0.15625,-0.0625 -0.01,1.39 0.0787,2.77875 0.21875,4.21875 0.02,0.01 0.0212,0.02125 0.0312,0.03125 1.08,8.53 2.7325,16.911247 6.0625,25.031243 l -36.53125,0 c 0.71,-21.039993 6.1525,-42.806243 20.5625,-59.156243 5.87,-6.845 14.385,-10.59625 23.0625,-10.9375 0.54234,-0.02133 1.08204,-0.03683 1.625,-0.03125 z m -33.6875,9.03125 c 1.57,1.16 3.15875,2.34125 4.71875,3.53125 -1,1.33 -1.97625,2.7175 -2.90625,4.1875 -1.69,-1.12 -3.3825,-2.20125 -5.0625,-3.28125 1.04,-1.55 2.12,-3.0375 3.25,-4.4375 z m 46.5625,0.9375 c 1.11,0.14 2.255,0.3875 3.375,0.6875 -0.04,0.5 -0.0638,0.96875 -0.0937,1.46875 -1.06,-0.14 -2.095,-0.16625 -3.125,-0.15625 -0.05,-0.66 -0.11625,-1.34 -0.15625,-2 z m -8.6875,0.5625 c 0.33,1.03 0.63875,2.07375 0.96875,3.09375 -0.9,0.39 -1.76375,0.82375 -2.59375,1.34375 -0.44,-1.12 -0.88375,-2.21375 -1.34375,-3.34375 0.95,-0.43 1.95875,-0.81375 2.96875,-1.09375 z m -9.15625,6.03125 c 0.83,1.28 1.61625,2.57375 2.40625,3.84375 -0.61,0.81 -1.17875,1.6625 -1.71875,2.5625 -0.91,-1.3 -1.83125,-2.60625 -2.78125,-3.90625 0.66,-0.89 1.35375,-1.72 2.09375,-2.5 z m -5.84375,11.21875 c 1.24,1.24 2.445,2.47875 3.625,3.71875 -0.35,1.1 -0.66625,2.225 -0.90625,3.375 -1.28,-1.16 -2.5025,-2.30875 -3.8125,-3.46875 0.25,-0.94 0.50125,-1.87125 0.78125,-2.78125 0.1,-0.28 0.2025,-0.56375 0.3125,-0.84375 z m -34.6875,0.03125 c 1.89,0.83 3.83375,1.6825 5.84375,2.5625 -0.66,1.78 -1.255,3.6525 -1.875,5.5625 -2.09,-0.77 -4.11,-1.53125 -6,-2.28125 0.66,-2.05 1.30125,-3.96375 2.03125,-5.84375 z m 32.4375,13.21875 c 1.73,0.92 3.32125,1.85125 5.03125,2.78125 0.14,1.28 0.32375,2.58625 0.59375,3.90625 -1.88,-0.83 -3.58125,-1.67 -5.53125,-2.5 -0.09,-1.38 -0.13375,-2.7875 -0.0937,-4.1875 z m -39.40625,10.15625 c 1.92,0.42 4.2225,0.84 6.8125,1.25 -0.56,2.12 -1.0925,4.31375 -1.5625,6.59375 -2.82,-0.26 -5.24375,-0.53375 -7.09375,-0.84375 0.53,-2.42 1.17375,-4.75 1.84375,-7 z m 41.53125,6.84375 c 2.42,0.45 4.31625,0.87 6.40625,1.25 0.54,1.39 1.13,2.787497 1.75,4.187493 -2.09,-0.15 -3.9675,-0.33375 -6.4375,-0.59375 -0.63,-1.639996 -1.20875,-3.263743 -1.71875,-4.843743 z m -40.71875,18.499985 8.25,0 c 2.39,0 4.3125,1.9225 4.3125,4.3125 l 0,2.21875 c 0,2.16 -1.5125,3.91 -3.5625,4.25 l 4.03125,5.375 -5.125,0 -3.59375,-4.75 0,4.75 -4.3125,0 0,-16.15625 z m 21.5,0 3.9375,0 c 2.39,0 4.33375,1.95375 4.34375,4.34375 l 0,11.8125 -4.3125,0 0,-3.1875 -3.96875,0 0,3.1875 -4.3125,0 0,-11.84375 c 0,-2.4 1.9125,-4.3125 4.3125,-4.3125 z m 12.96875,0 4.34375,0 0,16.15625 -4.34375,0 0,-16.15625 z m 9.0625,0 4.34375,0 0,11.84375 6.40625,0 0,4.3125 -10.75,0 0,-16.15625 z m 17.65625,0 7.46875,0 0,4.03125 -7.46875,0 0,1.75 3.9375,0 c 2.4,0 4.3025,1.9225 4.3125,4.3125 l 0,1.75 c 0,2.4 -1.88125,4.3125 -4.28125,4.3125 l -8,0 0,-4.03125 8,0 0,-2.03125 -3.9375,0 c -2.4,0 -4.375,-1.89125 -4.375,-4.28125 l 0,-1.46875 c 0,-2.39 1.94375,-4.34375 4.34375,-4.34375 z m -56.90625,4.3125 0,3.28125 3.96875,0 0,-3.28125 -3.96875,0 z m 17.21875,0 0,4.375 3.96875,0 0,-4.375 -3.96875,0 z"
     style="fill:#b1d874;fill-opacity:1" /><path
     style="fill:#89a95c;fill-opacity:1"
     d="m 177.60436,13.050386 c -6.38,0 -11.59375,5.21375 -11.59375,11.59375 l 0,98.906234 c 0,0.23 0.0212,0.4575 0.0312,0.6875 l 75.59375,0 c 6.37,0 11.59375,-5.21375 11.59375,-11.59375 l 0,-98.906234 c 0,-0.23 -0.0213,-0.4575 -0.0312,-0.6875 l -75.59375,0 z m 43.34375,5.21875 c 1.67,-0.03 3.36125,0.0725 5.03125,0.3125 0.34,1.08 0.66,2.14875 1,3.21875 -1.52,-0.13 -3.03125,-0.12 -4.53125,0 -0.5,-1.17 -1,-2.35125 -1.5,-3.53125 z m -12.25,2.34375 c 1.02,1.29 2.00875,2.585 2.96875,3.875 -1.3,0.72 -2.55,1.5375 -3.75,2.4375 -1.14,-1.29 -2.3,-2.56375 -3.5,-3.84375 1.37,-0.92 2.80125,-1.75875 4.28125,-2.46875 z m 17.75,2.9375 c 8.14442,0.08365 16.29375,3.209375 22.40625,9.59375 -0.34,0.71 -0.65875,1.415 -0.96875,2.125 -18.05,-10.65 -30.20625,2.4725 -33.90625,15.8125 -0.31,0.88 -0.62625,1.7675 -0.90625,2.6875 0.03,0.03 0.095,0.06375 0.125,0.09375 -0.93,3.42 -1.545,7.01375 -1.625,10.59375 -0.05,-0.03 -0.10625,-0.0325 -0.15625,-0.0625 -0.01,1.39 0.0787,2.77875 0.21875,4.21875 0.02,0.01 0.0212,0.02125 0.0312,0.03125 1.08,8.53 2.7325,16.911247 6.0625,25.031243 l -36.53125,0 c 0.71,-21.039993 6.1525,-42.806243 20.5625,-59.156243 5.87,-6.845 14.385,-10.59625 23.0625,-10.9375 0.54234,-0.02133 1.08204,-0.03683 1.625,-0.03125 z m -33.6875,9.03125 c 1.57,1.16 3.15875,2.34125 4.71875,3.53125 -1,1.33 -1.97625,2.7175 -2.90625,4.1875 -1.69,-1.12 -3.3825,-2.20125 -5.0625,-3.28125 1.04,-1.55 2.12,-3.0375 3.25,-4.4375 z m 46.5625,0.9375 c 1.11,0.14 2.255,0.3875 3.375,0.6875 -0.04,0.5 -0.0638,0.96875 -0.0937,1.46875 -1.06,-0.14 -2.095,-0.16625 -3.125,-0.15625 -0.05,-0.66 -0.11625,-1.34 -0.15625,-2 z m -8.6875,0.5625 c 0.33,1.03 0.63875,2.07375 0.96875,3.09375 -0.9,0.39 -1.76375,0.82375 -2.59375,1.34375 -0.44,-1.12 -0.88375,-2.21375 -1.34375,-3.34375 0.95,-0.43 1.95875,-0.81375 2.96875,-1.09375 z m -9.15625,6.03125 c 0.83,1.28 1.61625,2.57375 2.40625,3.84375 -0.61,0.81 -1.17875,1.6625 -1.71875,2.5625 -0.91,-1.3 -1.83125,-2.60625 -2.78125,-3.90625 0.66,-0.89 1.35375,-1.72 2.09375,-2.5 z m -5.84375,11.21875 c 1.24,1.24 2.445,2.47875 3.625,3.71875 -0.35,1.1 -0.66625,2.225 -0.90625,3.375 -1.28,-1.16 -2.5025,-2.30875 -3.8125,-3.46875 0.25,-0.94 0.50125,-1.87125 0.78125,-2.78125 0.1,-0.28 0.2025,-0.56375 0.3125,-0.84375 z m -34.6875,0.03125 c 1.89,0.83 3.83375,1.6825 5.84375,2.5625 -0.66,1.78 -1.255,3.6525 -1.875,5.5625 -2.09,-0.77 -4.11,-1.53125 -6,-2.28125 0.66,-2.05 1.30125,-3.96375 2.03125,-5.84375 z m 32.4375,13.21875 c 1.73,0.92 3.32125,1.85125 5.03125,2.78125 0.14,1.28 0.32375,2.58625 0.59375,3.90625 -1.88,-0.83 -3.58125,-1.67 -5.53125,-2.5 -0.09,-1.38 -0.13375,-2.7875 -0.0937,-4.1875 z m -39.40625,10.15625 c 1.92,0.42 4.2225,0.84 6.8125,1.25 -0.56,2.12 -1.0925,4.31375 -1.5625,6.59375 -2.82,-0.26 -5.24375,-0.53375 -7.09375,-0.84375 0.53,-2.42 1.17375,-4.75 1.84375,-7 z m 41.53125,6.84375 c 2.42,0.45 4.31625,0.87 6.40625,1.25 0.54,1.39 1.13,2.787497 1.75,4.187493 -2.09,-0.15 -3.9675,-0.33375 -6.4375,-0.59375 -0.63,-1.639996 -1.20875,-3.263743 -1.71875,-4.843743 z m -40.71875,18.499984 8.25,0 c 2.39,0 4.3125,1.9225 4.3125,4.3125 l 0,2.21875 c 0,2.16 -1.5125,3.91 -3.5625,4.25 l 4.03125,5.375 -5.125,0 -3.59375,-4.75 0,4.75 -4.3125,0 0,-16.15625 z m 21.5,0 3.9375,0 c 2.39,0 4.33375,1.95375 4.34375,4.34375 l 0,11.8125 -4.3125,0 0,-3.1875 -3.96875,0 0,3.1875 -4.3125,0 0,-11.84375 c 0,-2.4 1.9125,-4.3125 4.3125,-4.3125 z m 12.96875,0 4.34375,0 0,16.15625 -4.34375,0 0,-16.15625 z m 9.0625,0 4.34375,0 0,11.84375 6.40625,0 0,4.3125 -10.75,0 0,-16.15625 z m 17.65625,0 7.46875,0 0,4.03125 -7.46875,0 0,1.75 3.9375,0 c 2.4,0 4.3025,1.9225 4.3125,4.3125 l 0,1.75 c 0,2.4 -1.88125,4.3125 -4.28125,4.3125 l -8,0 0,-4.03125 8,0 0,-2.03125 -3.9375,0 c -2.4,0 -4.375,-1.89125 -4.375,-4.28125 l 0,-1.46875 c 0,-2.39 1.94375,-4.34375 4.34375,-4.34375 z m -56.90625,4.3125 0,3.28125 3.96875,0 0,-3.28125 -3.96875,0 z m 17.21875,0 0,4.375 3.96875,0 0,-4.375 -3.96875,0 z"
     id="path4668"
     inkscape:connector-curvature="0" /><path
     inkscape:connector-curvature="0"
     id="path308"
     d="m 177.60436,12.696795 c -6.38,0 -11.59375,5.21375 -11.59375,11.59375 l 0,98.906235 c 0,0.23 0.0212,0.4575 0.0312,0.6875 l 75.59375,0 c 6.37,0 11.59375,-5.21375 11.59375,-11.59375 l 0,-98.906235 c 0,-0.23 -0.0213,-0.4575 -0.0312,-0.6875 l -75.59375,0 z m 43.34375,5.21875 c 1.67,-0.03 3.36125,0.0725 5.03125,0.3125 0.34,1.08 0.66,2.14875 1,3.21875 -1.52,-0.13 -3.03125,-0.12 -4.53125,0 -0.5,-1.17 -1,-2.35125 -1.5,-3.53125 z m -12.25,2.34375 c 1.02,1.29 2.00875,2.585 2.96875,3.875 -1.3,0.72 -2.55,1.5375 -3.75,2.4375 -1.14,-1.29 -2.3,-2.56375 -3.5,-3.84375 1.37,-0.92 2.80125,-1.75875 4.28125,-2.46875 z m 17.75,2.9375 c 8.14442,0.08365 16.29375,3.209375 22.40625,9.59375 -0.34,0.71 -0.65875,1.415 -0.96875,2.125 -18.05,-10.65 -30.20625,2.4725 -33.90625,15.8125 -0.31,0.88 -0.62625,1.7675 -0.90625,2.6875 0.03,0.03 0.095,0.06375 0.125,0.09375 -0.93,3.42 -1.545,7.01375 -1.625,10.59375 -0.05,-0.03 -0.10625,-0.0325 -0.15625,-0.0625 -0.01,1.39 0.0787,2.77875 0.21875,4.21875 0.02,0.01 0.0212,0.02125 0.0312,0.03125 1.08,8.53 2.7325,16.911247 6.0625,25.031243 l -36.53125,0 c 0.71,-21.039993 6.1525,-42.806243 20.5625,-59.156243 5.87,-6.845 14.385,-10.59625 23.0625,-10.9375 0.54234,-0.02133 1.08204,-0.03683 1.625,-0.03125 z m -33.6875,9.03125 c 1.57,1.16 3.15875,2.34125 4.71875,3.53125 -1,1.33 -1.97625,2.7175 -2.90625,4.1875 -1.69,-1.12 -3.3825,-2.20125 -5.0625,-3.28125 1.04,-1.55 2.12,-3.0375 3.25,-4.4375 z m 46.5625,0.9375 c 1.11,0.14 2.255,0.3875 3.375,0.6875 -0.04,0.5 -0.0638,0.96875 -0.0937,1.46875 -1.06,-0.14 -2.095,-0.16625 -3.125,-0.15625 -0.05,-0.66 -0.11625,-1.34 -0.15625,-2 z m -8.6875,0.5625 c 0.33,1.03 0.63875,2.07375 0.96875,3.09375 -0.9,0.39 -1.76375,0.82375 -2.59375,1.34375 -0.44,-1.12 -0.88375,-2.21375 -1.34375,-3.34375 0.95,-0.43 1.95875,-0.81375 2.96875,-1.09375 z m -9.15625,6.03125 c 0.83,1.28 1.61625,2.57375 2.40625,3.84375 -0.61,0.81 -1.17875,1.6625 -1.71875,2.5625 -0.91,-1.3 -1.83125,-2.60625 -2.78125,-3.90625 0.66,-0.89 1.35375,-1.72 2.09375,-2.5 z m -5.84375,11.21875 c 1.24,1.24 2.445,2.47875 3.625,3.71875 -0.35,1.1 -0.66625,2.225 -0.90625,3.375 -1.28,-1.16 -2.5025,-2.30875 -3.8125,-3.46875 0.25,-0.94 0.50125,-1.87125 0.78125,-2.78125 0.1,-0.28 0.2025,-0.56375 0.3125,-0.84375 z m -34.6875,0.03125 c 1.89,0.83 3.83375,1.6825 5.84375,2.5625 -0.66,1.78 -1.255,3.6525 -1.875,5.5625 -2.09,-0.77 -4.11,-1.53125 -6,-2.28125 0.66,-2.05 1.30125,-3.96375 2.03125,-5.84375 z m 32.4375,13.21875 c 1.73,0.92 3.32125,1.85125 5.03125,2.78125 0.14,1.28 0.32375,2.58625 0.59375,3.90625 -1.88,-0.83 -3.58125,-1.67 -5.53125,-2.5 -0.09,-1.38 -0.13375,-2.7875 -0.0937,-4.1875 z m -39.40625,10.15625 c 1.92,0.42 4.2225,0.84 6.8125,1.25 -0.56,2.12 -1.0925,4.31375 -1.5625,6.59375 -2.82,-0.26 -5.24375,-0.53375 -7.09375,-0.84375 0.53,-2.42 1.17375,-4.75 1.84375,-7 z m 41.53125,6.84375 c 2.42,0.45 4.31625,0.87 6.40625,1.25 0.54,1.39 1.13,2.787497 1.75,4.187493 -2.09,-0.15 -3.9675,-0.33375 -6.4375,-0.59375 -0.63,-1.639996 -1.20875,-3.263743 -1.71875,-4.843743 z m -40.71875,18.499987 8.25,0 c 2.39,0 4.3125,1.922498 4.3125,4.312498 l 0,2.21875 c 0,2.16 -1.5125,3.91 -3.5625,4.25 l 4.03125,5.375 -5.125,0 -3.59375,-4.75 0,4.75 -4.3125,0 0,-16.156248 z m 21.5,0 3.9375,0 c 2.39,0 4.33375,1.953748 4.34375,4.343748 l 0,11.8125 -4.3125,0 0,-3.1875 -3.96875,0 0,3.1875 -4.3125,0 0,-11.84375 c 0,-2.4 1.9125,-4.312498 4.3125,-4.312498 z m 12.96875,0 4.34375,0 0,16.156248 -4.34375,0 0,-16.156248 z m 9.0625,0 4.34375,0 0,11.843748 6.40625,0 0,4.3125 -10.75,0 0,-16.156248 z m 17.65625,0 7.46875,0 0,4.031248 -7.46875,0 0,1.75 3.9375,0 c 2.4,0 4.3025,1.9225 4.3125,4.3125 l 0,1.75 c 0,2.4 -1.88125,4.3125 -4.28125,4.3125 l -8,0 0,-4.03125 8,0 0,-2.03125 -3.9375,0 c -2.4,0 -4.375,-1.89125 -4.375,-4.28125 l 0,-1.46875 c 0,-2.39 1.94375,-4.343748 4.34375,-4.343748 z m -56.90625,4.312498 0,3.28125 3.96875,0 0,-3.28125 -3.96875,0 z m 17.21875,0 0,4.375 3.96875,0 0,-4.375 -3.96875,0 z"
     style="fill:#4c5f3d;fill-opacity:1" /></g>
</svg>