<?xml version="1.0" encoding="UTF-8" standalone="no"?>
<!-- Created with Inkscape (http://www.inkscape.org/) -->

<svg
   xmlns:dc="http://purl.org/dc/elements/1.1/"
   xmlns:cc="http://creativecommons.org/ns#"
   xmlns:rdf="http://www.w3.org/1999/02/22-rdf-syntax-ns#"
   xmlns:svg="http://www.w3.org/2000/svg"
   xmlns="http://www.w3.org/2000/svg"
   version="1.1"
   width="334.66025"
   height="381.66898"
   viewBox="0 0 334.66025 381.66898"
   id="Layer_1"
   xml:space="preserve"><metadata
   id="metadata29"><rdf:RDF><cc:Work
       rdf:about=""><dc:format>image/svg+xml</dc:format><dc:type
         rdf:resource="http://purl.org/dc/dcmitype/StillImage" /><dc:title></dc:title></cc:Work></rdf:RDF></metadata><defs
   id="defs27">
	
	
	
	
</defs>
<path
   d="m 112.00624,156.65697 h 55.338 v -42.92 h -59.169 l 3.831,42.92 z M 0.030237,1.962955 30.500236,343.70297 l 136.762004,37.966 136.891,-37.948 30.507,-341.758015 H 0.030237 z m 278.008003,319.999015 -110.694,30.687 v -43.494 l -0.067,0.02 -85.858004,-23.835 -6.004,-67.298 h 42.075004 l 3.116,34.914 46.68,12.607 0.059,-0.019 v -66.973 H 73.676236 L 62.370236,71.821966 H 167.34424 V 29.907963 h 136.766 l -26.072,292.054007 z"
   id="path3870"
   style="fill:#b1d874;fill-opacity:1" /><path
   d="m 218.93624,198.57097 h -51.592 v 66.974 l 46.728,-12.613 4.864,-54.361 z m -51.592,-168.663007 v 41.914003 h 104.975 l -3.754,41.915004 h -101.221 v 42.92 h 97.406 l -11.499,128.683 -85.907,23.815 v 43.494 l 110.694,-30.687 26.071,-292.055007 h -136.765 z"
   id="path3872"
   style="fill:#cbe5a3;fill-opacity:1" /><path
   d="m 111.976,155.65246 h 55.338 v -42.92 h -59.169 l 3.831,42.92 z M 0,0.958461 30.469996,342.69846 167.232,380.66446 304.123,342.71646 334.63,0.958461 H 0 z m 278.008,319.998999 -110.694,30.687 v -43.494 l -0.067,0.02 -85.858004,-23.835 -6.004,-67.298 H 117.46 l 3.116,34.914 46.68,12.607 0.059,-0.019 v -66.973 H 73.645996 L 62.339996,70.817456 H 167.314 V 28.903457 H 304.08 L 278.008,320.95746 z"
   id="path3866"
   style="fill:#89a95c;fill-opacity:1" /><path
   d="m 218.906,197.56646 h -51.592 v 66.974 l 46.728,-12.613 4.864,-54.361 z M 167.314,28.903457 v 41.913999 h 104.975 l -3.754,41.915004 H 167.314 v 42.92 h 97.406 l -11.499,128.683 -85.907,23.815 v 43.494 l 110.694,-30.687 26.071,-292.055003 H 167.314 z"
   id="path3868"
   style="fill:#a5bd83;fill-opacity:1" /><path
   d="m 112.00624,154.694 h 55.338 v -42.92 h -59.169 l 3.831,42.92 z M 0.030237,0 30.500236,341.74 167.26224,379.706 304.15324,341.758 334.66024,0 H 0.030237 z m 278.008003,319.999 -110.694,30.687 v -43.494 l -0.067,0.02 -85.858004,-23.835 -6.004,-67.298 h 42.075004 l 3.116,34.914 46.68,12.607 0.059,-0.019 V 196.608 H 73.676236 L 62.370236,69.858996 H 167.34424 V 27.945 h 136.766 l -26.072,292.054 z"
   id="path15"
   style="fill:#4c5f3d;fill-opacity:1" /><path
   d="m 218.93624,196.608 h -51.592 v 66.974 l 46.728,-12.613 4.864,-54.361 z m -51.592,-168.663 v 41.913996 h 104.975 l -3.754,41.915004 h -101.221 v 42.92 h 97.406 l -11.499,128.683 -85.907,23.815 v 43.494 l 110.694,-30.687 26.071,-292.055 h -136.765 z"
   id="path17"
   style="fill:#698355;fill-opacity:1" /><g
   transform="translate(-88.655764,-111.982)"
   id="g19"
   style="opacity:0.2">
		<polygon
   points="151.025,181.841 162.331,308.59 256,308.59 256,266.676 200.662,266.676 196.831,223.756 256,223.756 256,181.841 "
   id="polygon21"
   style="fill:#231f20" />
		<polygon
   points="255.941,375.582 209.262,362.975 206.146,328.061 164.07,328.061 170.074,395.358 255.933,419.193 256,419.174 256,375.563 "
   id="polygon23"
   style="fill:#231f20" />
	</g>
</svg>