<?xml version="1.0" encoding="UTF-8" standalone="no"?>
<!-- Created with Inkscape (http://www.inkscape.org/) -->

<svg
   xmlns:dc="http://purl.org/dc/elements/1.1/"
   xmlns:cc="http://creativecommons.org/ns#"
   xmlns:rdf="http://www.w3.org/1999/02/22-rdf-syntax-ns#"
   xmlns:svg="http://www.w3.org/2000/svg"
   xmlns="http://www.w3.org/2000/svg"
   xmlns:sodipodi="http://sodipodi.sourceforge.net/DTD/sodipodi-0.dtd"
   xmlns:inkscape="http://www.inkscape.org/namespaces/inkscape"
   version="1.0"
   width="100.99081"
   height="80"
   viewBox="0 0 80.792645 64.000002"
   id="svg2"
   inkscape:version="0.48.2 r9819"
   sodipodi:docname="skills-coffeescript.svg"
   inkscape:export-filename="/Users/sdecaste/devel/gorillasoftware/source/images/skills-coffeescript.png"
   inkscape:export-xdpi="49.267742"
   inkscape:export-ydpi="49.267742">
  <sodipodi:namedview
     pagecolor="#ffffff"
     bordercolor="#666666"
     borderopacity="1"
     objecttolerance="10"
     gridtolerance="10"
     guidetolerance="10"
     inkscape:pageopacity="0"
     inkscape:pageshadow="2"
     inkscape:window-width="1366"
     inkscape:window-height="720"
     id="namedview18"
     showgrid="false"
     fit-margin-top="0"
     fit-margin-left="0"
     fit-margin-right="0"
     fit-margin-bottom="0"
     inkscape:zoom="1.614887"
     inkscape:cx="-54.465505"
     inkscape:cy="39.999996"
     inkscape:window-x="0"
     inkscape:window-y="0"
     inkscape:window-maximized="1"
     inkscape:current-layer="svg2" />
  <defs
     id="defs30" />
  <metadata
     id="metadata4">
Created by potrace 1.10, written by Peter Selinger 2001-2011
<rdf:RDF>
  <cc:Work
     rdf:about="">
    <dc:format>image/svg+xml</dc:format>
    <dc:type
       rdf:resource="http://purl.org/dc/dcmitype/StillImage" />
    <dc:title />
  </cc:Work>
</rdf:RDF>
</metadata>
  <g
     transform="matrix(0.54741935,0,0,0.54741935,-35.554889,-31.98725)"
     id="g3820">
    <g
       transform="translate(0,0.34501138)"
       id="g3812"
       style="fill:#b1d874;fill-opacity:1">
      <path
         d="m 144.3,61.6 c -2.8,0.7 -6.8,2.3 -8.9,3.5 -2.2,1.2 -5.8,3.3 -8.2,4.7 -5.6,3.2 -15.1,4.1 -17.5,1.7 -2.2,-2.2 -2.1,-3.2 0.4,-4.6 1.4,-0.7 4.3,-0.9 8,-0.5 4.8,0.6 5.9,0.4 5.9,-0.8 0,-1.8 -5.1,-3.6 -8.7,-3 -8,1.2 -9.2,1.6 -10.2,2.8 -2.4,2.9 -2.1,5.8 0.9,8.6 6.6,6.2 18.1,6.1 31.4,-0.4 11.1,-5.4 16.4,-6.9 23.7,-6.8 6.5,0 9.9,1.4 9.9,4.1 0,4.2 -12.8,5.8 -16.9,2 -2.1,-1.9 -2.3,-2 -4.6,-0.5 -3,1.9 -3.1,2.8 -0.7,4.8 2.4,2.2 5.3,2.9 11.6,3 10.7,0.2 18.6,-3.6 18.6,-9.1 0,-8.8 -18,-13.8 -34.7,-9.5 z"
         id="path3814"
         style="fill:#b1d874;fill-opacity:1;stroke:none"
         inkscape:connector-curvature="0" />
      <path
         d="m 78.5,70.7 c -7.3,3.8 -8.4,7.5 -3.5,11.6 4,3.4 11.5,6.1 24,8.6 14.8,2.9 22.7,3.5 45.5,3.4 28.4,-0.1 48.9,-3.3 61.4,-9.5 7.7,-3.9 8.5,-9.4 1.9,-13.3 -2.9,-1.7 -3,-1.7 -2.4,0.2 0.9,2.9 -0.2,5 -3.9,7.3 -3.6,2.2 -15.7,5.6 -23.2,6.5 -2.7,0.3 -5.9,0.8 -7.3,1.1 -5.3,1.3 -47.5,1.1 -57.5,-0.2 C 96.8,84.2 85.3,80.5 82,76.2 c -1.9,-2.3 -1.9,-2.7 -0.5,-4.9 1.8,-2.7 1.1,-2.8 -3,-0.6 z"
         id="path3816"
         style="fill:#b1d874;fill-opacity:1;stroke:none"
         inkscape:connector-curvature="0" />
      <path
         d="m 73.4,92.7 c 0.3,2.3 1.5,7.6 2.7,11.7 l 2.2,7.5 -5.1,5.5 c -11,12.1 -11,27.6 0,37.1 6.5,5.5 17.4,6.7 24.4,2.7 1.7,-1 1.6,-1.1 -0.9,-1.2 -5.4,0 -13.8,-5.8 -17.8,-12 -2.1,-3.2 -3.7,-10.6 -3.2,-14.4 0.5,-3.3 4,-10.6 5.1,-10.6 0.4,0 1.7,2.2 2.9,4.8 1.3,2.7 5.7,9.8 10,15.8 6.9,9.7 12.2,19.7 12.3,23.1 0,2.5 7.8,7.4 15.3,9.8 6.6,2.1 9.7,2.5 20.9,2.5 24.2,0 35.5,-5.2 39.1,-18 0.9,-3 3.6,-8.2 6,-11.5 12.3,-17 14.7,-21.1 19,-33 1.4,-3.9 3.2,-10.2 4.2,-14 0.9,-3.9 1.8,-7.6 2,-8.2 0.3,-0.7 -1.2,-0.2 -3.3,1.2 -5.4,3.6 -14,6.4 -24.8,8.1 -2,0.3 -4.6,0.8 -5.8,1 -9.6,1.9 -49.2,2.7 -63.1,1.1 C 95.6,99.5 80.6,95.4 75.1,90.6 l -2.3,-2.1 0.6,4.2 z"
         id="path3818"
         style="fill:#b1d874;fill-opacity:1;stroke:none"
         inkscape:connector-curvature="0" />
    </g>
    <g
       transform="translate(0,-0.6874384)"
       id="g3799"
       style="fill:#89a95c;fill-opacity:1">
      <path
         d="m 144.3,61.6 c -2.8,0.7 -6.8,2.3 -8.9,3.5 -2.2,1.2 -5.8,3.3 -8.2,4.7 -5.6,3.2 -15.1,4.1 -17.5,1.7 -2.2,-2.2 -2.1,-3.2 0.4,-4.6 1.4,-0.7 4.3,-0.9 8,-0.5 4.8,0.6 5.9,0.4 5.9,-0.8 0,-1.8 -5.1,-3.6 -8.7,-3 -8,1.2 -9.2,1.6 -10.2,2.8 -2.4,2.9 -2.1,5.8 0.9,8.6 6.6,6.2 18.1,6.1 31.4,-0.4 11.1,-5.4 16.4,-6.9 23.7,-6.8 6.5,0 9.9,1.4 9.9,4.1 0,4.2 -12.8,5.8 -16.9,2 -2.1,-1.9 -2.3,-2 -4.6,-0.5 -3,1.9 -3.1,2.8 -0.7,4.8 2.4,2.2 5.3,2.9 11.6,3 10.7,0.2 18.6,-3.6 18.6,-9.1 0,-8.8 -18,-13.8 -34.7,-9.5 z"
         id="path8"
         style="fill:#89a95c;fill-opacity:1;stroke:none"
         inkscape:connector-curvature="0" />
      <path
         d="m 78.5,70.7 c -7.3,3.8 -8.4,7.5 -3.5,11.6 4,3.4 11.5,6.1 24,8.6 14.8,2.9 22.7,3.5 45.5,3.4 28.4,-0.1 48.9,-3.3 61.4,-9.5 7.7,-3.9 8.5,-9.4 1.9,-13.3 -2.9,-1.7 -3,-1.7 -2.4,0.2 0.9,2.9 -0.2,5 -3.9,7.3 -3.6,2.2 -15.7,5.6 -23.2,6.5 -2.7,0.3 -5.9,0.8 -7.3,1.1 -5.3,1.3 -47.5,1.1 -57.5,-0.2 C 96.8,84.2 85.3,80.5 82,76.2 c -1.9,-2.3 -1.9,-2.7 -0.5,-4.9 1.8,-2.7 1.1,-2.8 -3,-0.6 z"
         id="path14"
         style="fill:#89a95c;fill-opacity:1;stroke:none"
         inkscape:connector-curvature="0" />
      <path
         d="m 73.4,92.7 c 0.3,2.3 1.5,7.6 2.7,11.7 l 2.2,7.5 -5.1,5.5 c -11,12.1 -11,27.6 0,37.1 6.5,5.5 17.4,6.7 24.4,2.7 1.7,-1 1.6,-1.1 -0.9,-1.2 -5.4,0 -13.8,-5.8 -17.8,-12 -2.1,-3.2 -3.7,-10.6 -3.2,-14.4 0.5,-3.3 4,-10.6 5.1,-10.6 0.4,0 1.7,2.2 2.9,4.8 1.3,2.7 5.7,9.8 10,15.8 6.9,9.7 12.2,19.7 12.3,23.1 0,2.5 7.8,7.4 15.3,9.8 6.6,2.1 9.7,2.5 20.9,2.5 24.2,0 35.5,-5.2 39.1,-18 0.9,-3 3.6,-8.2 6,-11.5 12.3,-17 14.7,-21.1 19,-33 1.4,-3.9 3.2,-10.2 4.2,-14 0.9,-3.9 1.8,-7.6 2,-8.2 0.3,-0.7 -1.2,-0.2 -3.3,1.2 -5.4,3.6 -14,6.4 -24.8,8.1 -2,0.3 -4.6,0.8 -5.8,1 -9.6,1.9 -49.2,2.7 -63.1,1.1 C 95.6,99.5 80.6,95.4 75.1,90.6 l -2.3,-2.1 0.6,4.2 z"
         id="path22"
         style="fill:#89a95c;fill-opacity:1;stroke:none"
         inkscape:connector-curvature="0" />
    </g>
    <g
       transform="translate(0,-1.6)"
       id="g3804"
       style="fill:#4c5f3d;fill-opacity:1">
      <path
         d="m 144.3,61.6 c -2.8,0.7 -6.8,2.3 -8.9,3.5 -2.2,1.2 -5.8,3.3 -8.2,4.7 -5.6,3.2 -15.1,4.1 -17.5,1.7 -2.2,-2.2 -2.1,-3.2 0.4,-4.6 1.4,-0.7 4.3,-0.9 8,-0.5 4.8,0.6 5.9,0.4 5.9,-0.8 0,-1.8 -5.1,-3.6 -8.7,-3 -8,1.2 -9.2,1.6 -10.2,2.8 -2.4,2.9 -2.1,5.8 0.9,8.6 6.6,6.2 18.1,6.1 31.4,-0.4 11.1,-5.4 16.4,-6.9 23.7,-6.8 6.5,0 9.9,1.4 9.9,4.1 0,4.2 -12.8,5.8 -16.9,2 -2.1,-1.9 -2.3,-2 -4.6,-0.5 -3,1.9 -3.1,2.8 -0.7,4.8 2.4,2.2 5.3,2.9 11.6,3 10.7,0.2 18.6,-3.6 18.6,-9.1 0,-8.8 -18,-13.8 -34.7,-9.5 z"
         id="path3806"
         style="fill:#4c5f3d;fill-opacity:1;stroke:none"
         inkscape:connector-curvature="0" />
      <path
         d="m 78.5,70.7 c -7.3,3.8 -8.4,7.5 -3.5,11.6 4,3.4 11.5,6.1 24,8.6 14.8,2.9 22.7,3.5 45.5,3.4 28.4,-0.1 48.9,-3.3 61.4,-9.5 7.7,-3.9 8.5,-9.4 1.9,-13.3 -2.9,-1.7 -3,-1.7 -2.4,0.2 0.9,2.9 -0.2,5 -3.9,7.3 -3.6,2.2 -15.7,5.6 -23.2,6.5 -2.7,0.3 -5.9,0.8 -7.3,1.1 -5.3,1.3 -47.5,1.1 -57.5,-0.2 C 96.8,84.2 85.3,80.5 82,76.2 c -1.9,-2.3 -1.9,-2.7 -0.5,-4.9 1.8,-2.7 1.1,-2.8 -3,-0.6 z"
         id="path3808"
         style="fill:#4c5f3d;fill-opacity:1;stroke:none"
         inkscape:connector-curvature="0" />
      <path
         d="m 73.4,92.7 c 0.3,2.3 1.5,7.6 2.7,11.7 l 2.2,7.5 -5.1,5.5 c -11,12.1 -11,27.6 0,37.1 6.5,5.5 17.4,6.7 24.4,2.7 1.7,-1 1.6,-1.1 -0.9,-1.2 -5.4,0 -13.8,-5.8 -17.8,-12 -2.1,-3.2 -3.7,-10.6 -3.2,-14.4 0.5,-3.3 4,-10.6 5.1,-10.6 0.4,0 1.7,2.2 2.9,4.8 1.3,2.7 5.7,9.8 10,15.8 6.9,9.7 12.2,19.7 12.3,23.1 0,2.5 7.8,7.4 15.3,9.8 6.6,2.1 9.7,2.5 20.9,2.5 24.2,0 35.5,-5.2 39.1,-18 0.9,-3 3.6,-8.2 6,-11.5 12.3,-17 14.7,-21.1 19,-33 1.4,-3.9 3.2,-10.2 4.2,-14 0.9,-3.9 1.8,-7.6 2,-8.2 0.3,-0.7 -1.2,-0.2 -3.3,1.2 -5.4,3.6 -14,6.4 -24.8,8.1 -2,0.3 -4.6,0.8 -5.8,1 -9.6,1.9 -49.2,2.7 -63.1,1.1 C 95.6,99.5 80.6,95.4 75.1,90.6 l -2.3,-2.1 0.6,4.2 z"
         id="path3810"
         style="fill:#4c5f3d;fill-opacity:1;stroke:none"
         inkscape:connector-curvature="0" />
    </g>
  </g>
</svg>
