<?xml version="1.0" encoding="UTF-8" standalone="no"?>
<!-- Created with Inkscape (http://www.inkscape.org/) -->

<svg
   xmlns:dc="http://purl.org/dc/elements/1.1/"
   xmlns:cc="http://creativecommons.org/ns#"
   xmlns:rdf="http://www.w3.org/1999/02/22-rdf-syntax-ns#"
   xmlns:svg="http://www.w3.org/2000/svg"
   xmlns="http://www.w3.org/2000/svg"
   xmlns:sodipodi="http://sodipodi.sourceforge.net/DTD/sodipodi-0.dtd"
   xmlns:inkscape="http://www.inkscape.org/namespaces/inkscape"
   version="1.1"
   width="86.818977"
   height="100"
   id="svg2"
   xml:space="preserve"
   inkscape:version="0.48.2 r9819"
   sodipodi:docname="skills-nodejs.svg"
   inkscape:export-filename="/Users/sdecaste/devel/gorillasoftware/source/images/skills-nodejs.png"
   inkscape:export-xdpi="219.64041"
   inkscape:export-ydpi="219.64041"><sodipodi:namedview
     pagecolor="#ffffff"
     bordercolor="#666666"
     borderopacity="1"
     objecttolerance="10"
     gridtolerance="10"
     guidetolerance="10"
     inkscape:pageopacity="0"
     inkscape:pageshadow="2"
     inkscape:window-width="1366"
     inkscape:window-height="720"
     id="namedview14"
     showgrid="false"
     fit-margin-top="0"
     fit-margin-left="0"
     fit-margin-right="0"
     fit-margin-bottom="0"
     inkscape:zoom="5.7594596"
     inkscape:cx="13.979637"
     inkscape:cy="50"
     inkscape:window-x="0"
     inkscape:window-y="0"
     inkscape:window-maximized="1"
     inkscape:current-layer="svg2" /><metadata
     id="metadata8"><rdf:RDF><cc:Work
         rdf:about=""><dc:format>image/svg+xml</dc:format><dc:type
           rdf:resource="http://purl.org/dc/dcmitype/StillImage" /><dc:title></dc:title></cc:Work></rdf:RDF></metadata><defs
     id="defs6"><clipPath
       id="clipPath18"><path
         d="M 0,501.598 0,0 l 1863.85,0 0,501.598 -1863.85,0 z"
         id="path20"
         inkscape:connector-curvature="0" /></clipPath></defs><g
     transform="matrix(3.0505613,0,0,-3.0505613,-454.53275,93.898061)"
     id="g10"><path
       d="m 163.22671,-2.000268 c -0.43,0 -0.857,0.1125 -1.233,0.330078 l -3.927,2.32344 c -0.586,0.32773 -0.3,0.44414 -0.107,0.51133 0.783,0.27187 0.941,0.33437 1.776,0.80781 0.087,0.04883 0.202,0.03008 0.292,-0.02227 l 3.016,-1.79101 c 0.11,-0.06094 0.264,-0.06094 0.365,0 l 11.76,6.78789 c 0.11,0.0625 0.18,0.18828 0.18,0.31836 l 0,13.5723 c 0,0.1328 -0.07,0.257 -0.182,0.3242 l -11.756,6.782 c -0.109,0.0637 -0.253,0.0637 -0.363,0 l -11.753,-6.784 c -0.114,-0.0652 -0.186,-0.1933 -0.186,-0.3222 l 0,-13.5723 c 0,-0.13008 0.072,-0.25274 0.185,-0.31446 l 3.222,-1.86132 c 1.748,-0.87383 2.819,0.15546 2.819,1.18945 l 0,13.40043 c 0,0.1894 0.152,0.339 0.341,0.339 l 1.492,0 c 0.186,0 0.34,-0.1496 0.34,-0.339 l 0,-13.40043 c 0,-2.33281 -1.27,-3.6707 -3.482,-3.6707 -0.68,0 -1.215,0 -2.709,0.73632 l -3.084,1.77539 c -0.762,0.44024 -1.233,1.26368 -1.233,2.14532 l 0,13.5723 c 0,0.882 0.471,1.705 1.233,2.1433 l 11.761,6.7961 c 0.744,0.4207 1.733,0.4207 2.471,0 l 11.76,-6.7961 c 0.762,-0.4402 1.235,-1.2613 1.235,-2.1433 l 0,-13.5723 c 0,-0.88164 -0.473,-1.70196 -1.235,-2.14532 l -11.76,-6.79023 c -0.376,-0.217578 -0.802,-0.330078 -1.238,-0.330078"
       id="path3874"
       style="fill:#bfea78;fill-opacity:0.94117647;fill-rule:nonzero;stroke:none"
       inkscape:connector-curvature="0" /><path
       d="m 166.85971,7.35051 c -5.147,0 -6.225,2.36215 -6.225,4.34335 0,0.1887 0.152,0.3391 0.34,0.3391 l 1.521,0 c 0.17,0 0.311,-0.1223 0.338,-0.2879 0.229,-1.5481 0.914,-2.3293 4.026,-2.3293 2.477,0 3.532,0.5605 3.532,1.875 0,0.7578 -0.299,1.3203 -4.149,1.6973 -3.218,0.3183 -5.208,1.0292 -5.208,3.6035 0,2.373 2,3.7883 5.353,3.7883 3.768,0 5.632,-1.3079 5.868,-4.1133 0.009,-0.0969 -0.025,-0.1895 -0.089,-0.2617 -0.065,-0.0676 -0.155,-0.1086 -0.249,-0.1086 l -1.527,0 c -0.158,0 -0.298,0.1125 -0.33,0.2656 -0.366,1.6289 -1.257,2.1496 -3.673,2.1496 -2.705,0 -3.019,-0.9426 -3.019,-1.6484 0,-0.8555 0.371,-1.1047 4.023,-1.5879 3.614,-0.4778 5.331,-1.1543 5.331,-3.6946 0,-2.5625 -2.137,-4.03005 -5.863,-4.03005"
       id="path3876"
       style="fill:#bfea78;fill-opacity:0.94117647;fill-rule:nonzero;stroke:none"
       inkscape:connector-curvature="0" /><path
       d="m 163.22671,-1.652177 c -0.43,0 -0.857,0.1125 -1.233,0.330078 l -3.927,2.32344 c -0.586,0.32773 -0.3,0.44414 -0.107,0.51133 0.783,0.27187 0.941,0.33437 1.776,0.80781 0.087,0.04883 0.202,0.03008 0.292,-0.02227 l 3.016,-1.79101 c 0.11,-0.06094 0.264,-0.06094 0.365,0 l 11.76,6.78789 c 0.11,0.0625 0.18,0.18828 0.18,0.31836 l 0,13.5723 c 0,0.1328 -0.07,0.257 -0.182,0.3242 l -11.756,6.782 c -0.109,0.0637 -0.253,0.0637 -0.363,0 l -11.753,-6.784 c -0.114,-0.0652 -0.186,-0.1933 -0.186,-0.3222 l 0,-13.5723 c 0,-0.13008 0.072,-0.25274 0.185,-0.31446 l 3.222,-1.86132 c 1.748,-0.87383 2.819,0.15546 2.819,1.18945 l 0,13.40043 c 0,0.1894 0.152,0.339 0.341,0.339 l 1.492,0 c 0.186,0 0.34,-0.1496 0.34,-0.339 l 0,-13.40043 c 0,-2.33281 -1.27,-3.6707 -3.482,-3.6707 -0.68,0 -1.215,0 -2.709,0.73632 l -3.084,1.77539 c -0.762,0.44024 -1.233,1.26368 -1.233,2.14532 l 0,13.5723 c 0,0.882 0.471,1.705 1.233,2.1433 l 11.761,6.7961 c 0.744,0.4207 1.733,0.4207 2.471,0 l 11.76,-6.7961 c 0.762,-0.4402 1.235,-1.2613 1.235,-2.1433 l 0,-13.5723 c 0,-0.88164 -0.473,-1.70196 -1.235,-2.14532 l -11.76,-6.79023 c -0.376,-0.217578 -0.802,-0.330078 -1.238,-0.330078"
       id="path3854"
       style="fill:#96bb64;fill-opacity:1;fill-rule:nonzero;stroke:none"
       inkscape:connector-curvature="0" /><path
       d="m 166.85971,7.698601 c -5.147,0 -6.225,2.36215 -6.225,4.34335 0,0.1887 0.152,0.3391 0.34,0.3391 l 1.521,0 c 0.17,0 0.311,-0.1223 0.338,-0.2879 0.229,-1.5481 0.914,-2.3293 4.026,-2.3293 2.477,0 3.532,0.5605 3.532,1.875 0,0.7578 -0.299,1.3203 -4.149,1.6973 -3.218,0.3183 -5.208,1.0292 -5.208,3.6035 0,2.373 2,3.7883 5.353,3.7883 3.768,0 5.632,-1.3079 5.868,-4.1133 0.009,-0.0969 -0.025,-0.1895 -0.089,-0.2617 -0.065,-0.0676 -0.155,-0.1086 -0.249,-0.1086 l -1.527,0 c -0.158,0 -0.298,0.1125 -0.33,0.2656 -0.366,1.6289 -1.257,2.1496 -3.673,2.1496 -2.705,0 -3.019,-0.9426 -3.019,-1.6484 0,-0.8555 0.371,-1.1047 4.023,-1.5879 3.614,-0.4778 5.331,-1.1543 5.331,-3.6946 0,-2.5625 -2.137,-4.03005 -5.863,-4.03005"
       id="path3856"
       style="fill:#96bb64;fill-opacity:1;fill-rule:nonzero;stroke:none"
       inkscape:connector-curvature="0" /><path
       d="m 163.22671,-1.312268 c -0.43,0 -0.857,0.1125 -1.233,0.330078 l -3.927,2.32344 c -0.586,0.32773 -0.3,0.44414 -0.107,0.51133 0.783,0.27187 0.941,0.33437 1.776,0.80781 0.087,0.04883 0.202,0.03008 0.292,-0.02227 l 3.016,-1.79101 c 0.11,-0.06094 0.264,-0.06094 0.365,0 l 11.76,6.78789 c 0.11,0.0625 0.18,0.18828 0.18,0.31836 l 0,13.5723 c 0,0.1328 -0.07,0.257 -0.182,0.3242 l -11.756,6.782 c -0.109,0.0637 -0.253,0.0637 -0.363,0 l -11.753,-6.784 c -0.114,-0.0652 -0.186,-0.1933 -0.186,-0.3222 l 0,-13.5723 c 0,-0.13008 0.072,-0.25274 0.185,-0.31446 l 3.222,-1.86132 c 1.748,-0.87383 2.819,0.15546 2.819,1.18945 l 0,13.40043 c 0,0.1894 0.152,0.339 0.341,0.339 l 1.492,0 c 0.186,0 0.34,-0.1496 0.34,-0.339 l 0,-13.40043 c 0,-2.33281 -1.27,-3.6707 -3.482,-3.6707 -0.68,0 -1.215,0 -2.709,0.73632 l -3.084,1.77539 c -0.762,0.44024 -1.233,1.26368 -1.233,2.14532 l 0,13.5723 c 0,0.882 0.471,1.705 1.233,2.1433 l 11.761,6.7961 c 0.744,0.4207 1.733,0.4207 2.471,0 l 11.76,-6.7961 c 0.762,-0.4402 1.235,-1.2613 1.235,-2.1433 l 0,-13.5723 c 0,-0.88164 -0.473,-1.70196 -1.235,-2.14532 l -11.76,-6.79023 c -0.376,-0.217578 -0.802,-0.330078 -1.238,-0.330078"
       id="path30"
       style="fill:#4c5f3d;fill-opacity:1;fill-rule:nonzero;stroke:none"
       inkscape:connector-curvature="0" /><path
       d="m 166.85971,8.03851 c -5.147,0 -6.225,2.36215 -6.225,4.34335 0,0.1887 0.152,0.3391 0.34,0.3391 l 1.521,0 c 0.17,0 0.311,-0.1223 0.338,-0.2879 0.229,-1.5481 0.914,-2.3293 4.026,-2.3293 2.477,0 3.532,0.5605 3.532,1.875 0,0.7578 -0.299,1.3203 -4.149,1.6973 -3.218,0.3183 -5.208,1.0292 -5.208,3.6035 0,2.373 2,3.7883 5.353,3.7883 3.768,0 5.632,-1.3079 5.868,-4.1133 0.009,-0.0969 -0.025,-0.1895 -0.089,-0.2617 -0.065,-0.0676 -0.155,-0.1086 -0.249,-0.1086 l -1.527,0 c -0.158,0 -0.298,0.1125 -0.33,0.2656 -0.366,1.6289 -1.257,2.1496 -3.673,2.1496 -2.705,0 -3.019,-0.9426 -3.019,-1.6484 0,-0.8555 0.371,-1.1047 4.023,-1.5879 3.614,-0.4778 5.331,-1.1543 5.331,-3.6946 0,-2.5625 -2.137,-4.03005 -5.863,-4.03005"
       id="path32"
       style="fill:#4c5f3d;fill-opacity:1;fill-rule:nonzero;stroke:none"
       inkscape:connector-curvature="0" /></g></svg>