<?xml version="1.0" encoding="UTF-8" standalone="no"?>
<!-- Created with Inkscape (http://www.inkscape.org/) -->

<svg
   xmlns:dc="http://purl.org/dc/elements/1.1/"
   xmlns:cc="http://creativecommons.org/ns#"
   xmlns:rdf="http://www.w3.org/1999/02/22-rdf-syntax-ns#"
   xmlns:svg="http://www.w3.org/2000/svg"
   xmlns="http://www.w3.org/2000/svg"
   xmlns:sodipodi="http://sodipodi.sourceforge.net/DTD/sodipodi-0.dtd"
   xmlns:inkscape="http://www.inkscape.org/namespaces/inkscape"
   version="1.1"
   width="87.68338"
   height="100.00001"
   viewBox="0 0 87.683381 100.00001"
   id="Layer_1"
   xml:space="preserve"
   inkscape:version="0.48.2 r9819"
   sodipodi:docname="skills-html5.svg"
   inkscape:export-filename="/Users/sdecaste/devel/gorillasoftware/source/images/skills-html5.png"
   inkscape:export-xdpi="23.580643"
   inkscape:export-ydpi="23.580643"><sodipodi:namedview
   pagecolor="#ffffff"
   bordercolor="#666666"
   borderopacity="1"
   objecttolerance="10"
   gridtolerance="10"
   guidetolerance="10"
   inkscape:pageopacity="0"
   inkscape:pageshadow="2"
   inkscape:window-width="1366"
   inkscape:window-height="720"
   id="namedview14"
   showgrid="false"
   fit-margin-top="0"
   fit-margin-left="0"
   fit-margin-right="0"
   fit-margin-bottom="0"
   inkscape:zoom="0.61833687"
   inkscape:cx="-230.28073"
   inkscape:cy="49.999999"
   inkscape:window-x="0"
   inkscape:window-y="0"
   inkscape:window-maximized="1"
   inkscape:current-layer="Layer_1" /><metadata
   id="metadata29"><rdf:RDF><cc:Work
       rdf:about=""><dc:format>image/svg+xml</dc:format><dc:type
         rdf:resource="http://purl.org/dc/dcmitype/StillImage" /><dc:title></dc:title></cc:Work></rdf:RDF></metadata><defs
   id="defs27">
	
	
	
	
</defs>
<path
   d="m 29.346439,41.04525 h 14.49895 V 29.7999 h -15.5027 l 1.00375,11.24535 z M 0.00791927,0.51431 7.9912793,90.05264 43.823899,100.00001 79.690329,90.05736 87.683379,0.51431 H 0.00791927 z M 72.848009,84.35634 43.845389,92.39656 V 81.00082 l -0.0175,0.005 -22.49542,-6.24494 -1.57309,-17.63256 h 11.02395 l 0.81642,9.14772 12.23049,3.30312 0.0155,-0.005 v -17.5474 h -24.54195 l -2.96225,-33.20915 h 27.50394 V 7.83584 h 35.83367 l -6.83105,76.52024 z"
   id="path3870"
   style="fill:#b1d874;fill-opacity:1"
   inkscape:connector-curvature="0" /><path
   d="m 57.362859,52.02702 h -13.51747 v 17.54767 l 12.24307,-3.3047 1.2744,-14.24297 z M 43.845389,7.8361 v 10.98177 h 27.5042 l -0.98357,10.98203 h -26.52063 v 11.24535 h 25.52107 l -3.01282,33.71587 -22.50825,6.2397 v 11.39574 l 29.00262,-8.04022 6.83079,-76.5205 h -35.83341 z"
   id="path3872"
   style="fill:#cbe5a3;fill-opacity:1"
   inkscape:connector-curvature="0" /><path
   d="m 29.338509,40.78206 h 14.49896 V 29.53672 h -15.5027 l 1.00374,11.24534 z M -7.2953129e-7,0.25113 7.9833593,89.78945 43.815979,99.73682 79.682399,89.79417 87.675459,0.25113 H -7.2953132e-7 z M 72.840089,84.09316 43.837469,92.13337 V 80.73763 l -0.0176,0.005 -22.49541,-6.24494 -1.57309,-17.63256 h 11.02395 l 0.81642,9.14772 12.23049,3.30312 0.0155,-0.005 V 51.76356 h -24.54195 l -2.96225,-33.20915 h 27.50394 V 7.57292 h 35.83367 l -6.83105,76.52024 z"
   id="path3866"
   style="fill:#89a95c;fill-opacity:1"
   inkscape:connector-curvature="0" /><path
   d="M 57.354939,51.76383 H 43.837469 V 69.3115 l 12.24307,-3.3047 1.2744,-14.24297 z M 43.837469,7.57292 v 10.98176 h 27.5042 l -0.98358,10.98204 h -26.52062 v 11.24534 h 25.52107 l -3.01282,33.71587 -22.50825,6.2397 v 11.39574 l 29.00262,-8.04021 6.83079,-76.52051 h -35.83341 z"
   id="path3868"
   style="fill:#a5bd83;fill-opacity:1"
   inkscape:connector-curvature="0" /><path
   d="m 29.346439,40.53094 h 14.49895 V 29.28559 h -15.5027 l 1.00375,11.24535 z M 0.00791927,0 7.9912793,89.53833 43.823899,99.48569 79.690329,89.54305 87.683379,0 H 0.00791927 z M 72.848009,83.84203 43.845389,91.88225 V 80.48651 l -0.0175,0.005 -22.49542,-6.24494 -1.57309,-17.63256 h 11.02395 l 0.81642,9.14772 12.23049,3.30312 0.0155,-0.005 V 51.51245 H 19.303789 L 16.341539,18.3033 h 27.50394 V 7.32153 h 35.83367 l -6.83105,76.52024 z"
   id="path15"
   style="fill:#4c5f3d;fill-opacity:1"
   inkscape:connector-curvature="0" /><path
   d="m 57.362859,51.51271 h -13.51747 v 17.54766 l 12.24307,-3.30469 1.2744,-14.24297 z M 43.845389,7.32179 v 10.98177 h 27.5042 l -0.98357,10.98203 h -26.52063 v 11.24535 h 25.52107 l -3.01282,33.71587 -22.50825,6.2397 v 11.39574 l 29.00262,-8.04022 6.83079,-76.5205 h -35.83341 z"
   id="path17"
   style="fill:#698355;fill-opacity:1"
   inkscape:connector-curvature="0" /><g
   transform="matrix(0.26200716,0,0,0.26200716,-23.228441,-29.34008)"
   id="g19"
   style="opacity:0.2">
		<polygon
   points="200.662,266.676 196.831,223.756 256,223.756 256,181.841 151.025,181.841 162.331,308.59 256,308.59 256,266.676 "
   id="polygon21"
   style="fill:#231f20" />
		<polygon
   points="170.074,395.358 255.933,419.193 256,419.174 256,375.563 255.941,375.582 209.262,362.975 206.146,328.061 164.07,328.061 "
   id="polygon23"
   style="fill:#231f20" />
	</g>
</svg>