<?xml version="1.0" encoding="UTF-8" standalone="no"?>
<!-- Created with Inkscape (http://www.inkscape.org/) -->

<svg
   xmlns:dc="http://purl.org/dc/elements/1.1/"
   xmlns:cc="http://creativecommons.org/ns#"
   xmlns:rdf="http://www.w3.org/1999/02/22-rdf-syntax-ns#"
   xmlns:svg="http://www.w3.org/2000/svg"
   xmlns="http://www.w3.org/2000/svg"
   xmlns:sodipodi="http://sodipodi.sourceforge.net/DTD/sodipodi-0.dtd"
   xmlns:inkscape="http://www.inkscape.org/namespaces/inkscape"
   id="svg2"
   version="1.1"
   inkscape:version="0.48.2 r9819"
   width="232.98125"
   height="63.560173"
   xml:space="preserve"
   sodipodi:docname="skills_nodejs.svg"><metadata
     id="metadata8"><rdf:RDF><cc:Work
         rdf:about=""><dc:format>image/svg+xml</dc:format><dc:type
           rdf:resource="http://purl.org/dc/dcmitype/StillImage" /><dc:title></dc:title></cc:Work></rdf:RDF></metadata><defs
     id="defs6"><clipPath
       clipPathUnits="userSpaceOnUse"
       id="clipPath18"><path
         d="M 0,501.598 0,0 l 1863.85,0 0,501.598 -1863.85,0 z"
         id="path20"
         inkscape:connector-curvature="0" /></clipPath></defs><sodipodi:namedview
     pagecolor="#ffffff"
     bordercolor="#666666"
     borderopacity="1"
     objecttolerance="10"
     gridtolerance="10"
     guidetolerance="10"
     inkscape:pageopacity="0"
     inkscape:pageshadow="2"
     inkscape:window-width="1366"
     inkscape:window-height="720"
     id="namedview4"
     showgrid="false"
     inkscape:zoom="3.6527523"
     inkscape:cx="83.815918"
     inkscape:cy="19.953589"
     inkscape:window-x="0"
     inkscape:window-y="0"
     inkscape:window-maximized="1"
     inkscape:current-layer="g10"
     fit-margin-top="0"
     fit-margin-left="0"
     fit-margin-right="0"
     fit-margin-bottom="0" /><g
     id="g10"
     inkscape:groupmode="layer"
     inkscape:label="ink_ext_XXXXXX"
     transform="matrix(1.25,0,0,-1.25,0.18035464,60.729882)"><g
       id="g3884"
       transform="translate(12.297978,56.082681)"
       inkscape:export-filename="/Users/sdecaste/devel/gorillasoftware/source/images/skills_nodejs.png"
       inkscape:export-xdpi="77.87896"
       inkscape:export-ydpi="77.87896"><g
         transform="translate(-0.25392368,5.1343067)"
         id="g3864"
         style="fill:#bfea78;fill-opacity:0.94117647;stroke:none"><path
           inkscape:connector-curvature="0"
           id="path3866"
           style="fill:#bfea78;fill-opacity:0.94117647;fill-rule:evenodd;stroke:none"
           d="m 15.759662,-39.977828 c 0,0.5418 -0.2847,1.0399 -0.7527,1.3086 l -12.4687,7.1754 c -0.211,0.1242 -0.4473,0.1887 -0.6868,0.1984 -0.021,0 -0.1113,0 -0.1289,0 -0.2379,-0.0097 -0.4746,-0.0742 -0.6882,-0.1984 l -12.468794,-7.1754 c -0.464844,-0.2687 -0.753906,-0.7668 -0.753906,-1.3086 l 0.02734,-19.32224 c 0,-0.26875 0.139453,-0.51875 0.375781,-0.65039 0.231641,-0.13906 0.517578,-0.13906 0.748435,0 l 7.40977,4.24297 c 0.46875,0.27851 0.75429,0.76953 0.75429,1.30664 l 0,9.02732 c 0,0.5379 0.28516,1.0364 0.75198,1.3039 l 3.1551,1.8172 c 0.2351,0.136 0.4921,0.2024 0.7546,0.2024 0.2571,0 0.5207,-0.0664 0.7493,-0.2024 l 3.1543,-1.8172 c 0.4668,-0.2675 0.7531,-0.766 0.7531,-1.3039 l 0,-9.02732 c 0,-0.53711 0.289,-1.03125 0.7547,-1.30664 l 7.4082,-4.24297 c 0.2324,-0.13906 0.5222,-0.13906 0.7527,0 0.2297,0.13164 0.3742,0.38164 0.3742,0.65039 l 0.0242,19.32224" /><path
           inkscape:connector-curvature="0"
           id="path3868"
           style="fill:#bfea78;fill-opacity:0.94117647;fill-rule:evenodd;stroke:none"
           d="m 81.182762,-50.039128 c 0,-0.1344 -0.0719,-0.2586 -0.1887,-0.3258 l -4.2824,-2.4683 c -0.1164,-0.0672 -0.2598,-0.0672 -0.3762,0 l -4.2828,2.4683 c -0.1164,0.0672 -0.1883,0.1914 -0.1883,0.3258 l 0,4.9453 c 0,0.1344 0.0719,0.259 0.1879,0.3262 l 4.2828,2.4738 c 0.1168,0.0672 0.2602,0.0672 0.377,0 l 4.2828,-2.4738 c 0.116,-0.0672 0.1879,-0.1918 0.1879,-0.3262 l 0,-4.9453 z m 1.157,36.6227 c -0.2332,0.13 -0.5179,0.1269 -0.7484,-0.0083 -0.2301,-0.1351 -0.3715,-0.3824 -0.3715,-0.6496 l 0,-19.1351 c 0,-0.1879 -0.1008,-0.3621 -0.2633,-0.4567 -0.1629,-0.0941 -0.364,-0.0941 -0.5273,0 l -3.1231,1.7997 c -0.4656,0.2683 -1.039,0.2679 -1.5047,-8e-4 l -12.4738,-7.1985 c -0.4664,-0.2691 -0.7531,-0.7664 -0.7531,-1.3043 l 0,-14.40035 c 0,-0.53828 0.2867,-1.03516 0.7527,-1.30469 l 12.4731,-7.204298 c 0.4664,-0.26914 1.0406,-0.26914 1.507,0 l 12.4753,7.204298 c 0.466,0.26953 0.753,0.76641 0.753,1.30469 l 0,35.89645 c 0,0.5457 -0.296,1.0492 -0.773,1.3153 l -7.4229,4.1422" /><path
           inkscape:connector-curvature="0"
           id="path3870"
           style="fill:#bfea78;fill-opacity:0.94117647;fill-rule:evenodd;stroke:none"
           d="m 126.96666,-44.964528 c 0.464,0.2699 0.749,0.766 0.749,1.3024 l 0,3.4898 c 0,0.5367 -0.285,1.0332 -0.75,1.3027 l -12.393,7.1957 c -0.467,0.2711 -1.042,0.2715 -1.51,0.002 l -12.469,-7.1985 c -0.466,-0.2691 -0.752998,-0.7664 -0.752998,-1.3043 l 0,-14.39643 c 0,-0.54141 0.290998,-1.04102 0.760998,-1.30899 l 12.392,-7.060546 c 0.457,-0.260937 1.017,-0.263672 1.477,-0.0086 l 7.495,4.166019 c 0.238,0.13242 0.386,0.38203 0.387,0.65351 0.002,0.27149 -0.143,0.52305 -0.378,0.65821 l -12.548,7.20192 c -0.235,0.1344 -0.379,0.384 -0.379,0.6535 l 0,4.5118 c 0,0.2687 0.144,0.5179 0.377,0.6523 l 3.906,2.2516 c 0.232,0.134 0.519,0.134 0.752,0 l 3.907,-2.2516 c 0.233,-0.1344 0.377,-0.3836 0.377,-0.6523 l 0,-3.5504 c 0,-0.2692 0.144,-0.518 0.377,-0.6524 0.234,-0.1347 0.521,-0.1336 0.754,0.0016 l 7.469,4.341" /><path
           inkscape:connector-curvature="0"
           id="path3872"
           style="fill:#bfea78;fill-opacity:0.94117647;fill-rule:evenodd;stroke:none"
           d="m 38.441762,-31.596128 c 0.4656,0.2691 1.0398,0.2691 1.5054,0 l 12.4723,-7.1973 c 0.4664,-0.2691 0.7535,-0.766 0.7535,-1.3047 l 0,-14.40585 c 0,-0.53789 -0.2871,-1.03515 -0.7527,-1.30468 l -12.4723,-7.203129 c -0.4664,-0.26875 -1.0406,-0.26875 -1.507,0 l -12.4691,7.203129 c -0.4661,0.26914 -0.7532,0.76679 -0.7532,1.30468 l 0,14.40625 c 0,0.5383 0.2871,1.0352 0.7535,1.3043 l 12.4696,7.1973" /><path
           inkscape:connector-curvature="0"
           id="path3874"
           style="fill:#bfea78;fill-opacity:0.94117647;fill-rule:nonzero;stroke:none"
           d="m 151.18266,-63.217256 c -0.43,0 -0.857,0.1125 -1.233,0.330078 l -3.927,2.32344 c -0.586,0.32773 -0.3,0.44414 -0.107,0.51133 0.783,0.27187 0.941,0.33437 1.776,0.80781 0.087,0.04883 0.202,0.03008 0.292,-0.02227 l 3.016,-1.79101 c 0.11,-0.06094 0.264,-0.06094 0.365,0 l 11.76,6.78789 c 0.11,0.0625 0.18,0.18828 0.18,0.31836 l 0,13.5723 c 0,0.1328 -0.07,0.257 -0.182,0.3242 l -11.756,6.782 c -0.109,0.0637 -0.253,0.0637 -0.363,0 l -11.753,-6.784 c -0.114,-0.0652 -0.186,-0.1933 -0.186,-0.3222 l 0,-13.5723 c 0,-0.13008 0.072,-0.25274 0.185,-0.31446 l 3.222,-1.86132 c 1.748,-0.87383 2.819,0.15546 2.819,1.18945 l 0,13.40043 c 0,0.1894 0.152,0.339 0.341,0.339 l 1.492,0 c 0.186,0 0.34,-0.1496 0.34,-0.339 l 0,-13.40043 c 0,-2.33281 -1.27,-3.6707 -3.482,-3.6707 -0.68,0 -1.215,0 -2.709,0.73632 l -3.084,1.77539 c -0.762,0.44024 -1.233,1.26368 -1.233,2.14532 l 0,13.5723 c 0,0.882 0.471,1.705 1.233,2.1433 l 11.761,6.7961 c 0.744,0.4207 1.733,0.4207 2.471,0 l 11.76,-6.7961 c 0.762,-0.4402 1.235,-1.2613 1.235,-2.1433 l 0,-13.5723 c 0,-0.88164 -0.473,-1.70196 -1.235,-2.14532 l -11.76,-6.79023 c -0.376,-0.217578 -0.802,-0.330078 -1.238,-0.330078" /><path
           inkscape:connector-curvature="0"
           id="path3876"
           style="fill:#bfea78;fill-opacity:0.94117647;fill-rule:nonzero;stroke:none"
           d="m 154.81566,-53.866478 c -5.147,0 -6.225,2.36215 -6.225,4.34335 0,0.1887 0.152,0.3391 0.34,0.3391 l 1.521,0 c 0.17,0 0.311,-0.1223 0.338,-0.2879 0.229,-1.5481 0.914,-2.3293 4.026,-2.3293 2.477,0 3.532,0.5605 3.532,1.875 0,0.7578 -0.299,1.3203 -4.149,1.6973 -3.218,0.3183 -5.208,1.0292 -5.208,3.6035 0,2.373 2,3.7883 5.353,3.7883 3.768,0 5.632,-1.3079 5.868,-4.1133 0.009,-0.0969 -0.025,-0.1895 -0.089,-0.2617 -0.065,-0.0676 -0.155,-0.1086 -0.249,-0.1086 l -1.527,0 c -0.158,0 -0.298,0.1125 -0.33,0.2656 -0.366,1.6289 -1.257,2.1496 -3.673,2.1496 -2.705,0 -3.019,-0.9426 -3.019,-1.6484 0,-0.8555 0.371,-1.1047 4.023,-1.5879 3.614,-0.4778 5.331,-1.1543 5.331,-3.6946 0,-2.5625 -2.137,-4.03005 -5.863,-4.03005" /><path
           inkscape:connector-curvature="0"
           id="path3878"
           style="fill:#bfea78;fill-opacity:0.94117647;fill-rule:nonzero;stroke:none"
           d="m 171.03266,-31.471128 0,-0.3485 -0.99,0 0,-2.5793 -0.399,0 0,2.5793 -0.986,0 0,0.3485 2.375,0" /><path
           inkscape:connector-curvature="0"
           id="path3880"
           style="fill:#bfea78;fill-opacity:0.94117647;fill-rule:nonzero;stroke:none"
           d="m 171.38566,-31.471128 0.569,0 0.84,-2.4746 0.837,2.4746 0.565,0 0,-2.9278 -0.379,0 0,1.7278 c 0,0.0601 0.001,0.159 0.003,0.2957 0.004,0.1406 0.006,0.289 0.006,0.4465 l -0.837,-2.47 -0.393,0 -0.844,2.47 0,-0.0879 c 0,-0.0727 0,-0.1817 0.005,-0.3301 0.003,-0.1457 0.007,-0.2539 0.007,-0.3242 l 0,-1.7278 -0.379,0 0,2.9278" /><path
           inkscape:connector-curvature="0"
           id="path3882"
           style="fill:#bfea78;fill-opacity:0.94117647;fill-rule:evenodd;stroke:none"
           d="m 113.63366,-44.289928 c 0.09,0.0516 0.2,0.0516 0.289,0 l 2.394,-1.3808 c 0.089,-0.052 0.144,-0.1469 0.144,-0.2504 l 0,-2.7637 c 0,-0.1035 -0.055,-0.1988 -0.144,-0.2508 l -2.394,-1.3808 c -0.089,-0.0516 -0.199,-0.0516 -0.289,0 l -2.391,1.3808 c -0.09,0.052 -0.145,0.1473 -0.145,0.2508 l 0,2.7637 c 0,0.1035 0.055,0.1984 0.145,0.2504 l 2.391,1.3808" /></g><g
         style="fill:#96bb64;fill-opacity:1;stroke:none"
         id="g3844"
         transform="translate(-0.25392371,5.482398)"><path
           d="m 15.759662,-39.977828 c 0,0.5418 -0.2847,1.0399 -0.7527,1.3086 l -12.4687,7.1754 c -0.211,0.1242 -0.4473,0.1887 -0.6868,0.1984 -0.021,0 -0.1113,0 -0.1289,0 -0.2379,-0.0097 -0.4746,-0.0742 -0.6882,-0.1984 l -12.468794,-7.1754 c -0.464844,-0.2687 -0.753906,-0.7668 -0.753906,-1.3086 l 0.02734,-19.32224 c 0,-0.26875 0.139453,-0.51875 0.375781,-0.65039 0.231641,-0.13906 0.517578,-0.13906 0.748435,0 l 7.40977,4.24297 c 0.46875,0.27851 0.75429,0.76953 0.75429,1.30664 l 0,9.02732 c 0,0.5379 0.28516,1.0364 0.75198,1.3039 l 3.1551,1.8172 c 0.2351,0.136 0.4921,0.2024 0.7546,0.2024 0.2571,0 0.5207,-0.0664 0.7493,-0.2024 l 3.1543,-1.8172 c 0.4668,-0.2675 0.7531,-0.766 0.7531,-1.3039 l 0,-9.02732 c 0,-0.53711 0.289,-1.03125 0.7547,-1.30664 l 7.4082,-4.24297 c 0.2324,-0.13906 0.5222,-0.13906 0.7527,0 0.2297,0.13164 0.3742,0.38164 0.3742,0.65039 l 0.0242,19.32224"
           style="fill:#96bb64;fill-opacity:1;fill-rule:evenodd;stroke:none"
           id="path3846"
           inkscape:connector-curvature="0" /><path
           d="m 81.182762,-50.039128 c 0,-0.1344 -0.0719,-0.2586 -0.1887,-0.3258 l -4.2824,-2.4683 c -0.1164,-0.0672 -0.2598,-0.0672 -0.3762,0 l -4.2828,2.4683 c -0.1164,0.0672 -0.1883,0.1914 -0.1883,0.3258 l 0,4.9453 c 0,0.1344 0.0719,0.259 0.1879,0.3262 l 4.2828,2.4738 c 0.1168,0.0672 0.2602,0.0672 0.377,0 l 4.2828,-2.4738 c 0.116,-0.0672 0.1879,-0.1918 0.1879,-0.3262 l 0,-4.9453 z m 1.157,36.6227 c -0.2332,0.13 -0.5179,0.1269 -0.7484,-0.0083 -0.2301,-0.1351 -0.3715,-0.3824 -0.3715,-0.6496 l 0,-19.1351 c 0,-0.1879 -0.1008,-0.3621 -0.2633,-0.4567 -0.1629,-0.0941 -0.364,-0.0941 -0.5273,0 l -3.1231,1.7997 c -0.4656,0.2683 -1.039,0.2679 -1.5047,-8e-4 l -12.4738,-7.1985 c -0.4664,-0.2691 -0.7531,-0.7664 -0.7531,-1.3043 l 0,-14.40035 c 0,-0.53828 0.2867,-1.03516 0.7527,-1.30469 l 12.4731,-7.204298 c 0.4664,-0.26914 1.0406,-0.26914 1.507,0 l 12.4753,7.204298 c 0.466,0.26953 0.753,0.76641 0.753,1.30469 l 0,35.89645 c 0,0.5457 -0.296,1.0492 -0.773,1.3153 l -7.4229,4.1422"
           style="fill:#96bb64;fill-opacity:1;fill-rule:evenodd;stroke:none"
           id="path3848"
           inkscape:connector-curvature="0" /><path
           d="m 126.96666,-44.964528 c 0.464,0.2699 0.749,0.766 0.749,1.3024 l 0,3.4898 c 0,0.5367 -0.285,1.0332 -0.75,1.3027 l -12.393,7.1957 c -0.467,0.2711 -1.042,0.2715 -1.51,0.002 l -12.469,-7.1985 c -0.466,-0.2691 -0.752998,-0.7664 -0.752998,-1.3043 l 0,-14.39643 c 0,-0.54141 0.290998,-1.04102 0.760998,-1.30899 l 12.392,-7.060546 c 0.457,-0.260937 1.017,-0.263672 1.477,-0.0086 l 7.495,4.166019 c 0.238,0.13242 0.386,0.38203 0.387,0.65351 0.002,0.27149 -0.143,0.52305 -0.378,0.65821 l -12.548,7.20192 c -0.235,0.1344 -0.379,0.384 -0.379,0.6535 l 0,4.5118 c 0,0.2687 0.144,0.5179 0.377,0.6523 l 3.906,2.2516 c 0.232,0.134 0.519,0.134 0.752,0 l 3.907,-2.2516 c 0.233,-0.1344 0.377,-0.3836 0.377,-0.6523 l 0,-3.5504 c 0,-0.2692 0.144,-0.518 0.377,-0.6524 0.234,-0.1347 0.521,-0.1336 0.754,0.0016 l 7.469,4.341"
           style="fill:#96bb64;fill-opacity:1;fill-rule:evenodd;stroke:none"
           id="path3850"
           inkscape:connector-curvature="0" /><path
           d="m 38.441762,-31.596128 c 0.4656,0.2691 1.0398,0.2691 1.5054,0 l 12.4723,-7.1973 c 0.4664,-0.2691 0.7535,-0.766 0.7535,-1.3047 l 0,-14.40585 c 0,-0.53789 -0.2871,-1.03515 -0.7527,-1.30468 l -12.4723,-7.203129 c -0.4664,-0.26875 -1.0406,-0.26875 -1.507,0 l -12.4691,7.203129 c -0.4661,0.26914 -0.7532,0.76679 -0.7532,1.30468 l 0,14.40625 c 0,0.5383 0.2871,1.0352 0.7535,1.3043 l 12.4696,7.1973"
           style="fill:#96bb64;fill-opacity:1;fill-rule:evenodd;stroke:none"
           id="path3852"
           inkscape:connector-curvature="0" /><path
           d="m 151.18266,-63.217256 c -0.43,0 -0.857,0.1125 -1.233,0.330078 l -3.927,2.32344 c -0.586,0.32773 -0.3,0.44414 -0.107,0.51133 0.783,0.27187 0.941,0.33437 1.776,0.80781 0.087,0.04883 0.202,0.03008 0.292,-0.02227 l 3.016,-1.79101 c 0.11,-0.06094 0.264,-0.06094 0.365,0 l 11.76,6.78789 c 0.11,0.0625 0.18,0.18828 0.18,0.31836 l 0,13.5723 c 0,0.1328 -0.07,0.257 -0.182,0.3242 l -11.756,6.782 c -0.109,0.0637 -0.253,0.0637 -0.363,0 l -11.753,-6.784 c -0.114,-0.0652 -0.186,-0.1933 -0.186,-0.3222 l 0,-13.5723 c 0,-0.13008 0.072,-0.25274 0.185,-0.31446 l 3.222,-1.86132 c 1.748,-0.87383 2.819,0.15546 2.819,1.18945 l 0,13.40043 c 0,0.1894 0.152,0.339 0.341,0.339 l 1.492,0 c 0.186,0 0.34,-0.1496 0.34,-0.339 l 0,-13.40043 c 0,-2.33281 -1.27,-3.6707 -3.482,-3.6707 -0.68,0 -1.215,0 -2.709,0.73632 l -3.084,1.77539 c -0.762,0.44024 -1.233,1.26368 -1.233,2.14532 l 0,13.5723 c 0,0.882 0.471,1.705 1.233,2.1433 l 11.761,6.7961 c 0.744,0.4207 1.733,0.4207 2.471,0 l 11.76,-6.7961 c 0.762,-0.4402 1.235,-1.2613 1.235,-2.1433 l 0,-13.5723 c 0,-0.88164 -0.473,-1.70196 -1.235,-2.14532 l -11.76,-6.79023 c -0.376,-0.217578 -0.802,-0.330078 -1.238,-0.330078"
           style="fill:#96bb64;fill-opacity:1;fill-rule:nonzero;stroke:none"
           id="path3854"
           inkscape:connector-curvature="0" /><path
           d="m 154.81566,-53.866478 c -5.147,0 -6.225,2.36215 -6.225,4.34335 0,0.1887 0.152,0.3391 0.34,0.3391 l 1.521,0 c 0.17,0 0.311,-0.1223 0.338,-0.2879 0.229,-1.5481 0.914,-2.3293 4.026,-2.3293 2.477,0 3.532,0.5605 3.532,1.875 0,0.7578 -0.299,1.3203 -4.149,1.6973 -3.218,0.3183 -5.208,1.0292 -5.208,3.6035 0,2.373 2,3.7883 5.353,3.7883 3.768,0 5.632,-1.3079 5.868,-4.1133 0.009,-0.0969 -0.025,-0.1895 -0.089,-0.2617 -0.065,-0.0676 -0.155,-0.1086 -0.249,-0.1086 l -1.527,0 c -0.158,0 -0.298,0.1125 -0.33,0.2656 -0.366,1.6289 -1.257,2.1496 -3.673,2.1496 -2.705,0 -3.019,-0.9426 -3.019,-1.6484 0,-0.8555 0.371,-1.1047 4.023,-1.5879 3.614,-0.4778 5.331,-1.1543 5.331,-3.6946 0,-2.5625 -2.137,-4.03005 -5.863,-4.03005"
           style="fill:#96bb64;fill-opacity:1;fill-rule:nonzero;stroke:none"
           id="path3856"
           inkscape:connector-curvature="0" /><path
           d="m 171.03266,-31.471128 0,-0.3485 -0.99,0 0,-2.5793 -0.399,0 0,2.5793 -0.986,0 0,0.3485 2.375,0"
           style="fill:#96bb64;fill-opacity:1;fill-rule:nonzero;stroke:none"
           id="path3858"
           inkscape:connector-curvature="0" /><path
           d="m 171.38566,-31.471128 0.569,0 0.84,-2.4746 0.837,2.4746 0.565,0 0,-2.9278 -0.379,0 0,1.7278 c 0,0.0601 0.001,0.159 0.003,0.2957 0.004,0.1406 0.006,0.289 0.006,0.4465 l -0.837,-2.47 -0.393,0 -0.844,2.47 0,-0.0879 c 0,-0.0727 0,-0.1817 0.005,-0.3301 0.003,-0.1457 0.007,-0.2539 0.007,-0.3242 l 0,-1.7278 -0.379,0 0,2.9278"
           style="fill:#96bb64;fill-opacity:1;fill-rule:nonzero;stroke:none"
           id="path3860"
           inkscape:connector-curvature="0" /><path
           d="m 113.63366,-44.289928 c 0.09,0.0516 0.2,0.0516 0.289,0 l 2.394,-1.3808 c 0.089,-0.052 0.144,-0.1469 0.144,-0.2504 l 0,-2.7637 c 0,-0.1035 -0.055,-0.1988 -0.144,-0.2508 l -2.394,-1.3808 c -0.089,-0.0516 -0.199,-0.0516 -0.289,0 l -2.391,1.3808 c -0.09,0.052 -0.145,0.1473 -0.145,0.2508 l 0,2.7637 c 0,0.1035 0.055,0.1984 0.145,0.2504 l 2.391,1.3808"
           style="fill:#96bb64;fill-opacity:1;fill-rule:evenodd;stroke:none"
           id="path3862"
           inkscape:connector-curvature="0" /></g><g
         transform="translate(-0.2539237,5.8223068)"
         id="g3813"><path
           inkscape:connector-curvature="0"
           id="path22"
           style="fill:#4c5f3d;fill-opacity:1;fill-rule:evenodd;stroke:none"
           d="m 15.759662,-39.977828 c 0,0.5418 -0.2847,1.0399 -0.7527,1.3086 l -12.4687,7.1754 c -0.211,0.1242 -0.4473,0.1887 -0.6868,0.1984 -0.021,0 -0.1113,0 -0.1289,0 -0.2379,-0.0097 -0.4746,-0.0742 -0.6882,-0.1984 l -12.468794,-7.1754 c -0.464844,-0.2687 -0.753906,-0.7668 -0.753906,-1.3086 l 0.02734,-19.32224 c 0,-0.26875 0.139453,-0.51875 0.375781,-0.65039 0.231641,-0.13906 0.517578,-0.13906 0.748435,0 l 7.40977,4.24297 c 0.46875,0.27851 0.75429,0.76953 0.75429,1.30664 l 0,9.02732 c 0,0.5379 0.28516,1.0364 0.75198,1.3039 l 3.1551,1.8172 c 0.2351,0.136 0.4921,0.2024 0.7546,0.2024 0.2571,0 0.5207,-0.0664 0.7493,-0.2024 l 3.1543,-1.8172 c 0.4668,-0.2675 0.7531,-0.766 0.7531,-1.3039 l 0,-9.02732 c 0,-0.53711 0.289,-1.03125 0.7547,-1.30664 l 7.4082,-4.24297 c 0.2324,-0.13906 0.5222,-0.13906 0.7527,0 0.2297,0.13164 0.3742,0.38164 0.3742,0.65039 l 0.0242,19.32224" /><path
           inkscape:connector-curvature="0"
           id="path24"
           style="fill:#4c5f3d;fill-opacity:1;fill-rule:evenodd;stroke:none"
           d="m 81.182762,-50.039128 c 0,-0.1344 -0.0719,-0.2586 -0.1887,-0.3258 l -4.2824,-2.4683 c -0.1164,-0.0672 -0.2598,-0.0672 -0.3762,0 l -4.2828,2.4683 c -0.1164,0.0672 -0.1883,0.1914 -0.1883,0.3258 l 0,4.9453 c 0,0.1344 0.0719,0.259 0.1879,0.3262 l 4.2828,2.4738 c 0.1168,0.0672 0.2602,0.0672 0.377,0 l 4.2828,-2.4738 c 0.116,-0.0672 0.1879,-0.1918 0.1879,-0.3262 l 0,-4.9453 z m 1.157,36.6227 c -0.2332,0.13 -0.5179,0.1269 -0.7484,-0.0083 -0.2301,-0.1351 -0.3715,-0.3824 -0.3715,-0.6496 l 0,-19.1351 c 0,-0.1879 -0.1008,-0.3621 -0.2633,-0.4567 -0.1629,-0.0941 -0.364,-0.0941 -0.5273,0 l -3.1231,1.7997 c -0.4656,0.2683 -1.039,0.2679 -1.5047,-8e-4 l -12.4738,-7.1985 c -0.4664,-0.2691 -0.7531,-0.7664 -0.7531,-1.3043 l 0,-14.40035 c 0,-0.53828 0.2867,-1.03516 0.7527,-1.30469 l 12.4731,-7.204298 c 0.4664,-0.26914 1.0406,-0.26914 1.507,0 l 12.4753,7.204298 c 0.466,0.26953 0.753,0.76641 0.753,1.30469 l 0,35.89645 c 0,0.5457 -0.296,1.0492 -0.773,1.3153 l -7.4229,4.1422" /><path
           inkscape:connector-curvature="0"
           id="path26"
           style="fill:#4c5f3d;fill-opacity:1;fill-rule:evenodd;stroke:none"
           d="m 126.96666,-44.964528 c 0.464,0.2699 0.749,0.766 0.749,1.3024 l 0,3.4898 c 0,0.5367 -0.285,1.0332 -0.75,1.3027 l -12.393,7.1957 c -0.467,0.2711 -1.042,0.2715 -1.51,0.002 l -12.469,-7.1985 c -0.466,-0.2691 -0.752998,-0.7664 -0.752998,-1.3043 l 0,-14.39643 c 0,-0.54141 0.290998,-1.04102 0.760998,-1.30899 l 12.392,-7.060546 c 0.457,-0.260937 1.017,-0.263672 1.477,-0.0086 l 7.495,4.166019 c 0.238,0.13242 0.386,0.38203 0.387,0.65351 0.002,0.27149 -0.143,0.52305 -0.378,0.65821 l -12.548,7.20192 c -0.235,0.1344 -0.379,0.384 -0.379,0.6535 l 0,4.5118 c 0,0.2687 0.144,0.5179 0.377,0.6523 l 3.906,2.2516 c 0.232,0.134 0.519,0.134 0.752,0 l 3.907,-2.2516 c 0.233,-0.1344 0.377,-0.3836 0.377,-0.6523 l 0,-3.5504 c 0,-0.2692 0.144,-0.518 0.377,-0.6524 0.234,-0.1347 0.521,-0.1336 0.754,0.0016 l 7.469,4.341" /><path
           inkscape:connector-curvature="0"
           id="path28"
           style="fill:#4c5f3d;fill-opacity:1;fill-rule:evenodd;stroke:none"
           d="m 38.441762,-31.596128 c 0.4656,0.2691 1.0398,0.2691 1.5054,0 l 12.4723,-7.1973 c 0.4664,-0.2691 0.7535,-0.766 0.7535,-1.3047 l 0,-14.40585 c 0,-0.53789 -0.2871,-1.03515 -0.7527,-1.30468 l -12.4723,-7.203129 c -0.4664,-0.26875 -1.0406,-0.26875 -1.507,0 l -12.4691,7.203129 c -0.4661,0.26914 -0.7532,0.76679 -0.7532,1.30468 l 0,14.40625 c 0,0.5383 0.2871,1.0352 0.7535,1.3043 l 12.4696,7.1973" /><path
           inkscape:connector-curvature="0"
           id="path30"
           style="fill:#4c5f3d;fill-opacity:1;fill-rule:nonzero;stroke:none"
           d="m 151.18266,-63.217256 c -0.43,0 -0.857,0.1125 -1.233,0.330078 l -3.927,2.32344 c -0.586,0.32773 -0.3,0.44414 -0.107,0.51133 0.783,0.27187 0.941,0.33437 1.776,0.80781 0.087,0.04883 0.202,0.03008 0.292,-0.02227 l 3.016,-1.79101 c 0.11,-0.06094 0.264,-0.06094 0.365,0 l 11.76,6.78789 c 0.11,0.0625 0.18,0.18828 0.18,0.31836 l 0,13.5723 c 0,0.1328 -0.07,0.257 -0.182,0.3242 l -11.756,6.782 c -0.109,0.0637 -0.253,0.0637 -0.363,0 l -11.753,-6.784 c -0.114,-0.0652 -0.186,-0.1933 -0.186,-0.3222 l 0,-13.5723 c 0,-0.13008 0.072,-0.25274 0.185,-0.31446 l 3.222,-1.86132 c 1.748,-0.87383 2.819,0.15546 2.819,1.18945 l 0,13.40043 c 0,0.1894 0.152,0.339 0.341,0.339 l 1.492,0 c 0.186,0 0.34,-0.1496 0.34,-0.339 l 0,-13.40043 c 0,-2.33281 -1.27,-3.6707 -3.482,-3.6707 -0.68,0 -1.215,0 -2.709,0.73632 l -3.084,1.77539 c -0.762,0.44024 -1.233,1.26368 -1.233,2.14532 l 0,13.5723 c 0,0.882 0.471,1.705 1.233,2.1433 l 11.761,6.7961 c 0.744,0.4207 1.733,0.4207 2.471,0 l 11.76,-6.7961 c 0.762,-0.4402 1.235,-1.2613 1.235,-2.1433 l 0,-13.5723 c 0,-0.88164 -0.473,-1.70196 -1.235,-2.14532 l -11.76,-6.79023 c -0.376,-0.217578 -0.802,-0.330078 -1.238,-0.330078" /><path
           inkscape:connector-curvature="0"
           id="path32"
           style="fill:#4c5f3d;fill-opacity:1;fill-rule:nonzero;stroke:none"
           d="m 154.81566,-53.866478 c -5.147,0 -6.225,2.36215 -6.225,4.34335 0,0.1887 0.152,0.3391 0.34,0.3391 l 1.521,0 c 0.17,0 0.311,-0.1223 0.338,-0.2879 0.229,-1.5481 0.914,-2.3293 4.026,-2.3293 2.477,0 3.532,0.5605 3.532,1.875 0,0.7578 -0.299,1.3203 -4.149,1.6973 -3.218,0.3183 -5.208,1.0292 -5.208,3.6035 0,2.373 2,3.7883 5.353,3.7883 3.768,0 5.632,-1.3079 5.868,-4.1133 0.009,-0.0969 -0.025,-0.1895 -0.089,-0.2617 -0.065,-0.0676 -0.155,-0.1086 -0.249,-0.1086 l -1.527,0 c -0.158,0 -0.298,0.1125 -0.33,0.2656 -0.366,1.6289 -1.257,2.1496 -3.673,2.1496 -2.705,0 -3.019,-0.9426 -3.019,-1.6484 0,-0.8555 0.371,-1.1047 4.023,-1.5879 3.614,-0.4778 5.331,-1.1543 5.331,-3.6946 0,-2.5625 -2.137,-4.03005 -5.863,-4.03005" /><path
           inkscape:connector-curvature="0"
           id="path34"
           style="fill:#4c5f3d;fill-opacity:1;fill-rule:nonzero;stroke:none"
           d="m 171.03266,-31.471128 0,-0.3485 -0.99,0 0,-2.5793 -0.399,0 0,2.5793 -0.986,0 0,0.3485 2.375,0" /><path
           inkscape:connector-curvature="0"
           id="path36"
           style="fill:#4c5f3d;fill-opacity:1;fill-rule:nonzero;stroke:none"
           d="m 171.38566,-31.471128 0.569,0 0.84,-2.4746 0.837,2.4746 0.565,0 0,-2.9278 -0.379,0 0,1.7278 c 0,0.0601 0.001,0.159 0.003,0.2957 0.004,0.1406 0.006,0.289 0.006,0.4465 l -0.837,-2.47 -0.393,0 -0.844,2.47 0,-0.0879 c 0,-0.0727 0,-0.1817 0.005,-0.3301 0.003,-0.1457 0.007,-0.2539 0.007,-0.3242 l 0,-1.7278 -0.379,0 0,2.9278" /><path
           inkscape:connector-curvature="0"
           id="path38"
           style="fill:#4c5f3d;fill-opacity:1;fill-rule:evenodd;stroke:none"
           d="m 113.63366,-44.289928 c 0.09,0.0516 0.2,0.0516 0.289,0 l 2.394,-1.3808 c 0.089,-0.052 0.144,-0.1469 0.144,-0.2504 l 0,-2.7637 c 0,-0.1035 -0.055,-0.1988 -0.144,-0.2508 l -2.394,-1.3808 c -0.089,-0.0516 -0.199,-0.0516 -0.289,0 l -2.391,1.3808 c -0.09,0.052 -0.145,0.1473 -0.145,0.2508 l 0,2.7637 c 0,0.1035 0.055,0.1984 0.145,0.2504 l 2.391,1.3808" /></g></g></g></svg>