<?xml version="1.0" encoding="UTF-8" standalone="no"?>
<!-- Created with Inkscape (http://www.inkscape.org/) -->

<svg
   xmlns:dc="http://purl.org/dc/elements/1.1/"
   xmlns:cc="http://creativecommons.org/ns#"
   xmlns:rdf="http://www.w3.org/1999/02/22-rdf-syntax-ns#"
   xmlns:svg="http://www.w3.org/2000/svg"
   xmlns="http://www.w3.org/2000/svg"
   xmlns:xlink="http://www.w3.org/1999/xlink"
   xmlns:sodipodi="http://sodipodi.sourceforge.net/DTD/sodipodi-0.dtd"
   xmlns:inkscape="http://www.inkscape.org/namespaces/inkscape"
   version="1.0"
   width="98.9627"
   height="100"
   id="svg2031"
   inkscape:version="0.48.2 r9819"
   sodipodi:docname="skills-python.svg"
   inkscape:export-filename="/Users/sdecaste/devel/gorillasoftware/source/images/skills-python.png"
   inkscape:export-xdpi="37.540901"
   inkscape:export-ydpi="37.540901">
  <sodipodi:namedview
     pagecolor="#ffffff"
     bordercolor="#666666"
     borderopacity="1"
     objecttolerance="10"
     gridtolerance="10"
     guidetolerance="10"
     inkscape:pageopacity="0"
     inkscape:pageshadow="2"
     inkscape:window-width="1366"
     inkscape:window-height="720"
     id="namedview31"
     showgrid="false"
     fit-margin-top="0"
     fit-margin-left="0"
     fit-margin-right="0"
     fit-margin-bottom="0"
     inkscape:zoom="0.98440582"
     inkscape:cx="-122.70374"
     inkscape:cy="50"
     inkscape:window-x="1"
     inkscape:window-y="0"
     inkscape:window-maximized="0"
     inkscape:current-layer="svg2031" />
  <metadata
     id="metadata28">
    <rdf:RDF>
      <cc:Work
         rdf:about="">
        <dc:format>image/svg+xml</dc:format>
        <dc:type
           rdf:resource="http://purl.org/dc/dcmitype/StillImage" />
        <dc:title></dc:title>
      </cc:Work>
    </rdf:RDF>
  </metadata>
  <defs
     id="defs2033">
    <linearGradient
       id="linearGradient4671">
      <stop
         id="stop4673"
         style="stop-color:#ffc836;stop-opacity:1"
         offset="0" />
      <stop
         id="stop4675"
         style="stop-color:#ffe873;stop-opacity:1"
         offset="1" />
    </linearGradient>
    <linearGradient
       x1="224.23996"
       y1="144.75717"
       x2="-65.308502"
       y2="144.75717"
       id="linearGradient1874"
       xlink:href="#linearGradient4671"
       gradientUnits="userSpaceOnUse" />
    <linearGradient
       id="linearGradient4689">
      <stop
         id="stop4691"
         style="stop-color:#366a96;stop-opacity:1"
         offset="0" />
      <stop
         id="stop4693"
         style="stop-color:#3679b0;stop-opacity:1"
         offset="1" />
    </linearGradient>
    <linearGradient
       x1="172.94208"
       y1="77.475983"
       x2="26.670298"
       y2="76.313133"
       id="linearGradient1872"
       xlink:href="#linearGradient4689"
       gradientUnits="userSpaceOnUse" />
    <linearGradient
       x1="172.94208"
       y1="77.475983"
       x2="26.670298"
       y2="76.313133"
       id="linearGradient3018"
       xlink:href="#linearGradient4689"
       gradientUnits="userSpaceOnUse" />
    <linearGradient
       x1="224.23996"
       y1="144.75717"
       x2="-65.308502"
       y2="144.75717"
       id="linearGradient3020"
       xlink:href="#linearGradient4671"
       gradientUnits="userSpaceOnUse" />
    <linearGradient
       x1="172.94208"
       y1="77.475983"
       x2="26.670298"
       y2="76.313133"
       id="linearGradient3034"
       xlink:href="#linearGradient4689"
       gradientUnits="userSpaceOnUse" />
    <linearGradient
       x1="224.23996"
       y1="144.75717"
       x2="-65.308502"
       y2="144.75717"
       id="linearGradient3036"
       xlink:href="#linearGradient4671"
       gradientUnits="userSpaceOnUse" />
    <linearGradient
       x1="224.23996"
       y1="144.75717"
       x2="-65.308502"
       y2="144.75717"
       id="linearGradient3040"
       xlink:href="#linearGradient4671"
       gradientUnits="userSpaceOnUse"
       gradientTransform="matrix(1.200851,0,0,1.200851,-21.754459,-8.7723674)" />
    <linearGradient
       x1="172.94208"
       y1="77.475983"
       x2="26.670298"
       y2="76.313133"
       id="linearGradient3043"
       xlink:href="#linearGradient4689"
       gradientUnits="userSpaceOnUse"
       gradientTransform="matrix(1.200851,0,0,1.200851,-21.754459,-8.7723674)" />
    <linearGradient
       x1="172.94208"
       y1="77.475983"
       x2="26.670298"
       y2="76.313133"
       id="linearGradient3055"
       xlink:href="#linearGradient4689"
       gradientUnits="userSpaceOnUse"
       gradientTransform="matrix(1.200851,0,0,1.200851,-21.754459,-8.7723674)" />
    <linearGradient
       x1="224.23996"
       y1="144.75717"
       x2="-65.308502"
       y2="144.75717"
       id="linearGradient3057"
       xlink:href="#linearGradient4671"
       gradientUnits="userSpaceOnUse"
       gradientTransform="matrix(1.200851,0,0,1.200851,-21.754459,-8.7723674)" />
  </defs>
  <g
     transform="matrix(0.41712111,0,0,0.41712111,-96.064516,-25.179031)"
     id="g3849">
    <g
       transform="translate(0,2.1208356)"
       id="g3843"
       style="fill:#b1d874;fill-opacity:1">
      <path
         d="m 291.54713,92.159416 c 0,-16.359014 4.38642,-25.258996 28.60708,-29.497083 16.44378,-2.881898 37.52826,-3.242135 57.19298,0 15.53259,2.564043 28.60708,14.134019 28.60708,29.497083 l 0,53.972034 c 0,15.82926 -12.69307,28.7978 -28.60708,28.7978 l -57.19298,0 c -19.41043,0 -35.76945,16.54972 -35.76945,35.26088 l 0,25.8947 -19.66472,0 c -16.63449,0 -26.31852,-11.99377 -30.38708,-28.7766 -5.48832,-22.54661 -5.25523,-35.98135 0,-57.57441 4.55594,-18.83829 19.11377,-28.77661 35.74826,-28.77661 l 21.46591,0 57.21416,0 0,-7.20474 -57.21416,0 0,-21.593054 0,0 z"
         id="path3845"
         style="fill:#b1d874;fill-opacity:1"
         inkscape:connector-curvature="0" />
      <path
         d="m 405.95427,264.88263 c 0,16.35902 -14.19759,24.64448 -28.60708,28.77661 -21.67781,6.22999 -39.07515,5.27642 -57.19298,0 -15.12997,-4.4076 -28.60708,-13.41354 -28.60708,-28.77661 l 0,-53.97203 c 0,-15.53259 12.94735,-28.7978 28.60708,-28.7978 l 57.19298,0 c 19.0502,0 35.76945,-16.46496 35.76945,-35.98135 l 0,-25.17424 21.44472,0 c 16.65567,0 24.49614,12.37522 28.60708,28.77661 5.72142,22.77972 5.9757,39.81683 0,57.57441 -5.78499,17.24901 -11.97259,28.7766 -28.60708,28.7766 l -28.60709,0 -57.19298,0 0,7.20475 57.19298,0 0,21.59305 z"
         id="path3847"
         style="fill:#b1d874;fill-opacity:1"
         inkscape:connector-curvature="0" />
    </g>
    <g
       transform="translate(0,1.0604178)"
       id="g3837"
       style="fill:#89a95c;fill-opacity:1">
      <path
         d="m 291.54713,92.159416 c 0,-16.359014 4.38642,-25.258996 28.60708,-29.497083 16.44378,-2.881898 37.52826,-3.242135 57.19298,0 15.53259,2.564043 28.60708,14.134019 28.60708,29.497083 l 0,53.972034 c 0,15.82926 -12.69307,28.7978 -28.60708,28.7978 l -57.19298,0 c -19.41043,0 -35.76945,16.54972 -35.76945,35.26088 l 0,25.8947 -19.66472,0 c -16.63449,0 -26.31852,-11.99377 -30.38708,-28.7766 -5.48832,-22.54661 -5.25523,-35.98135 0,-57.57441 4.55594,-18.83829 19.11377,-28.77661 35.74826,-28.77661 l 21.46591,0 57.21416,0 0,-7.20474 -57.21416,0 0,-21.593054 0,0 z"
         id="path3839"
         style="fill:#89a95c;fill-opacity:1"
         inkscape:connector-curvature="0" />
      <path
         d="m 405.95427,264.88263 c 0,16.35902 -14.19759,24.64448 -28.60708,28.77661 -21.67781,6.22999 -39.07515,5.27642 -57.19298,0 -15.12997,-4.4076 -28.60708,-13.41354 -28.60708,-28.77661 l 0,-53.97203 c 0,-15.53259 12.94735,-28.7978 28.60708,-28.7978 l 57.19298,0 c 19.0502,0 35.76945,-16.46496 35.76945,-35.98135 l 0,-25.17424 21.44472,0 c 16.65567,0 24.49614,12.37522 28.60708,28.77661 5.72142,22.77972 5.9757,39.81683 0,57.57441 -5.78499,17.24901 -11.97259,28.7766 -28.60708,28.7766 l -28.60709,0 -57.19298,0 0,7.20475 57.19298,0 0,21.59305 z"
         id="path3841"
         style="fill:#89a95c;fill-opacity:1"
         inkscape:connector-curvature="0" />
    </g>
    <g
       id="g3833">
      <path
         d="m 291.54713,92.159416 c 0,-16.359014 4.38642,-25.258996 28.60708,-29.497083 16.44378,-2.881898 37.52826,-3.242135 57.19298,0 15.53259,2.564043 28.60708,14.134019 28.60708,29.497083 l 0,53.972034 c 0,15.82926 -12.69307,28.7978 -28.60708,28.7978 l -57.19298,0 c -19.41043,0 -35.76945,16.54972 -35.76945,35.26088 l 0,25.8947 -19.66472,0 c -16.63449,0 -26.31852,-11.99377 -30.38708,-28.7766 -5.48832,-22.54661 -5.25523,-35.98135 0,-57.57441 4.55594,-18.83829 19.11377,-28.77661 35.74826,-28.77661 l 21.46591,0 57.21416,0 0,-7.20474 -57.21416,0 0,-21.593054 0,0 z"
         id="path1948"
         style="fill:#4c5f3d;fill-opacity:1"
         inkscape:connector-curvature="0" />
      <path
         d="m 405.95427,264.88263 c 0,16.35902 -14.19759,24.64448 -28.60708,28.77661 -21.67781,6.22999 -39.07515,5.27642 -57.19298,0 -15.12997,-4.4076 -28.60708,-13.41354 -28.60708,-28.77661 l 0,-53.97203 c 0,-15.53259 12.94735,-28.7978 28.60708,-28.7978 l 57.19298,0 c 19.0502,0 35.76945,-16.46496 35.76945,-35.98135 l 0,-25.17424 21.44472,0 c 16.65567,0 24.49614,12.37522 28.60708,28.77661 5.72142,22.77972 5.9757,39.81683 0,57.57441 -5.78499,17.24901 -11.97259,28.7766 -28.60708,28.7766 l -28.60709,0 -57.19298,0 0,7.20475 57.19298,0 0,21.59305 z"
         id="path1950"
         style="fill:#4c5f3d;fill-opacity:1"
         inkscape:connector-curvature="0" />
    </g>
  </g>
</svg>
