<?xml version="1.0" encoding="UTF-8" standalone="no"?>
<!-- Created with Inkscape (http://www.inkscape.org/) -->

<svg
   xmlns:dc="http://purl.org/dc/elements/1.1/"
   xmlns:cc="http://creativecommons.org/ns#"
   xmlns:rdf="http://www.w3.org/1999/02/22-rdf-syntax-ns#"
   xmlns:svg="http://www.w3.org/2000/svg"
   xmlns="http://www.w3.org/2000/svg"
   xmlns:xlink="http://www.w3.org/1999/xlink"
   xmlns:sodipodi="http://sodipodi.sourceforge.net/DTD/sodipodi-0.dtd"
   xmlns:inkscape="http://www.inkscape.org/namespaces/inkscape"
   version="1.1"
   width="80"
   height="80"
   id="svg2"
   inkscape:version="0.48.2 r9819"
   sodipodi:docname="social-twitter-white.svg"
   inkscape:export-filename="/Users/sdecaste/devel/gorillasoftware/source/images/social-twitter-white.png"
   inkscape:export-xdpi="90"
   inkscape:export-ydpi="90">
  <sodipodi:namedview
     pagecolor="#ffffff"
     bordercolor="#666666"
     borderopacity="1"
     objecttolerance="10"
     gridtolerance="10"
     guidetolerance="10"
     inkscape:pageopacity="0"
     inkscape:pageshadow="2"
     inkscape:window-width="1366"
     inkscape:window-height="720"
     id="namedview25"
     showgrid="false"
     fit-margin-top="0"
     fit-margin-left="0"
     fit-margin-right="0"
     fit-margin-bottom="0"
     inkscape:zoom="5.6952546"
     inkscape:cx="18.979262"
     inkscape:cy="25.930009"
     inkscape:window-x="1"
     inkscape:window-y="0"
     inkscape:window-maximized="0"
     inkscape:current-layer="svg2" />
  <defs
     id="defs4">
    <linearGradient
       id="linearGradient4015">
      <stop
         id="stop4017"
         style="stop-color:#5a5a5a;stop-opacity:1"
         offset="0" />
      <stop
         id="stop4019"
         style="stop-color:#000000;stop-opacity:1"
         offset="1" />
    </linearGradient>
    <linearGradient
       id="linearGradient3978">
      <stop
         id="stop3980"
         style="stop-color:#ffffff;stop-opacity:1"
         offset="0" />
      <stop
         id="stop3982"
         style="stop-color:#d7d8d4;stop-opacity:1"
         offset="1" />
    </linearGradient>
    <radialGradient
       cx="588.42859"
       cy="764.7193"
       r="20"
       fx="588.42859"
       fy="764.7193"
       id="radialGradient4027"
       xlink:href="#linearGradient4015"
       gradientUnits="userSpaceOnUse"
       gradientTransform="matrix(1.675,-7.5759065e-7,6.446166e-7,1.4252193,-397.18979,-324.17294)" />
    <radialGradient
       cx="588.42859"
       cy="764.7193"
       r="20"
       fx="588.42859"
       fy="764.7193"
       id="radialGradient4029"
       xlink:href="#linearGradient4015"
       gradientUnits="userSpaceOnUse"
       gradientTransform="matrix(1.675,-7.5759065e-7,6.446166e-7,1.4252193,-956.61838,-1048.3922)" />
    <clipPath
       id="clipPath3131">
      <rect
         width="39.306641"
         height="28.515625"
         rx="0.39133152"
         ry="1.4259031"
         x="2.4414062"
         y="7.5292969"
         id="rect3133"
         style="fill:#000000;fill-opacity:1;fill-rule:nonzero;stroke:none" />
    </clipPath>
  </defs>
  <metadata
     id="metadata7">
    <rdf:RDF>
      <cc:Work
         rdf:about="">
        <dc:format>image/svg+xml</dc:format>
        <dc:type
           rdf:resource="http://purl.org/dc/dcmitype/StillImage" />
        <dc:title />
      </cc:Work>
    </rdf:RDF>
  </metadata>
  <g
     id="g4545"
     transform="matrix(2.0188959,0,0,2.018896,154.44554,-0.504724)"
     style="fill:#ffffff;fill-opacity:1">
    <path
       inkscape:connector-curvature="0"
       style="font-size:medium;font-style:normal;font-variant:normal;font-weight:normal;font-stretch:normal;text-indent:0;text-align:start;text-decoration:none;line-height:normal;letter-spacing:normal;word-spacing:normal;text-transform:none;direction:ltr;block-progression:tb;writing-mode:lr-tb;text-anchor:start;baseline-shift:baseline;color:#000000;fill:#ffffff;fill-opacity:1;stroke:none;stroke-width:1.85012889;marker:none;visibility:visible;display:inline;overflow:visible;enable-background:accumulate;font-family:Sans;-inkscape-font-specification:Sans"
       id="path4428"
       d="M -56.704081,0.25 C -67.633591,0.25 -76.5,9.1164084 -76.5,20.045918 c 0,10.92951 8.866409,19.8297 19.795919,19.8297 10.92951,0 19.8297,-8.90019 19.8297,-19.8297 0,-10.9295096 -8.90019,-19.795918 -19.8297,-19.795918 z m 0,1.9931044 c 9.84863,0 17.836596,7.9541836 17.836596,17.8028136 0,9.84863 -7.987966,17.836596 -17.836596,17.836596 -9.84863,0 -17.802814,-7.987966 -17.802814,-17.836596 0,-9.84863 7.954184,-17.8028136 17.802814,-17.8028136 z" />
    <path
       inkscape:connector-curvature="0"
       style="fill:#ffffff;fill-opacity:1"
       id="Twitter__x28_alt_x29_"
       d="m -45.376217,18.946194 c 1.642876,-0.135525 2.756974,-0.882375 3.185974,-1.895725 -0.592799,0.364 -2.432299,0.760825 -3.44825,0.38285 -0.04972,-0.23855 -0.1053,-0.4654 -0.1599,-0.67015 -0.77415,-2.842449 -3.424524,-5.1324 -6.20165,-4.855825 0.224575,-0.09067 0.4524,-0.175175 0.679901,-0.2509 0.305499,-0.109525 2.099174,-0.401375 1.816749,-1.034474 -0.238225,-0.556726 -2.429375,0.420874 -2.841799,0.548599 0.544375,-0.20475 1.445275,-0.55705 1.541474,-1.182999 -0.834274,0.114399 -1.653275,0.508949 -2.286048,1.082574 0.228473,-0.246025 0.401699,-0.545675 0.438423,-0.8684 -2.225599,1.421875 -3.525599,4.288375 -4.577624,7.068751 -0.82615,-0.800476 -1.558375,-1.430976 -2.215201,-1.781001 -1.84275,-0.988325 -4.045926,-2.019224 -7.504574,-3.3033 -0.106278,1.144326 0.565823,2.665975 2.502502,3.6777 -0.419582,-0.05622 -1.186901,0.06922 -1.800501,0.216126 0.249922,1.311049 1.065997,2.391024 3.275673,2.9133 -1.009775,0.06663 -1.531723,0.296399 -2.004594,0.791699 0.459874,0.911625 1.582096,1.984775 3.600997,1.764425 -2.244447,0.967525 -0.915198,2.75925 0.911299,2.491776 -3.115774,3.21815 -8.028146,2.981874 -10.848824,0.290225 7.364821,10.035675 23.374325,5.935151 25.760151,-3.731326 1.787174,0.01527 2.838223,-0.619125 3.489849,-1.318525 -1.029924,0.17485 -2.522324,-0.0058 -3.314025,-0.3354 z" />
  </g>
</svg>
