<?xml version="1.0" encoding="UTF-8" standalone="no"?>
<!-- Created with Inkscape (http://www.inkscape.org/) -->

<svg
   xmlns:dc="http://purl.org/dc/elements/1.1/"
   xmlns:cc="http://creativecommons.org/ns#"
   xmlns:rdf="http://www.w3.org/1999/02/22-rdf-syntax-ns#"
   xmlns:svg="http://www.w3.org/2000/svg"
   xmlns="http://www.w3.org/2000/svg"
   xmlns:xlink="http://www.w3.org/1999/xlink"
   version="1.1"
   width="39.647717"
   height="41.438007"
   id="svg2">
  <defs
     id="defs4">
    <linearGradient
       id="linearGradient4015">
      <stop
         id="stop4017"
         style="stop-color:#5a5a5a;stop-opacity:1"
         offset="0" />
      <stop
         id="stop4019"
         style="stop-color:#000000;stop-opacity:1"
         offset="1" />
    </linearGradient>
    <linearGradient
       id="linearGradient3978">
      <stop
         id="stop3980"
         style="stop-color:#ffffff;stop-opacity:1"
         offset="0" />
      <stop
         id="stop3982"
         style="stop-color:#d7d8d4;stop-opacity:1"
         offset="1" />
    </linearGradient>
    <radialGradient
       cx="588.42859"
       cy="764.7193"
       r="20"
       fx="588.42859"
       fy="764.7193"
       id="radialGradient4027"
       xlink:href="#linearGradient4015"
       gradientUnits="userSpaceOnUse"
       gradientTransform="matrix(1.675,-7.5759065e-7,6.446166e-7,1.4252193,-397.18979,-324.17294)" />
    <radialGradient
       cx="588.42859"
       cy="764.7193"
       r="20"
       fx="588.42859"
       fy="764.7193"
       id="radialGradient4029"
       xlink:href="#linearGradient4015"
       gradientUnits="userSpaceOnUse"
       gradientTransform="matrix(1.675,-7.5759065e-7,6.446166e-7,1.4252193,-956.61838,-1048.3922)" />
    <clipPath
       id="clipPath3131">
      <rect
         width="39.306641"
         height="28.515625"
         rx="0.39133152"
         ry="1.4259031"
         x="2.4414062"
         y="7.5292969"
         id="rect3133"
         style="fill:#000000;fill-opacity:1;fill-rule:nonzero;stroke:none" />
    </clipPath>
  </defs>
  <metadata
     id="metadata7">
    <rdf:RDF>
      <cc:Work
         rdf:about="">
        <dc:format>image/svg+xml</dc:format>
        <dc:type
           rdf:resource="http://purl.org/dc/dcmitype/StillImage" />
        <dc:title></dc:title>
      </cc:Work>
    </rdf:RDF>
  </metadata>
  <g
     transform="translate(58,0)"
     id="g4789">
    <g
       transform="translate(0,2.5056311)"
       id="g4775"
       style="fill:#b1d874;fill-opacity:1">
      <path
         d="m -38.681984,0 c -10.92951,0 -19.795919,8.8664084 -19.795919,19.795918 0,10.92951 8.866409,19.8297 19.795919,19.8297 10.92951,0 19.8297,-8.90019 19.8297,-19.8297 C -18.852284,8.8664084 -27.752474,0 -38.681984,0 z m 0,1.9931044 c 9.84863,0 17.836596,7.9541836 17.836596,17.8028136 0,9.84863 -7.987966,17.836596 -17.836596,17.836596 -9.84863,0 -17.802814,-7.987966 -17.802814,-17.836596 0,-9.84863 7.954184,-17.8028136 17.802814,-17.8028136 z"
         id="path4777"
         style="font-size:medium;font-style:normal;font-variant:normal;font-weight:normal;font-stretch:normal;text-indent:0;text-align:start;text-decoration:none;line-height:normal;letter-spacing:normal;word-spacing:normal;text-transform:none;direction:ltr;block-progression:tb;writing-mode:lr-tb;text-anchor:start;baseline-shift:baseline;color:#000000;fill:#b1d874;fill-opacity:1;stroke:none;stroke-width:1.85012889;marker:none;visibility:visible;display:inline;overflow:visible;enable-background:accumulate;font-family:Sans;-inkscape-font-specification:Sans" />
      <g
         transform="matrix(0.04013822,0,0,0.04013822,-49.020734,9.3446609)"
         id="g4779"
         style="fill:#b1d874;fill-opacity:1">
        <g
           id="g4781"
           style="fill:#b1d874;fill-opacity:1;display:none">
</g>
        <g
           id="g4783"
           style="fill:#b1d874;fill-opacity:1">
	<path
   d="m 138.068,92.267 c 0,25.787 -19.033,46.662 -50.346,46.662 -29.471,0 -48.504,-20.875 -48.504,-46.662 0,-26.401 19.647,-46.662 49.732,-46.662 30.084,-10e-4 48.504,20.26 49.118,46.662 z M 41.674,476 V 175.767 h 93.324 V 476 H 41.674 z"
   id="path4785"
   style="fill:#b1d874;fill-opacity:1" />

	<path
   d="m 191.897,271.547 c 0,-37.453 -1.228,-68.765 -2.456,-95.78 h 81.044 l 4.298,41.75 h 1.842 c 12.279,-19.647 42.364,-48.504 92.711,-48.504 61.396,0 107.445,41.137 107.445,129.549 V 476 H 383.456 V 309.613 c 0,-38.681 -13.508,-65.082 -47.275,-65.082 -25.786,0 -41.136,17.807 -47.89,34.997 -2.456,6.14 -3.07,14.735 -3.07,23.331 V 476 H 191.897 V 271.547 z"
   id="path4787"
   style="fill:#b1d874;fill-opacity:1" />

</g>
      </g>
    </g>
    <g
       transform="translate(0,1.2288228)"
       id="g4742"
       style="fill:#89a95c;fill-opacity:1">
      <path
         d="m -38.681984,0 c -10.92951,0 -19.795919,8.8664084 -19.795919,19.795918 0,10.92951 8.866409,19.8297 19.795919,19.8297 10.92951,0 19.8297,-8.90019 19.8297,-19.8297 C -18.852284,8.8664084 -27.752474,0 -38.681984,0 z m 0,1.9931044 c 9.84863,0 17.836596,7.9541836 17.836596,17.8028136 0,9.84863 -7.987966,17.836596 -17.836596,17.836596 -9.84863,0 -17.802814,-7.987966 -17.802814,-17.836596 0,-9.84863 7.954184,-17.8028136 17.802814,-17.8028136 z"
         id="path4744"
         style="font-size:medium;font-style:normal;font-variant:normal;font-weight:normal;font-stretch:normal;text-indent:0;text-align:start;text-decoration:none;line-height:normal;letter-spacing:normal;word-spacing:normal;text-transform:none;direction:ltr;block-progression:tb;writing-mode:lr-tb;text-anchor:start;baseline-shift:baseline;color:#000000;fill:#89a95c;fill-opacity:1;stroke:none;stroke-width:1.85012889;marker:none;visibility:visible;display:inline;overflow:visible;enable-background:accumulate;font-family:Sans;-inkscape-font-specification:Sans" />
      <g
         transform="matrix(0.04013822,0,0,0.04013822,-49.020734,9.3446609)"
         id="g4746"
         style="fill:#89a95c;fill-opacity:1">
        <g
           id="g4748"
           style="fill:#89a95c;fill-opacity:1;display:none">
</g>
        <g
           id="g4750"
           style="fill:#89a95c;fill-opacity:1">
	<path
   d="m 138.068,92.267 c 0,25.787 -19.033,46.662 -50.346,46.662 -29.471,0 -48.504,-20.875 -48.504,-46.662 0,-26.401 19.647,-46.662 49.732,-46.662 30.084,-10e-4 48.504,20.26 49.118,46.662 z M 41.674,476 V 175.767 h 93.324 V 476 H 41.674 z"
   id="path4752"
   style="fill:#89a95c;fill-opacity:1" />

	<path
   d="m 191.897,271.547 c 0,-37.453 -1.228,-68.765 -2.456,-95.78 h 81.044 l 4.298,41.75 h 1.842 c 12.279,-19.647 42.364,-48.504 92.711,-48.504 61.396,0 107.445,41.137 107.445,129.549 V 476 H 383.456 V 309.613 c 0,-38.681 -13.508,-65.082 -47.275,-65.082 -25.786,0 -41.136,17.807 -47.89,34.997 -2.456,6.14 -3.07,14.735 -3.07,23.331 V 476 H 191.897 V 271.547 z"
   id="path4754"
   style="fill:#89a95c;fill-opacity:1" />

</g>
      </g>
    </g>
    <g
       id="g4734">
      <path
         d="m -38.681984,0 c -10.92951,0 -19.795919,8.8664084 -19.795919,19.795918 0,10.92951 8.866409,19.8297 19.795919,19.8297 10.92951,0 19.8297,-8.90019 19.8297,-19.8297 C -18.852284,8.8664084 -27.752474,0 -38.681984,0 z m 0,1.9931044 c 9.84863,0 17.836596,7.9541836 17.836596,17.8028136 0,9.84863 -7.987966,17.836596 -17.836596,17.836596 -9.84863,0 -17.802814,-7.987966 -17.802814,-17.836596 0,-9.84863 7.954184,-17.8028136 17.802814,-17.8028136 z"
         id="path4635"
         style="font-size:medium;font-style:normal;font-variant:normal;font-weight:normal;font-stretch:normal;text-indent:0;text-align:start;text-decoration:none;line-height:normal;letter-spacing:normal;word-spacing:normal;text-transform:none;direction:ltr;block-progression:tb;writing-mode:lr-tb;text-anchor:start;baseline-shift:baseline;color:#000000;fill:#4c5f3d;fill-opacity:1;stroke:none;stroke-width:1.85012889;marker:none;visibility:visible;display:inline;overflow:visible;enable-background:accumulate;font-family:Sans;-inkscape-font-specification:Sans" />
      <g
         transform="matrix(0.04013822,0,0,0.04013822,-49.020734,9.3446609)"
         id="g4728"
         style="fill:#4c5f3d;fill-opacity:1">
        <g
           id="Layer_1"
           style="fill:#4c5f3d;fill-opacity:1;display:none">
</g>
        <g
           id="g4716"
           style="fill:#4c5f3d;fill-opacity:1">
	<path
   d="m 138.068,92.267 c 0,25.787 -19.033,46.662 -50.346,46.662 -29.471,0 -48.504,-20.875 -48.504,-46.662 0,-26.401 19.647,-46.662 49.732,-46.662 30.084,-10e-4 48.504,20.26 49.118,46.662 z M 41.674,476 V 175.767 h 93.324 V 476 H 41.674 z"
   id="path4718"
   style="fill:#4c5f3d;fill-opacity:1" />

	<path
   d="m 191.897,271.547 c 0,-37.453 -1.228,-68.765 -2.456,-95.78 h 81.044 l 4.298,41.75 h 1.842 c 12.279,-19.647 42.364,-48.504 92.711,-48.504 61.396,0 107.445,41.137 107.445,129.549 V 476 H 383.456 V 309.613 c 0,-38.681 -13.508,-65.082 -47.275,-65.082 -25.786,0 -41.136,17.807 -47.89,34.997 -2.456,6.14 -3.07,14.735 -3.07,23.331 V 476 H 191.897 V 271.547 z"
   id="path4720"
   style="fill:#4c5f3d;fill-opacity:1" />

</g>
      </g>
    </g>
  </g>
</svg>
