<?xml version="1.0" encoding="UTF-8" standalone="no"?>
<!-- Created with Inkscape (http://www.inkscape.org/) -->

<svg
   xmlns:dc="http://purl.org/dc/elements/1.1/"
   xmlns:cc="http://creativecommons.org/ns#"
   xmlns:rdf="http://www.w3.org/1999/02/22-rdf-syntax-ns#"
   xmlns:svg="http://www.w3.org/2000/svg"
   xmlns="http://www.w3.org/2000/svg"
   xmlns:xlink="http://www.w3.org/1999/xlink"
   xmlns:sodipodi="http://sodipodi.sourceforge.net/DTD/sodipodi-0.dtd"
   xmlns:inkscape="http://www.inkscape.org/namespaces/inkscape"
   version="1.1"
   width="80"
   height="80"
   id="svg2"
   inkscape:version="0.48.2 r9819"
   sodipodi:docname="social-github-white.svg"
   inkscape:export-filename="/Users/sdecaste/devel/gorillasoftware/source/images/social-github-white.png"
   inkscape:export-xdpi="90"
   inkscape:export-ydpi="90">
  <sodipodi:namedview
     pagecolor="#ffffff"
     bordercolor="#666666"
     borderopacity="1"
     objecttolerance="10"
     gridtolerance="10"
     guidetolerance="10"
     inkscape:pageopacity="0"
     inkscape:pageshadow="2"
     inkscape:window-width="1366"
     inkscape:window-height="720"
     id="namedview75"
     showgrid="false"
     fit-margin-top="0"
     fit-margin-left="0"
     fit-margin-right="0"
     fit-margin-bottom="0"
     inkscape:zoom="5.7173588"
     inkscape:cx="-58.370146"
     inkscape:cy="18.986718"
     inkscape:window-x="1"
     inkscape:window-y="0"
     inkscape:window-maximized="0"
     inkscape:current-layer="svg2" />
  <defs
     id="defs4">
    <linearGradient
       id="linearGradient4015">
      <stop
         id="stop4017"
         style="stop-color:#5a5a5a;stop-opacity:1"
         offset="0" />
      <stop
         id="stop4019"
         style="stop-color:#000000;stop-opacity:1"
         offset="1" />
    </linearGradient>
    <linearGradient
       id="linearGradient3978">
      <stop
         id="stop3980"
         style="stop-color:#ffffff;stop-opacity:1"
         offset="0" />
      <stop
         id="stop3982"
         style="stop-color:#d7d8d4;stop-opacity:1"
         offset="1" />
    </linearGradient>
    <radialGradient
       cx="588.42859"
       cy="764.7193"
       r="20"
       fx="588.42859"
       fy="764.7193"
       id="radialGradient4027"
       xlink:href="#linearGradient4015"
       gradientUnits="userSpaceOnUse"
       gradientTransform="matrix(1.675,-7.5759065e-7,6.446166e-7,1.4252193,-397.18979,-324.17294)" />
    <radialGradient
       cx="588.42859"
       cy="764.7193"
       r="20"
       fx="588.42859"
       fy="764.7193"
       id="radialGradient4029"
       xlink:href="#linearGradient4015"
       gradientUnits="userSpaceOnUse"
       gradientTransform="matrix(1.675,-7.5759065e-7,6.446166e-7,1.4252193,-956.61838,-1048.3922)" />
    <clipPath
       id="clipPath3131">
      <rect
         width="39.306641"
         height="28.515625"
         rx="0.39133152"
         ry="1.4259031"
         x="2.4414062"
         y="7.5292969"
         id="rect3133"
         style="fill:#000000;fill-opacity:1;fill-rule:nonzero;stroke:none" />
    </clipPath>
  </defs>
  <metadata
     id="metadata7">
    <rdf:RDF>
      <cc:Work
         rdf:about="">
        <dc:format>image/svg+xml</dc:format>
        <dc:type
           rdf:resource="http://purl.org/dc/dcmitype/StillImage" />
        <dc:title></dc:title>
      </cc:Work>
    </rdf:RDF>
  </metadata>
  <g
     id="g3108"
     transform="matrix(2.0188959,0,0,2.018896,-95.341557,0)"
     style="fill:#ffffff;fill-opacity:1">
    <g
       id="g3088"
       style="fill:#ffffff;fill-opacity:1">
      <rect
         width="2.2097087"
         height="4.858757"
         rx="0.6221202"
         ry="4.858757"
         x="72.374069"
         y="16.383284"
         id="rect4343"
         style="fill:#ffffff;fill-opacity:1;fill-rule:nonzero;stroke:none" />
      <rect
         width="2.2097087"
         height="4.858757"
         rx="0.6221202"
         ry="4.858757"
         x="62.2094"
         y="16.383284"
         id="rect4345"
         style="fill:#ffffff;fill-opacity:1;fill-rule:nonzero;stroke:none" />
      <rect
         width="7.3615699"
         height="0.18556273"
         rx="0.18715855"
         ry="0.18556273"
         x="49.129719"
         y="23.30677"
         transform="matrix(0.99941933,-0.03407352,0.13994505,0.99015927,0,0)"
         id="rect4349"
         style="fill:#ffffff;fill-opacity:1;fill-rule:nonzero;stroke:none" />
      <rect
         width="7.3615699"
         height="0.18556273"
         rx="0.18715855"
         ry="0.18556273"
         x="48.993366"
         y="24.280464"
         transform="matrix(0.99941933,-0.03407352,0.13994505,0.99015927,0,0)"
         id="rect4351"
         style="fill:#ffffff;fill-opacity:1;fill-rule:nonzero;stroke:none" />
      <rect
         width="7.3615699"
         height="0.18556273"
         rx="0.18715855"
         ry="0.18556273"
         x="49.203815"
         y="22.33094"
         transform="matrix(0.99941933,-0.03407352,0.13994505,0.99015927,0,0)"
         id="rect4353"
         style="fill:#ffffff;fill-opacity:1;fill-rule:nonzero;stroke:none" />
      <rect
         width="7.3615699"
         height="0.18556273"
         rx="0.18715855"
         ry="0.18556273"
         x="-86.369339"
         y="18.643955"
         transform="matrix(-0.99941933,-0.03407352,-0.13994505,0.99015927,0,0)"
         id="rect4357"
         style="fill:#ffffff;fill-opacity:1;fill-rule:nonzero;stroke:none" />
      <rect
         width="7.3615699"
         height="0.18556273"
         rx="0.18715855"
         ry="0.18556273"
         x="-86.505692"
         y="19.617649"
         transform="matrix(-0.99941933,-0.03407352,-0.13994505,0.99015927,0,0)"
         id="rect4359"
         style="fill:#ffffff;fill-opacity:1;fill-rule:nonzero;stroke:none" />
      <rect
         width="7.3615699"
         height="0.18556273"
         rx="0.18715855"
         ry="0.18556273"
         x="-86.295242"
         y="17.668125"
         transform="matrix(-0.99941933,-0.03407352,-0.13994505,0.99015927,0,0)"
         id="rect4361"
         style="fill:#ffffff;fill-opacity:1;fill-rule:nonzero;stroke:none" />
      <path
         d="m 0,20 c 0,13.333333 0,6.666667 0,0 z M 24.529468,36.54301 C 24.864202,35.103842 25,33.384616 25,30.9375 25,29.25351 24.36138,27.72875 23.375,26.71875 l 0.90625,0 c 3.97948,0 7.1875,-3.21901 7.1875,-7.21875 l 0,-1.90625 c 0,-2.06737 -0.87346,-3.90498 -2.25,-5.21875 l 0,-4.3125 -4.0625,2.375 c -0.28743,-0.0349 -0.5779,-0.0625 -0.875,-0.0625 l -7.6875,0 c -0.59852,0 -1.16359,0.0814 -1.71875,0.21875 l -4.34375,-2.53125 0,5.6875 c -0.6935,1.11127 -1.125,2.42975 -1.125,3.84375 l 0,1.90625 c 0,3.99974 3.20803,7.21875 7.1875,7.21875 l 0.8125,0 c -0.82294,0.84629 -1.36854,2.05126 -1.53125,3.40625 -3.4125,1.31221 -3.99143,-2.71028 -8.34375,-3.3125 5.20144,4.24907 2.60592,5.396 8.28125,5.6875 l 0,4.0625 c 5.769592,3.991858 7.920403,3.405288 8.716968,-0.01949 M 16.40625,15.625 l 8.28125,0 c 2.13979,0 3.875,2.07545 3.875,4.65625 0,2.58079 -1.73521,4.65625 -3.875,4.65625 l -8.28125,0 c -2.13979,0 -3.84375,-2.07546 -3.84375,-4.65625 0,-2.5808 1.70396,-4.65625 3.84375,-4.65625 z m 4.1875,14 c 0.27636,0 0.5,2.4759 0.5,5.53125 l 0,1.09375 c 0,0.28436 -0.0273,0.5517 -0.0312,0.8125 -0.32249,0.0207 -0.64177,0.0289 -0.96875,0.0312 -0.01,-0.27573 0,-0.5427 0,-0.84375 l 0,-1.09375 c 0,-3.05535 0.22365,-5.53125 0.5,-5.53125 z M 18,30.03125 c 0.27635,0 0.5,2.47589 0.5,5.53125 l 0,1.09375 c 0,0.13375 0.002,0.25151 0,0.375 -0.33511,-0.0295 -0.67064,-0.076 -1,-0.125 -9.6e-4,-0.0887 0,-0.15524 0,-0.25 l 0,-1.09375 c 0,-3.05536 0.22364,-5.53125 0.5,-5.53125 z m 5.5,6.6875 c -0.33038,0.0702 -0.66299,0.13699 -1,0.1875 -9.5e-4,-0.0839 0,-0.16082 0,-0.25 l 0,-1.09375 c 0,-3.05536 0.22365,-5.53125 0.5,-5.53125 0.27636,0 0.5,2.47589 0.5,5.53125 l 0,1.09375 c 0,0.0279 1.5e-4,0.0353 0,0.0625"
         clip-path="url(#clipPath3131)"
         id="path4367"
         style="font-size:medium;font-style:normal;font-variant:normal;font-weight:normal;font-stretch:normal;text-indent:0;text-align:start;text-decoration:none;line-height:normal;letter-spacing:normal;word-spacing:normal;text-transform:none;direction:ltr;block-progression:tb;writing-mode:lr-tb;text-anchor:start;baseline-shift:baseline;color:#000000;fill:#ffffff;fill-opacity:1;stroke:none;stroke-width:6.43383312;marker:none;visibility:visible;display:inline;overflow:visible;enable-background:accumulate;font-family:Sans;-inkscape-font-specification:Sans"
         inkscape:connector-curvature="0"
         transform="translate(47.867009,-1.7551486)" />
      <rect
         width="2.2097087"
         height="4.858757"
         rx="0.6221202"
         ry="4.858757"
         x="72.374069"
         y="16.258284"
         id="rect4369"
         style="fill:#ffffff;fill-opacity:1;fill-rule:nonzero;stroke:none" />
      <rect
         width="2.2097087"
         height="4.858757"
         rx="0.6221202"
         ry="4.858757"
         x="62.2094"
         y="16.258284"
         id="rect4371"
         style="fill:#ffffff;fill-opacity:1;fill-rule:nonzero;stroke:none" />
      <rect
         width="7.3615699"
         height="0.18556273"
         rx="0.18715855"
         ry="0.18556273"
         x="49.147312"
         y="23.181133"
         transform="matrix(0.99941933,-0.03407352,0.13994505,0.99015927,0,0)"
         id="rect4375"
         style="fill:#ffffff;fill-opacity:1;fill-rule:nonzero;stroke:none" />
      <rect
         width="7.3615699"
         height="0.18556273"
         rx="0.18715855"
         ry="0.18556273"
         x="49.01096"
         y="24.154827"
         transform="matrix(0.99941933,-0.03407352,0.13994505,0.99015927,0,0)"
         id="rect4377"
         style="fill:#ffffff;fill-opacity:1;fill-rule:nonzero;stroke:none" />
      <rect
         width="7.3615699"
         height="0.18556273"
         rx="0.18715855"
         ry="0.18556273"
         x="49.221409"
         y="22.205303"
         transform="matrix(0.99941933,-0.03407352,0.13994505,0.99015927,0,0)"
         id="rect4379"
         style="fill:#ffffff;fill-opacity:1;fill-rule:nonzero;stroke:none" />
      <rect
         width="7.3615699"
         height="0.18556273"
         rx="0.18715855"
         ry="0.18556273"
         x="-86.351746"
         y="18.518318"
         transform="matrix(-0.99941933,-0.03407352,-0.13994505,0.99015927,0,0)"
         id="rect4383"
         style="fill:#ffffff;fill-opacity:1;fill-rule:nonzero;stroke:none" />
      <rect
         width="7.3615699"
         height="0.18556273"
         rx="0.18715855"
         ry="0.18556273"
         x="-86.488098"
         y="19.492012"
         transform="matrix(-0.99941933,-0.03407352,-0.13994505,0.99015927,0,0)"
         id="rect4385"
         style="fill:#ffffff;fill-opacity:1;fill-rule:nonzero;stroke:none" />
      <rect
         width="7.3615699"
         height="0.18556273"
         rx="0.18715855"
         ry="0.18556273"
         x="-86.277649"
         y="17.542488"
         transform="matrix(-0.99941933,-0.03407352,-0.13994505,0.99015927,0,0)"
         id="rect4387"
         style="fill:#ffffff;fill-opacity:1;fill-rule:nonzero;stroke:none" />
      <path
         inkscape:connector-curvature="0"
         style="font-size:medium;font-style:normal;font-variant:normal;font-weight:normal;font-stretch:normal;text-indent:0;text-align:start;text-decoration:none;line-height:normal;letter-spacing:normal;word-spacing:normal;text-transform:none;direction:ltr;block-progression:tb;writing-mode:lr-tb;text-anchor:start;baseline-shift:baseline;color:#000000;fill:#ffffff;fill-opacity:1;stroke:none;stroke-width:1.85012889;marker:none;visibility:visible;display:inline;overflow:visible;enable-background:accumulate;font-family:Sans;-inkscape-font-specification:Sans"
         id="path3280"
         d="m 67.020522,0 c -10.92951,0 -19.795919,8.8664084 -19.795919,19.795918 0,10.92951 8.866409,19.8297 19.795919,19.8297 10.92951,0 19.8297,-8.90019 19.8297,-19.8297 C 86.850222,8.8664084 77.950032,0 67.020522,0 z m 0,1.9931044 c 9.84863,0 17.836596,7.954184 17.836596,17.8028136 0,9.84863 -7.987966,17.836596 -17.836596,17.836596 -9.84863,0 -17.802814,-7.987966 -17.802814,-17.836596 0,-9.8486296 7.954184,-17.8028136 17.802814,-17.8028136 z" />
    </g>
  </g>
</svg>
