<?xml version="1.0" encoding="UTF-8" standalone="no"?>
<!-- Created with Inkscape (http://www.inkscape.org/) -->

<svg
   xmlns:dc="http://purl.org/dc/elements/1.1/"
   xmlns:cc="http://creativecommons.org/ns#"
   xmlns:rdf="http://www.w3.org/1999/02/22-rdf-syntax-ns#"
   xmlns:svg="http://www.w3.org/2000/svg"
   xmlns="http://www.w3.org/2000/svg"
   xmlns:sodipodi="http://sodipodi.sourceforge.net/DTD/sodipodi-0.dtd"
   xmlns:inkscape="http://www.inkscape.org/namespaces/inkscape"
   width="17.471001"
   height="14.199"
   id="svg8723"
   version="1.1"
   inkscape:version="0.48.2 r9819"
   sodipodi:docname="t-twittersvg">
  <defs
     id="defs8725" />
  <sodipodi:namedview
     id="base"
     pagecolor="#ffffff"
     bordercolor="#666666"
     borderopacity="1.0"
     inkscape:pageopacity="0.0"
     inkscape:pageshadow="2"
     inkscape:zoom="11.2"
     inkscape:cx="2.1746065"
     inkscape:cy="6.6109738"
     inkscape:document-units="px"
     inkscape:current-layer="layer1"
     showgrid="false"
     fit-margin-top="0"
     fit-margin-left="0"
     fit-margin-right="0"
     fit-margin-bottom="0"
     inkscape:window-width="1366"
     inkscape:window-height="720"
     inkscape:window-x="1"
     inkscape:window-y="0"
     inkscape:window-maximized="0" />
  <metadata
     id="metadata8728">
    <rdf:RDF>
      <cc:Work
         rdf:about="">
        <dc:format>image/svg+xml</dc:format>
        <dc:type
           rdf:resource="http://purl.org/dc/dcmitype/StillImage" />
        <dc:title></dc:title>
      </cc:Work>
    </rdf:RDF>
  </metadata>
  <g
     inkscape:label="Layer 1"
     inkscape:groupmode="layer"
     id="layer1"
     transform="translate(502.82671,-997.16375)">
    <g
       transform="translate(-556.28571,-977.20925)"
       id="twitter"
       style="fill:#ffffff;fill-opacity:1">
      <path
         style="fill:#ffffff;fill-opacity:1"
         inkscape:connector-curvature="0"
         d="m 69.143,1977.908 c 0.006,0.152 0.01,0.309 0.01,0.464 0,4.738 -3.605,10.2 -10.199,10.2 -2.025,0 -3.909,-0.594 -5.495,-1.611 0.28,0.033 0.565,0.051 0.854,0.051 1.68,0 3.226,-0.572 4.452,-1.534 -1.569,-0.027 -2.892,-1.064 -3.349,-2.488 0.219,0.043 0.443,0.062 0.675,0.062 0.327,0 0.643,-0.045 0.944,-0.125 -1.642,-0.328 -2.876,-1.777 -2.876,-3.516 0,-0.017 0,-0.028 0,-0.044 0.482,0.268 1.035,0.431 1.624,0.446 -0.962,-0.643 -1.596,-1.739 -1.596,-2.982 0,-0.657 0.177,-1.273 0.485,-1.802 1.768,2.168 4.409,3.596 7.39,3.745 -0.062,-0.264 -0.093,-0.536 -0.093,-0.818 0,-1.979 1.605,-3.583 3.585,-3.583 1.031,0 1.963,0.435 2.617,1.132 0.815,-0.161 1.583,-0.459 2.275,-0.871 -0.268,0.839 -0.836,1.54 -1.575,1.983 0.726,-0.084 1.416,-0.277 2.059,-0.563 -0.48,0.717 -1.087,1.347 -1.787,1.854 z"
         id="path62"
         sodipodi:nodetypes="csscsccscsccsccssccccc" />
    </g>
  </g>
</svg>
