<?xml version="1.0" encoding="UTF-8" standalone="no"?>
<!-- Created with Inkscape (http://www.inkscape.org/) -->

<svg
   xmlns:dc="http://purl.org/dc/elements/1.1/"
   xmlns:cc="http://creativecommons.org/ns#"
   xmlns:rdf="http://www.w3.org/1999/02/22-rdf-syntax-ns#"
   xmlns:svg="http://www.w3.org/2000/svg"
   xmlns="http://www.w3.org/2000/svg"
   xmlns:sodipodi="http://sodipodi.sourceforge.net/DTD/sodipodi-0.dtd"
   xmlns:inkscape="http://www.inkscape.org/namespaces/inkscape"
   width="144"
   height="144"
   id="svg4536"
   version="1.1"
   inkscape:version="0.48.2 r9819"
   sodipodi:docname="favicon.svg"
   inkscape:export-filename="/Users/sdecaste/devel/gorillasoftware/gorillasoftware.ch/source/favicon_base.png"
   inkscape:export-xdpi="90"
   inkscape:export-ydpi="90">
  <defs
     id="defs4538">
    <clipPath
       clipPathUnits="userSpaceOnUse"
       id="clipPath3813">
      <rect
         ry="10.194471"
         y="413.84375"
         x="337.41519"
         height="144"
         width="144"
         id="rect3815"
         style="fill:#29ffff;fill-opacity:1;stroke:none" />
    </clipPath>
  </defs>
  <sodipodi:namedview
     id="base"
     pagecolor="#000000"
     bordercolor="#666666"
     borderopacity="1.0"
     inkscape:pageopacity="0"
     inkscape:pageshadow="2"
     inkscape:zoom="2.8284271"
     inkscape:cx="80.83573"
     inkscape:cy="71.958598"
     inkscape:document-units="px"
     inkscape:current-layer="layer1"
     showgrid="false"
     fit-margin-top="0"
     fit-margin-left="0"
     fit-margin-right="0"
     fit-margin-bottom="0"
     inkscape:window-width="1366"
     inkscape:window-height="720"
     inkscape:window-x="1"
     inkscape:window-y="0"
     inkscape:window-maximized="0"
     inkscape:snap-page="true"
     inkscape:snap-bbox="true"
     inkscape:bbox-nodes="true"
     inkscape:bbox-paths="true"
     inkscape:object-nodes="true"
     inkscape:snap-bbox-edge-midpoints="true"
     inkscape:snap-bbox-midpoints="true"
     inkscape:snap-smooth-nodes="true" />
  <metadata
     id="metadata4541">
    <rdf:RDF>
      <cc:Work
         rdf:about="">
        <dc:format>image/svg+xml</dc:format>
        <dc:type
           rdf:resource="http://purl.org/dc/dcmitype/StillImage" />
        <dc:title></dc:title>
      </cc:Work>
    </rdf:RDF>
  </metadata>
  <g
     inkscape:label="Layer 1"
     inkscape:groupmode="layer"
     id="layer1"
     transform="translate(-337.4152,-413.84374)">
    <g
       id="g3777"
       clip-path="url(#clipPath3813)">
      <path
         sodipodi:nodetypes="ccccccccccc"
         inkscape:connector-curvature="0"
         id="path4473"
         d="m 337.4152,510.5117 c 12.89109,-21.256 28.64081,-33.93612 46.03959,-41.669 13.91789,-11.47807 31.97268,-18.40553 52.32872,-22.8016 -7.39735,4.82773 -13.29518,10.40522 -15.55327,17.80259 l 5.73304,0.87031 c 8.48443,-4.44497 17.99718,-6.31916 27.76033,-7.56735 -4.44152,4.70155 -9.86261,8.91331 -11.91423,14.8098 22.22567,14.07426 29.6871,26.54584 39.60582,39.38942 l 0,-97.50213 -144,0 z"
         style="fill:#ffffff;fill-opacity:1;stroke:none" />
      <g
         style="fill:#000000;fill-opacity:1"
         id="g3761">
        <path
           sodipodi:nodetypes="ccccccccccc"
           inkscape:connector-curvature="0"
           id="path2991"
           d="m 337.4152,510.5117 c 12.89109,-21.256 28.64081,-33.93612 46.03959,-41.669 13.91789,-11.47807 31.97268,-18.40553 52.32872,-22.8016 -7.39735,4.82773 -13.29518,10.40522 -15.55327,17.80259 l 5.73304,0.87031 c 8.48443,-4.44497 17.99718,-6.31916 27.76033,-7.56735 -4.44152,4.70155 -9.86261,8.91331 -11.91423,14.8098 22.22567,14.07426 29.6871,26.54584 39.60582,39.38942 l 0,46.49787 -144,0 z"
           style="fill:#000000;fill-opacity:1;stroke:none" />
      </g>
    </g>
  </g>
</svg>
