<?xml version="1.0" encoding="UTF-8" standalone="no"?>
<!-- Created with Inkscape (http://www.inkscape.org/) -->

<svg
   xmlns:dc="http://purl.org/dc/elements/1.1/"
   xmlns:cc="http://creativecommons.org/ns#"
   xmlns:rdf="http://www.w3.org/1999/02/22-rdf-syntax-ns#"
   xmlns:svg="http://www.w3.org/2000/svg"
   xmlns="http://www.w3.org/2000/svg"
   xmlns:sodipodi="http://sodipodi.sourceforge.net/DTD/sodipodi-0.dtd"
   xmlns:inkscape="http://www.inkscape.org/namespaces/inkscape"
   width="16"
   height="12.304"
   id="svg9341"
   version="1.1"
   inkscape:version="0.48.2 r9819"
   sodipodi:docname="t-github.svg"
   inkscape:export-filename="/Users/sdecaste/devel/gorillasoftware/gorillasoftware.ch/source/images/t-github.png"
   inkscape:export-xdpi="90"
   inkscape:export-ydpi="90">
  <defs
     id="defs9343" />
  <sodipodi:namedview
     id="base"
     pagecolor="#ffffff"
     bordercolor="#666666"
     borderopacity="1.0"
     inkscape:pageopacity="0.0"
     inkscape:pageshadow="2"
     inkscape:zoom="11.2"
     inkscape:cx="-4.2692764"
     inkscape:cy="8.336971"
     inkscape:document-units="px"
     inkscape:current-layer="layer1"
     showgrid="false"
     fit-margin-top="0"
     fit-margin-left="0"
     fit-margin-right="0"
     fit-margin-bottom="0"
     inkscape:window-width="1366"
     inkscape:window-height="720"
     inkscape:window-x="1"
     inkscape:window-y="0"
     inkscape:window-maximized="0" />
  <metadata
     id="metadata9346">
    <rdf:RDF>
      <cc:Work
         rdf:about="">
        <dc:format>image/svg+xml</dc:format>
        <dc:type
           rdf:resource="http://purl.org/dc/dcmitype/StillImage" />
        <dc:title></dc:title>
      </cc:Work>
    </rdf:RDF>
  </metadata>
  <g
     inkscape:label="Layer 1"
     inkscape:groupmode="layer"
     id="layer1"
     transform="translate(-363.42857,-588.2193)">
    <g
       transform="translate(251.42857,-1396.7807)"
       id="github_2_"
       style="fill:#ffffff;fill-opacity:1">
      <path
         inkscape:connector-curvature="0"
         id="path136"
         d="m 118,1996 -2,0 0,-3 2,0 z m 3,1 -2,0 0,-1 2,0 z m 3,-1 -2,0 0,-3 2,0 z m -1,-9 0,0 4,-2 0.062,4 c 0.723,0.867 0.938,1.782 0.938,3 l 0,1 c 0,1.844 -1.01,3.437 -2.494,4.304 0.304,-0.351 0.494,-0.803 0.494,-1.304 l 0,-2 c 0,-1.104 -0.896,-2 -2,-2 l -8,0 c -1.104,0 -2,0.896 -2,2 l 0,2 c 0,0.501 0.19,0.953 0.494,1.304 C 113.01,1996.437 112,1994.844 112,1993 l 0,-1 c 0,-1.143 0.355,-2.158 1,-3 l 0,-4 4,1.998 6,0 z"
         sodipodi:nodetypes="cccccccccccccccccccsscsssssscssccccc"
         style="fill:#ffffff;fill-opacity:1" />
    </g>
  </g>
</svg>
